<svg xmlns="http://www.w3.org/2000/svg" viewBox="0 0 1059.86 584.09"><defs><style>.cls-1{fill:#2b3f5f;}.cls-2{fill:#2a3d5a;}.cls-3{fill:#2e4564;}.cls-4{fill:#3c597e;}.cls-5{fill:#4d6d97;}.cls-6{fill:#7094ba;}.cls-7{fill:#6286b1;}.cls-8{fill:#7aa0bf;}.cls-9{fill:#8daec2;}.cls-10{fill:#a0bac7;}.cls-11{fill:#99b5c4;}.cls-12{fill:#d0d1ca;}.cls-13{fill:#365174;}.cls-14{fill:#46658e;}.cls-15{fill:#23283a;}.cls-16{fill:#21253e;}.cls-17{fill:#426089;}.cls-18{fill:#212d48;}.cls-19{fill:#212434;}.cls-20{fill:#5a7baa;}.cls-21{fill:#53749e;}.cls-22{fill:#c2ccca;}.cls-23{fill:#23334e;}.cls-24{fill:#ced0ca;}.cls-25{fill:#222537;}.cls-26{fill:#263854;}.cls-27{fill:#20202c;}</style></defs><g id="Layer_2" data-name="Layer 2"><g id="Layer_1-2" data-name="Layer 1"><path class="cls-1" d="M554.17,217.09c30.4-8.38,61-16.34,89.21-30.9,3.36-1.74,6.46-4,9.68-6l-3.91,7c-.67-.09-1.51-.48-2-.22-28.18,15.37-58.73,24-89.65,31.54-.48.12-1,.31-1.42.47l-4.86-.56.17-.08Z"/><path class="cls-2" d="M447.75,207.45c21.46,6.53,43,5.11,64.68,1.11a119.91,119.91,0,0,1,21.06-2c-26.3,6.3-52.65,12.24-80.58,5.44.74,1.36,1.22,2.25,1.69,3.13a20.39,20.39,0,0,1-3.51-2.69A47.38,47.38,0,0,1,447.75,207.45Z"/><path class="cls-3" d="M590,9c-.55.28-1.57.53-1.59.84-.43,6.77-5.53,9.7-10.57,12.19C561,30.33,543,33.81,524.29,34.58c4.12-.93,8.28-1.67,12.33-2.82,12.77-3.64,25.58-7.15,38.18-11.3,4.79-1.58,9.64-4.19,11.29-9.74.31-1-.74-2.45-1.16-3.69Z"/><path class="cls-1" d="M585,7c-9.63-4.57-18.83-3.17-28.63.42s-20.55,5.42-30.89,7.94a13.83,13.83,0,0,1-3.22,0c0-.41-.06-.81-.1-1.22,7-1.88,14-3.71,21-5.63a156,156,0,0,0,20.26-6.71L557.56,0Z"/><path class="cls-1" d="M611.29,22A54.1,54.1,0,0,1,584.92,40.3L584,38.79a58.49,58.49,0,0,0,5.44-3c6-4.19,11.92-8.42,17.71-12.86,1-.78,1.24-2.64,1.82-4Z"/><path class="cls-4" d="M539.91,1.89,519.33,7.51l-.56-2.08c3.22-.82,6.45-1.6,9.65-2.49,1.48-.41,3.78-.66,1.32-2.94Z"/><path class="cls-5" d="M551.24,0c-3.27,6.84-9.76,6.77-15.7,7.91L535,6.75a63.52,63.52,0,0,0,7-2.56A75.67,75.67,0,0,0,548.79,0Z"/><path class="cls-3" d="M594,10.84,590,9Z"/><path class="cls-3" d="M596.91,12.16l-2.8-1.28Z"/><path class="cls-4" d="M540.88.92l-1,1Z"/><path class="cls-4" d="M542.18,0c-.42.31-.85.61-1.28.91C541.33.61,541.76.31,542.18,0Z"/><path class="cls-4" d="M576.35,48.24c-12.5,4.64-24.75,10.1-38.61,10.24L576,47.05Z"/><path class="cls-3" d="M587,48.06,614.85,33C614.73,37.23,597.21,47.64,587,48.06Z"/><path class="cls-6" d="M566.3,16.26l11.24-6.63,1,1.7L567.35,18Z"/><path class="cls-6" d="M510.28,193.27c-14.44,4.16-29,7.79-44.2,5.68Z"/><path class="cls-7" d="M558.82,227.39l32.24-10.12C587.88,221.71,567,228.26,558.82,227.39Z"/><path class="cls-8" d="M584.29,198.59,555.11,206c-.15-.57-.29-1.15-.44-1.72l29-7.63Z"/><path class="cls-9" d="M610,217l2.06,1.08-15.28,6.21-.71-1.75Z"/><path class="cls-10" d="M540.81,232.89l-10.71,2c-.12-.75-.25-1.49-.38-2.24l10.81-1.42C540.63,231.78,540.72,232.33,540.81,232.89Z"/><path class="cls-11" d="M587.59,180.87l1.49,1.44L576.44,187c-.2-.49-.41-1-.61-1.49Z"/><path class="cls-8" d="M551.23,218.4l4.86.56-13.47,3.27-.36-1.25,8.56-3.13.62.53Z"/><path class="cls-8" d="M554.17,217.09l-2.77,1.23,0,.06-.62-.53Z"/><polygon class="cls-12" points="551.44 218.38 551.4 218.32 551.23 218.4 551.44 218.38"/><path class="cls-2" d="M430.84,64.74c1.51,1.32,2.81,3.17,4.57,3.88,13.12,5.3,26.78,4.6,40.37,2.76,15.5-2.1,30.94-4.7,46.4-7.07a3.25,3.25,0,0,1,3,1c-5.26,1.22-10.46,2.84-15.78,3.6-16.95,2.4-33.91,4.86-50.94,6.51-9,.88-17.86-1.19-26.17-5.15-1.17-.56-2.87,0-4.33.06Z"/><path class="cls-6" d="M703,71c3.57.32,7.14.61,10.71,1,2.76.28,5.51.64,8.26,1-21.32-1.09-42.25,2.23-63.91,5.54.35,1.78.65,3.27,1,4.78L648.37,86.2c2.79-4.11,11.55-3,7.61-10.51,7.49-.77,15-1.55,22.45-2.29C686.62,72.58,694.81,71.8,703,71Z"/><path class="cls-13" d="M626.27,105.89,659.8,89C656.89,94.12,634.12,105.61,626.27,105.89Z"/><path class="cls-9" d="M612,83c3.38-2.37,6.76-4.73,10.13-7.12a84.13,84.13,0,0,1,13.17-8.16c-.83,1-1.46,2.35-2.52,3C625.87,74.88,618.9,78.91,612,83Z"/><path class="cls-6" d="M472.13,86.67l22.21-2.54.21,1.72L472.3,88.7Z"/><path class="cls-9" d="M595.77,80.9l-1.93-1.05L610.31,72l.88,1.76Z"/><path class="cls-10" d="M615.86,61.67l7.95-4.28.75,1.35-7.91,4.41C616.39,62.65,616.12,62.16,615.86,61.67Z"/><path class="cls-11" d="M637.46,131.91l20.47-6.25c-5.25,2.65-10.41,5.49-15.8,7.8C641,133.94,639,132.48,637.46,131.91Z"/><path class="cls-11" d="M636.78,135.09,623.89,138l-3.2-1,16.45-5,1.38,2.77Z"/><path class="cls-9" d="M736.13,69.93c3.38-2.53,5.92-.76,7.57,2,1.52,2.57-1.11,6.06-4.8,7C743,73.05,742.48,71.38,736.13,69.93Z"/><path class="cls-14" d="M738.05,81.05,728.92,86l7.47-5Z"/><path class="cls-14" d="M729,86l-6.06,3Z"/><path class="cls-14" d="M723,89,718.45,92Z"/><path class="cls-2" d="M633.93,122,628.78,124Z"/><path class="cls-14" d="M713,93.94l-.42,1.88-3.5-.8Z"/><path class="cls-2" d="M618,127l-3,1h0c0-.29,0-.58.06-.87Z"/><path class="cls-9" d="M739,78.91,737.89,80Z"/><path class="cls-9" d="M738.05,81.05,736.39,81l1.57-1a4,4,0,0,1,.3.74C738.28,80.77,738.13,80.92,738.05,81.05Z"/><path class="cls-2" d="M628,124l-1.17,1Z"/><path class="cls-15" d="M750,79.05c-.17-.44-.58-1-.46-1.32,2.57-7.18,2.58-7.17-4.51-12.35l5.33-.62h.3l.23.19,3.36.93a.88.88,0,0,1,.7.18l1.89,1,.07,0,1.17.85,0-.07,0,4.43-.2,2.56c5.4-4.33,5.07-8.25-.83-10.2-3.83-1.27-8-1.45-12-2.12l-3.92-.75c5.69.08,11.38.09,17.06.27A29.25,29.25,0,0,1,763,63l5,3-1,6,0,0c-.33.66-.66,1.33-1,2l0,0-2,1,0,0-1.05,1L763,76q-2.55,1.52-5.08,3.05L758,79a9.24,9.24,0,0,0-.92.1L753,81l-2.06-2Zm8.23-3.56-.75-1.12-4,2.89.71,1.07Z"/><path class="cls-16" d="M768,66l-5-3c0-1.21,0-2.42.07-3.64,2.72.52,5.46.92,8.14,1.59,4.06,1,6.37,3.24,4.58,7.79L773,73l0,0-1,1.06L772,74l-2.07,1,0,0L768.93,76,769,76,766.92,77,767,77l-3.59,2L761.94,80l0,0-4,1.12.06-1c0-.38,0-.75,0-1.13l-.07.06Q760.46,77.48,763,76l-.07.06L764,75l0,0,2-1,0,0c.34-.66.67-1.33,1-2l0,0C770.77,70.44,771,69.17,768,66Z"/><path class="cls-4" d="M741.09,61.79l3.92.76c0,.45,0,.9.08,1.35l-18.91-.12a48.64,48.64,0,0,1,6.6-1.74C735.52,61.71,738.32,61.85,741.09,61.79Z"/><path class="cls-3" d="M714,97l21.39-8.48a2.25,2.25,0,0,1,.65-.14L739,92l-35.34,13.8c-.91.36-1.81.76-2.71,1.15-.5-1.28-1-2.56-1.41-3.62Z"/><path class="cls-2" d="M631,129.07c-1.84-3.38,1-3.52,2.94-4.07,8.76-2.53,17.55-5,26.32-7.44a6.92,6.92,0,0,0,2.37-1.13c2.61-2.07,4.2-1,5.36,1.59Z"/><path class="cls-1" d="M758,80.08l-.06,1-2.39,3L755.5,84,751,86l0,0c-1.15-.17-2.29-.36-3.44-.49-3.07-.33-2.24,1.38-1.57,3a.92.92,0,0,1-.6.47L742,89c0-.72-.07-1.44-.1-2.16L750,79.05l.89,0L753,81l4.1-2Z"/><path class="cls-3" d="M682,112.92c-1-3.68,2-4,4.25-4.76s4.62-1.47,5.66,1.78Z"/><path class="cls-3" d="M694,109.08c-3.52-5.12,4.46-1,3.59-4.32l1.26,3.15Z"/><path class="cls-3" d="M741.9,86.88c0,.72.06,1.44.1,2.16l2,1-5,2a16.54,16.54,0,0,1,.52-4.14C739.68,87.32,741.06,87.2,741.9,86.88Z"/><path class="cls-17" d="M746,88.53c-.67-1.63-1.5-3.34,1.57-3,1.15.13,2.29.32,3.44.49Z"/><path class="cls-17" d="M755.56,84.09l2.39-3L762,80Z"/><path class="cls-7" d="M763.41,78.92,767,77l-2,2.1Z"/><path class="cls-17" d="M744,90l-2-1,3.39,0Z"/><path class="cls-17" d="M763.41,78.92l1.62.13-3.09,1Z"/><path class="cls-8" d="M745.09,63.9c0-.45-.06-.9-.08-1.35,4,.66,8.22.84,12,2.11,5.9,2,6.23,5.87.83,10.2.08-1.09.14-1.82.2-2.56l0-4.43,0,.07-1.17-.85-.07,0-1.89-1a.88.88,0,0,0-.7-.18L750.91,65l-.23-.19h-.3Z"/><path class="cls-5" d="M763,76q-2.55,1.52-5.08,3.05Q760.46,77.48,763,76Z"/><path class="cls-8" d="M758.25,75.49l-4,2.84-.71-1.07,4-2.89Z"/><path class="cls-18" d="M753,81l-2.06-2Z"/><path class="cls-18" d="M758.06,67.87l0,4.43Z"/><path class="cls-18" d="M750.91,65l3.36.93Z"/><path class="cls-18" d="M755,66.06l1.89,1Z"/><path class="cls-2" d="M418.09,124.06,416,123c.16-6,.21-11.94.55-17.9.1-1.73,1-3.41,1.6-5.12-.5,8.62.26,9.52,9,11.93,10.88,3,21.8,1.72,32.74.57,1.76-.18,3.54-.21,6-.35-8,6.07-29.85,5.55-48.5-.67-2.69,8.62,2.64,13.3,11.41,15,10.79,2.11,22.27,3.08,33.15,1.84,19.95-2.27,39.68-6.52,59.5-9.91,2-.34,4-.44,6-.65l.33,1.78c-9.43,2.25-18.77,5.06-28.32,6.62-14.76,2.42-29.62,4.63-44.52,5.67-8.84.62-17.84-1.19-26.77-1.91L425,129h0l-2-1h0l-2-1.14Z"/><path class="cls-2" d="M661.3,64.08a5.32,5.32,0,0,1-1.79.74c-4.28,0-6.94,1.89-7.74,6.18-26.29,21.8-56.25,36.32-89.19,44.89a15.23,15.23,0,0,1-7.67-.06c2-.71,4.05-1.54,6.13-2.11a258.32,258.32,0,0,0,81.11-38.57c3.74-2.65,8.7-4.68,9.15-10.41Z"/><path class="cls-1" d="M664.12,144.39l.8-.62c-1.38,6.69-2.67,13.41-4.25,20.06-.28,1.2-1.77,2.12-2.7,3.17,1.86-5.38,3.73-10.77,5.78-16.68L603.12,177,600,176c18.76-8.62,37.55-17.16,56.24-25.94C659.15,148.74,661.52,146.32,664.12,144.39Z"/><path class="cls-19" d="M656,75.68c0-.48,0-1-.05-1.45,16.53-2.11,32.92-5.57,49.71-5.44a13.77,13.77,0,0,0,3.3-.83l21.85-.07,5.34,2c6.35,1.45,6.86,3.12,2.77,9l.08-.06L737.89,80l.07-.09-1.57,1-7.47,5,.06,0-6.06,3,.07,0L718.45,92l.06-.06-5.6,2,.08-.06L709.07,95c-3.8,1.52-7.58,3.1-11.41,4.54-12.84,4.85-25.64,9.8-38.56,14.42-8.3,3-16.78,5.39-25.17,8.06L628.77,124a6.43,6.43,0,0,0-.76,0l-1.17,1L618,127l-2.92.12c-10.18,3-20.31,6.18-30.56,8.91-17.18,4.56-34.33,9.27-51.67,13.13-30.41,6.76-60.63,14.64-91.6,18.37-19.84,2.39-39.28,7.81-59.44,7.65a5.75,5.75,0,0,0-1.86.65l-25.24.44c-3.38-.45-6.86-.54-10.14-1.41-5-1.32-5.54-3-3.49-7.82l4-4,0,0,6-4-.06,0,3.79-1.19L356,159.1c-2.21,2.69-6.66,5.89-6.18,8,1,4.47,6.35,3.57,10.22,4a9.4,9.4,0,0,0,1.5,0c8.15-.38,16.34-.32,24.43-1.26,13.49-1.58,26.91-3.8,40.36-5.75l52.52-10,46.4-10.1c26.71-6.79,53.48-13.31,80.09-20.48,18.1-4.87,36-10.62,53.92-16.05a34.37,34.37,0,0,0,4.79-2.29,23.69,23.69,0,0,0,4.34-.72c11.84-4.31,23.77-8.39,35.41-13.19a183.8,183.8,0,0,0,21.65-11.06,7.55,7.55,0,0,0,3.19-5.89c-.07-1.22-3.38-3.09-5.33-3.2C716.57,70.75,709.77,71,703,71c-8.19.79-16.38,1.57-24.57,2.39C671,74.14,663.47,74.92,656,75.68Z"/><path class="cls-2" d="M421.07,158.92c-.09.36-.18.72-.26,1.09q-.94-5-1.87-10.08c11,3.89,22.28,3.68,33.54,2.34,14.83-1.77,29.58-4.12,44.37-6.22h5.74c.05.39.11.78.16,1.18l-29,5.66c-4.52.57-9,1.47-13.56,1.65q-16.05.61-32.11.61c-2.62,0-5.25-1-8.53-1.74C420.19,155.79,420.63,157.35,421.07,158.92Z"/><path class="cls-9" d="M473.73,152.89l29-5.66c-.05-.4-.11-.79-.16-1.18h-5.74c5.74-.15,11.5-.13,17.23-.48,3.74-.24,7.45-1,11.18-1.55l-46.39,10.1Z"/><path class="cls-20" d="M563.89,126.9c-9.15,3.13-18.44,5.36-28.33,4.26l26.14-5.4Z"/><path class="cls-6" d="M563.89,126.9l-2.19-1.14,14.58-4.18.48,1.58Z"/><path class="cls-21" d="M614,159c-16.94,6.47-33.68,13.55-50.89,19.16-9.5,3.1-19.81,3.75-29.75,5.5-.08-.42-.15-.85-.23-1.27,13.38-3.12,27-5.49,40.08-9.58s25.76-9.92,38.61-15Z"/><path class="cls-2" d="M580.19,156.22q19.88-8.07,39.73-16.16c1.37-.56,2.65-1.36,4-2.05l12.89-2.92c-3.49,1.76-6.89,3.76-10.51,5.22-14,5.66-28.08,11.15-42.13,16.7l-3,.13Z"/><path class="cls-4" d="M600,176l3.08,1-14,5.27-1.49-1.44Z"/><path class="cls-9" d="M570.06,161.08l-13,4c-.2-.69-.4-1.37-.59-2.05l10.87-2.88Z"/><path class="cls-17" d="M570.06,161.08l-2.68-.93L574.1,158l3.09,1Z"/><path class="cls-2" d="M577.19,159.05l-3.09-1,6.1-1.8.9.92c-.09.27-.18.54-.26.81Z"/><path class="cls-17" d="M580.84,158c.08-.27.17-.54.26-.81l3-.13Z"/><path class="cls-6" d="M308.87,169.85l8.36-5.25c0,.45,0,.9.09,1.34-.11,1-.23,2-.35,3.06h0l-.93,2.14L312.89,173,311,172C310.26,171.29,309.57,170.57,308.87,169.85Z"/><path class="cls-20" d="M308.87,169.85c.7.72,1.39,1.44,2.09,2.15l-7.91,7.79c0-.44,0-.88,0-1.32l1-1.52c.63-1.69,1.26-3.37,1.88-5.06Z"/><path class="cls-22" d="M473.73,152.89l5.14,1.23-52.53,10c-4.19.75-3.94-3-5.27-5.19-.44-1.57-.88-3.13-1.54-5.51,3.28.7,5.91,1.74,8.53,1.74q16.06,0,32.11-.61C464.7,154.36,469.21,153.46,473.73,152.89Z"/><path class="cls-8" d="M354.51,177.56l-4.18-.21-1.44-.15c-1.62-.19-3.44,0-4.82-.65-2.5-1.24-5.81-2.56-6.72-4.72-.63-1.5,2.21-4.45,3.49-6.75.07.66.13,1.31.19,2-2,4.82-1.47,6.5,3.49,7.82,3.28.87,6.76,1,10.14,1.41Z"/><path class="cls-4" d="M354.51,177.56l.15-1.29,25.24-.44,2.3.38,0,1.35Z"/><path class="cls-21" d="M351,159,358,155l-3.26,2.87Z"/><path class="cls-21" d="M345,163l6-4Z"/><path class="cls-21" d="M341,167c-.06-.65-.12-1.3-.19-2l4.15-2Z"/><path class="cls-19" d="M340.9,159.82c-1.41,1.47-2.76,3-4.25,4.38-3,2.76-8,5.45-5.9,9.72,1.43,2.93,6.41,4.33,10,5.91,2.52,1.11,5.41,1.38,8.14,2h-4l-4.21-.71-4.18.65c-1.47-.25-2.93-.58-4.41-.75-9.47-1.14-10.74-2.67-9.16-11.1l-.07.06,2.61-1-.07,0,3.53-3,0,0,6.35-3.88,3.23-2Z"/><path class="cls-15" d="M325.47,169l.07,0-2.61,1L323,170c-1.41,2.06-4.32,4.57-3.87,6.08.64,2.16,3.48,4.41,5.84,5.15,3.72,1.16,7.83,1.11,11.77,1.56l1.1.42-2.29,1.52c-2.43-.09-4.86-.16-7.3-.24L317,182.15,315,181c-4.76-1.65-1.53-5.31-2-8l-.11,0,3.15-1.85L317,169h0l3.06-1q5-2.5,9.94-5c-.33,1-.67,2-1,3l0,0Z"/><path class="cls-21" d="M329,166c.33-1,.67-2,1-3l5.35-.85Z"/><path class="cls-4" d="M373,148l0-2h0l3.5-1,3.37.83Z"/><path class="cls-20" d="M320,168,317,169c.12-1,.24-2.05.35-3.06C318.22,166.65,319.13,167.34,320,168Z"/><path class="cls-21" d="M340.9,159.82l-2.35.33,3.23-1.31.19.17-1.07,1Z"/><path class="cls-23" d="M376.47,145l-3.5,1Z"/><path class="cls-4" d="M368.94,150.46,373,148Z"/><path class="cls-4" d="M359.92,152.94l3.56-1-2.54,2Z"/><path class="cls-4" d="M363.45,152l4-1Z"/><path class="cls-21" d="M359.92,152.94l1,1-2,.06Z"/><path class="cls-21" d="M357.94,155,359,154Z"/><path class="cls-1" d="M435,173c6.59-1.49,13.16-3.07,19.78-4.44,4.77-1,9.58-1.87,14.41-2.52,4-.54,8-.67,12.07-1-3,1.24-5.81,3-8.89,3.63-11,2.22-22.14,4.07-33.23,6a10.56,10.56,0,0,1-3.31-.54L435,173Z"/><path class="cls-2" d="M592.69,139.07c2.42-1.39,4.7-3.24,7.3-4.08,7.61-2.48,15.39-4.45,23-6.86,2.67-.84,4.8-1.33,6,1.9-11.15,3.2-22.3,6.42-33.48,9.54C594.7,139.8,593.64,139.25,592.69,139.07Z"/><path class="cls-18" d="M315,181l2,1.18.9,2.79a44.44,44.44,0,0,0-5.81-.84c-.61,0-1.25,1.12-1.88,1.73-3.64-.53-6.4-2.12-7.2-6L311,172l1.93,1,.11,0c-4.16,4.31-3.58,8.49,1.38,9.7A12,12,0,0,0,315,181Z"/><path class="cls-2" d="M581,142.12c-.19-.28-.6-.68-.52-.81,1.13-2.05,9.58-3.6,11.85-2.23Z"/><path class="cls-18" d="M304.1,177l-1,1.52Z"/><path class="cls-20" d="M317,169l-.93,2.14Z"/><path class="cls-15" d="M568,145l-.69-1.33c.49.86.62,1.07.74,1.28Z"/><path class="cls-19" d="M340.9,160l1.07-1Z"/><path class="cls-4" d="M348.89,177.2l1.44.15Z"/><path class="cls-8" d="M336.57,181.81a1.7,1.7,0,0,0,.17.94c-3.94-.45-8.05-.4-11.77-1.56-2.36-.74-5.2-3-5.84-5.15-.45-1.51,2.46-4,3.87-6.08-1.58,8.43-.31,10,9.16,11.1C333.64,181.23,335.1,181.56,336.57,181.81Z"/><path class="cls-21" d="M325.47,169l3.53-3Z"/><path class="cls-8" d="M322.93,170l2.61-1Z"/><path class="cls-6" d="M315,181a12,12,0,0,1-.63,1.66c-5-1.21-5.54-5.39-1.38-9.7C313.48,175.66,310.25,179.32,315,181Z"/><path class="cls-24" d="M629.26,35.93a1.31,1.31,0,0,0,.56.07l1.1,1.07,0-.07c-2.48,3-4.38,7-7.54,8.77-12.6,7-25.25,14.14-38.52,19.66-28.29,11.77-57.37,21.3-87.54,27.07-9.51,1.82-19.18,2.85-28.77,4.25a9,9,0,0,0,5.05,1.16c9.42-.93,19-1.26,28.22-3.19,33.66-7,66-18.24,97.52-31.87,12.64-5.46,25.29-11.31,34-22.86l.38,0,1.31,1.16a.7.7,0,0,0,.39.62l.7.74a.34.34,0,0,0,.33.34l1.67,2,.06.08.9,1.1L650.21,62.8c.26.42.52.84.79,1.26a.77.77,0,0,0,.3.68c-.45,5.73-5.41,7.76-9.15,10.41A258.32,258.32,0,0,1,561,113.72c-2.08.57-4.09,1.4-6.13,2.11a15.23,15.23,0,0,0,7.67.06c32.94-8.57,62.9-23.09,89.19-44.89l2.39,0c.58,1.06,1.17,2.13,1.77,3.2,0,.48,0,1,.05,1.45,3.94,7.54-4.82,6.4-7.61,10.51L659,83.27l4,13.42c.36,2.84.72,5.67,1.09,8.51a34.37,34.37,0,0,1-4.79,2.29c-17.95,5.43-35.82,11.18-53.92,16.05C578.74,130.71,552,137.23,525.26,144c-3.73.54-7.44,1.31-11.18,1.55-5.73.35-11.49.33-17.23.48-14.79,2.1-29.54,4.45-44.37,6.22-11.26,1.34-22.58,1.55-33.54-2.34l-1-3.59c.14-1.58.28-3.17.44-5.06a39.86,39.86,0,0,0,24.32,1.51c-3.2-.86-6.51-.41-9.64-1-5.14-.91-10.16-2.47-15.23-3.76l-.95-4.18a1.39,1.39,0,0,0-.08-.9c0-1.91,0-3.81,0-5.71l1.27-3.22,2.9,2.79,2,1.14h0l2,1h0l3.19.94c8.93.72,17.93,2.53,26.77,1.91,14.9-1,29.76-3.25,44.52-5.67,9.55-1.56,18.89-4.37,28.32-6.62l-.33-1.78c-2,.21-4,.31-6,.65-19.82,3.39-39.55,7.64-59.5,9.91-10.88,1.24-22.36.27-33.15-1.84-8.77-1.72-14.1-6.4-11.41-15,18.65,6.22,40.48,6.74,48.5.67-2.42.14-4.2.17-6,.35-10.94,1.15-21.86,2.41-32.74-.57-8.79-2.41-9.55-3.31-9-11.93v.17l.32.06.29-.15c1.75.5,3.5,1,5.24,1.5a60.44,60.44,0,0,0,36.16-.11,20.49,20.49,0,0,0-5.19,0c-10.47.88-21,1.64-31.07-2.1-1.69-.63-2.74-3-4.08-4.6.41-1.54.83-3.08,1.27-4.68,10.86,4.38,19.7,5.05,25.2,1.33a57.22,57.22,0,0,1-6.25,0,126.12,126.12,0,0,1-14.67-2.3c-1.36-.34-2.17-2.88-3.23-4.41L428,70.33c1.46,0,3.16-.62,4.33-.06,8.31,4,17.18,6,26.17,5.15,17-1.65,34-4.11,50.94-6.51,5.32-.76,10.52-2.38,15.78-3.6a3.25,3.25,0,0,0-3-1c-15.46,2.37-30.9,5-46.4,7.07-13.59,1.84-27.25,2.54-40.37-2.76-1.76-.71-3.06-2.56-4.57-3.88L444,45.12,445,44h0c13.15,5.27,26.57,3.1,40,1.52-2.34-.9-4.73-.84-7.11-.91-8.3-.24-16.61-.38-24.89-.94-1.85-.12-3.58-1.81-5.37-2.78l.3-.32.65-.65a.36.36,0,0,0,.34-.35l.68-.76L455,33.22c17.87,4.86,35.62,2,53.4-.89a21.42,21.42,0,0,0-6.69-.63c-10.77.33-21.54.95-32.31.91-3.53,0-7.05-1.74-10.57-2.67l.1-.11c.29-.31.59-.61.88-.91l.12-.1,1.1-.89c7.29-4.77,14.48-9.71,21.95-14.18,1.77-1.07,4.49-.55,6.77-.76,1.75.41,3.55,1.32,5.24,1.13,8.38-.94,16.73-2.13,25.08-3.34a24.69,24.69,0,0,0,4.3-1.44L524,8c-3.17.44-6.33.94-9.5,1.3-6.58.74-13.16,1.49-19.75,2-.86.06-1.83-1.46-2.75-2.25l0,0L497.23,7l32.51-7c2.46,2.28.16,2.53-1.32,2.94-3.2.89-6.43,1.67-9.65,2.49l.56,2.08,20.58-5.62h0l1-1h0c.43-.3.86-.6,1.28-.91l6.61,0a75.67,75.67,0,0,1-6.72,4.17,63.52,63.52,0,0,1-7,2.56l.51,1.19C541.48,6.8,548,6.87,551.24,0h6.32l5.85,1.83a156,156,0,0,1-20.26,6.71c-7,1.92-14,3.75-21,5.63,0,.41.07.81.1,1.22a13.83,13.83,0,0,0,3.22,0c10.34-2.52,21-4.3,30.89-7.94s19-5,28.63-.42h0c.42,1.24,1.47,2.67,1.16,3.69-1.65,5.55-6.5,8.16-11.29,9.74-12.6,4.15-25.41,7.66-38.18,11.3-4,1.15-8.21,1.89-12.33,2.82C543,33.81,561,30.33,577.79,22c5-2.49,10.14-5.42,10.57-12.19,0-.31,1-.56,1.59-.84h0l4,1.85.11,0,2.8,1.28-.09-.09c-.58,2.09-.5,5-1.87,6.12-4.76,3.77-9.68,7.69-15.17,10.15C557.13,38.51,533.39,45.48,509.24,51c-11.6,2.67-23.35,4.69-35,7l-14.12,1.11c.08.71.16,1.41.25,2.12L480.18,59c3.43-.43,6.89-.72,10.29-1.33,31.41-5.63,62-14.07,91.25-27,7.33-3.24,14.44-7,17.94-15,.22-.51,1.63-.51,2.49-.74l3.63,2,2.43,1.56a1,1,0,0,0,.73.39c-.58,1.36-.79,3.22-1.82,4-5.79,4.44-11.74,8.67-17.71,12.86a58.49,58.49,0,0,1-5.44,3l.95,1.51A54.1,54.1,0,0,0,611.29,22l1.57-.24,1.37.92L626.75,33c-1.2,1.76-2.14,3.78-3.65,5.21a54.08,54.08,0,0,1-6.4,4.63c.43.58.86,1.16,1.3,1.73ZM612,83c6.94-4.07,13.91-8.1,20.79-12.28,1.06-.64,1.69-2,2.52-3a84.13,84.13,0,0,0-13.17,8.16C618.73,78.26,615.35,80.62,612,83ZM561.7,125.76l-26.14,5.4c9.89,1.1,19.18-1.13,28.33-4.26l12.87-3.74-.48-1.58Zm-43.62-18.64c7.5-1.51,15.32-2.13,22.43-4.7,18.58-6.72,36.86-14.29,55.26-21.52l15.42-7.12L610.31,72l-16.47,7.83c-25.87,10.9-51.59,22.23-79.73,26.22l-12,.77c.05.72.1,1.43.16,2.15Zm29.61-89.65C529,21.56,510.65,28.12,491,26.3,511.07,30.84,529.46,24.65,547.69,17.47Zm28.66,30.77L576,47.05,537.74,58.48C551.6,58.34,563.85,52.88,576.35,48.24ZM587,48.06c10.2-.42,27.72-10.83,27.84-15.11Zm39.26,57.83c7.85-.28,30.62-11.77,33.53-16.86ZM504.53,19.68l-20.9-.94c0,.45,0,.9-.05,1.36C490.41,22.92,497.43,22.08,504.53,19.68Zm-32.4,67,.17,2,22.25-2.85-.21-1.72ZM566.3,16.26,567.35,18l11.2-6.7-1-1.7ZM487.85,138c-.18-.57-.35-1.13-.52-1.69l-12.91,2.28c.14.65.27,1.31.4,2Zm128-76.29c.26.49.53,1,.79,1.48l7.91-4.41-.75-1.35Z"/><path class="cls-12" d="M493.78,239.14l-.29-.17-.33,0-9.38-3L461,221l-1.1-.89-.09-.08-.93-.9-.11-.09-.91-.83-.17-.15-.83-.76-.27-.24-.73-.71-.3-.29-.69-.65-.31-.31c-.47-.88-1-1.77-1.69-3.13,27.93,6.8,54.28.86,80.58-5.44a119.91,119.91,0,0,0-21.06,2c-21.65,4-43.22,5.42-64.68-1.11A1.22,1.22,0,0,0,447,207l-1-1-.05-.05-.93-1,0,0-.95-1.26-9.72-13.64c1.34-.38,2.84-1.35,4-1,14.8,3.93,38.87,2.74,52.49-3.06-4.62.31-9.22.76-13.78,1.5-12.72,2.09-25.4,2.94-38-.6l-3.25-.75a1.71,1.71,0,0,1-.7-.13L432,185l0,0c-.34-1.15-.69-2.3-1-3.38l3.21-1.65a7,7,0,0,1,1.37-.58c22.37-4.39,44.76-8.68,67.11-13.17,8.31-1.67,16.52-3.81,24.77-5.74,13.29-3.1,26.62-6,39.84-9.36,17.87-4.54,35.65-9.42,53.47-14.15l3.2,1c-1.32.69-2.6,1.49-4,2.05q-19.84,8.12-39.72,16.16l-6.1,1.8-6.72,2.13L556.51,163c.19.68.39,1.36.59,2.05l13-4,7.13-2,3.65-1.1,3.3-.94c14.05-5.55,28.13-11,42.13-16.7,3.62-1.46,7-3.46,10.51-5.22l1.74-.35L637.14,132l.32-.06c1.58.57,3.54,2,4.67,1.55,5.39-2.31,10.55-5.15,15.8-7.8l5.74-1.73a7.17,7.17,0,0,1-2,10.28c-2.45,1.67-4.84,3.43-7.26,5.16.23.35.45.71.67,1.07l8.56-3.3c.2,2.8.36,5,.52,7.25-2.6,1.93-5,4.35-7.84,5.7C637.59,158.87,618.8,167.41,600,176l-12.45,4.84-11.76,4.6c.2.5.41,1,.61,1.49l12.64-4.65,14-5.27,60.62-26.72c-2,5.91-3.92,11.3-5.78,16.68h0l-1.86.94L623,182l-11.14,4.42.6,1.52,12.7-4.83c9.38-4,18.75-8,28.15-12,1.45-.62,3.49-2.44,3.54,1.23-1,2.15-1.92,4.31-2.89,6.46l-.81,1.26-.09.15c-3.22,2-6.32,4.27-9.68,6-28.26,14.56-58.81,22.52-89.21,30.9l-3.35.76L542.26,221l.36,1.25L556.09,219c.47-.16.94-.35,1.42-.47,30.92-7.57,61.47-16.17,89.65-31.54.48-.26,1.32.13,2,.22l-9.71,14.05-1.31,1h0L637,203l0,0-27,14-13.93,5.54.71,1.75,15.28-6.21c5.61-2.53,11.2-5.1,16.86-7.52.67-.29,1.72.28,2.59.45-20.27,20.91-44.82,33.73-73.69,37.25A135.52,135.52,0,0,1,510.25,246l-3.82-2.37c22.5.14,43.3-2.21,63.61-8.13C544.65,237.87,519.48,243.66,493.78,239.14ZM614,159l14.59-6.66-.72-1.6-16.05,7.08c-12.85,5.07-25.46,10.89-38.61,15s-26.7,6.46-40.08,9.58c.08.42.15.85.23,1.27,9.94-1.75,20.25-2.4,29.75-5.5C580.29,172.56,597,165.48,614,159ZM510.28,193.27,466.08,199C481.32,201.06,495.84,197.43,510.28,193.27Zm-29.11,36.2c14.48,2.72,28.2-1.83,42.16-4.41-.05-.4-.1-.8-.14-1.2Zm77.65-2.08c8.13.87,29.06-5.68,32.24-10.12Zm25.47-28.8-.58-2-29,7.63c.15.57.29,1.15.44,1.72Zm-43.48,34.3c-.09-.56-.18-1.11-.28-1.66l-10.81,1.42c.13.75.26,1.49.38,2.24Zm90-82.24.33-.16-.33-.16Z"/><path class="cls-10" d="M664.12,144.39c-.16-2.22-.32-4.45-.52-7.25l-8.56,3.3c-.22-.36-.44-.72-.67-1.07,2.42-1.73,4.81-3.49,7.26-5.16a7.17,7.17,0,0,0,2-10.28c7.68-2.58,15.37-5.09,23-7.75,28.73-10,57.46-20.05,84.05-35.12a88.9,88.9,0,0,0,15.5-11.56c3.85-3.49,2.89-6.9-2-8.57-3.91-1.31-8.06-1.9-12.11-2.81a18.35,18.35,0,0,0-4.27-1c-13.57.3-27.13.56-40.68,1.2-3.76.18-7.46,1.64-11.19,2.5l-3-.09-7,.39c-1,.17-1.95.38-2.93.52-14.59,2.08-29.2,4.08-43.76,6.35-1.84.28-3.46,2-5.17,3l-2.39,0c.8-4.29,3.46-6.2,7.74-6.18a5.32,5.32,0,0,0,1.79-.74c16.65-2.2,33.24-5.08,50-6.42,19.7-1.59,39.5-2.12,59.27-2.51,5.17-.1,10.58,1.43,15.51,3.23,6.32,2.3,7.81,8.05,2.89,12.57-5.85,5.38-12.26,10.75-19.39,14-21.26,9.82-42.88,18.86-64.56,27.7-10.45,4.27-21.33,7.5-32.07,11-7.6,2.5-7.63,2.38-7.74,10.15,0,3.3-.16,6.59-.25,9.89Z"/><path class="cls-10" d="M434.13,180l-3.21,1.65c.33,1.08.68,2.23,1,3.38-2.86-.15-5.8-.81-8.57-.38-31.26,4.92-62.53,9.69-94.24,10.24-9.1.16-18.23-1-27.34-1.72a19.43,19.43,0,0,1-5.28-1.43c-7.46-2.88-9.36-9.19-3.13-14.15A164.84,164.84,0,0,1,320.46,160c24.31-12.49,50.12-21.43,76-30.2l17.47-5.92L416,123h0l2.08,1-1.27,3.22a54.15,54.15,0,0,0-7.23,1.31c-7.76,2.45-15.61,4.74-23.16,7.76-23.14,9.25-46.14,18.81-69.2,28.25l-8.36,5.25-2.89,2c-3.57,2.63-7.51,4.88-10.61,8-4,4-3.27,7.35,2.24,8.75,6.87,1.75,14.12,3.46,21.09,3.09q37.08-2,74.06-5.53C406.62,184.85,420.35,182.08,434.13,180Z"/><path class="cls-2" d="M633.24,40c-8.66,11.55-21.31,17.4-34,22.86-31.5,13.63-63.86,24.86-97.52,31.87-9.23,1.93-18.8,2.26-28.22,3.19a9,9,0,0,1-5.05-1.16c9.59-1.4,19.26-2.43,28.77-4.25,30.17-5.77,59.25-15.3,87.54-27.07,13.27-5.52,25.92-12.67,38.52-19.66C626.49,44,628.39,40,630.87,37Z"/><path class="cls-2" d="M602.15,14.94c-.86.23-2.27.23-2.49.74-3.5,8-10.61,11.78-17.94,15-29.25,12.92-59.84,21.36-91.25,27-3.4.61-6.86.9-10.3,1.33l-6-1c11.68-2.32,23.43-4.34,35-7,24.15-5.55,47.89-12.52,70.54-22.69C585.27,25.88,590.19,22,595,18.19c1.37-1.09,1.29-4,1.87-6.12Z"/><path class="cls-2" d="M493.78,239.14c25.7,4.52,50.87-1.27,76.26-3.67-20.31,5.92-41.11,8.27-63.61,8.13l3.82,2.37C503.44,246.86,499.38,241.14,493.78,239.14Z"/><path class="cls-3" d="M458.81,29.94c3.52.93,7,2.65,10.57,2.67,10.77,0,21.54-.58,32.31-.91a21.42,21.42,0,0,1,6.69.63c-17.78,2.91-35.53,5.75-53.4.89Z"/><path class="cls-1" d="M447.58,40.88c1.79,1,3.52,2.66,5.37,2.78,8.28.56,16.59.7,24.89.94,2.38.07,4.77,0,7.11.91-13.4,1.58-26.82,3.75-40-1.52C445.84,43,446.71,41.91,447.58,40.88Z"/><path class="cls-3" d="M492,9c.92.79,1.89,2.31,2.75,2.25,6.59-.49,13.17-1.24,19.75-2,3.17-.36,6.33-.86,9.5-1.3l.33,1.35a24.69,24.69,0,0,1-4.3,1.44c-8.35,1.21-16.7,2.4-25.08,3.34-1.69.19-3.49-.72-5.24-1.13Z"/><path class="cls-2" d="M483.78,236l9.38,3Z"/><path class="cls-3" d="M497.23,7,492,9Z"/><path class="cls-1" d="M658,169l-1.89-1L658,167Z"/><path class="cls-10" d="M435,186l-2.93-.31A.62.62,0,0,1,432,185Z"/><path class="cls-2" d="M416,123l-2.11.84Z"/><path class="cls-2" d="M444,203.73,445,205Z"/><path class="cls-2" d="M445,205l.93,1Z"/><path class="cls-1" d="M449.55,38.8l-.68.76Z"/><path class="cls-1" d="M448.53,39.91l-.65.65Z"/><path class="cls-1" d="M445,44l-1,1.12Z"/><path class="cls-2" d="M651,64.06c-.27-.42-.53-.84-.79-1.26C650.47,63.22,650.73,63.64,651,64.06Z"/><path class="cls-2" d="M446,206.06l1,1Z"/><path class="cls-1" d="M653.15,180l.81-1.26Z"/><path class="cls-13" d="M317.23,164.6c23.06-9.44,46.06-19,69.2-28.25,7.55-3,15.4-5.31,23.16-7.76a54.15,54.15,0,0,1,7.23-1.31c0,1.9,0,3.8,0,5.71a10.53,10.53,0,0,0-2.83.21c-11.39,4.17-22.76,8.41-34.14,12.63l-3.37-.83-3.5,1h0a28.68,28.68,0,0,0-4.29,1.1c-9,3.86-17.95,7.81-26.92,11.73l-3.24,1.31-3.22,2L330,163q-5,2.52-9.94,5L317.31,166C317.28,165.5,317.26,165.05,317.23,164.6Z"/><path class="cls-1" d="M708.94,68a13.77,13.77,0,0,1-3.3.83c-16.79-.13-33.18,3.33-49.71,5.44-.6-1.06-1.19-2.13-1.77-3.19,1.71-1,3.33-2.73,5.17-3,14.56-2.27,29.17-4.27,43.76-6.35,1-.14,2-.35,2.93-.52l7-.39,3,.09,47.11-1.49c0,1.22,0,2.43-.07,3.64a29.25,29.25,0,0,0-4.83-.95c-5.68-.18-11.37-.19-17.06-.27-2.77.06-5.57-.08-8.31.25a48.64,48.64,0,0,0-6.6,1.74l-5,.26L710,64.25,710,66C709.63,66.63,709.28,67.29,708.94,68Z"/><path class="cls-8" d="M417,138c-2,.34-4.15.32-6,1.06-17.23,6.88-34.45,13.79-51.57,21-2.85,1.2-5.18,3.67-7.75,5.55l.37,1.63c2.8.54,5.63,1.68,8.39,1.52,14.72-.89,29.42-2,44.13-3.25,4.45-.36,8.88-1.13,13.29-1.83,1.92-.31,4.29-.52,3-3.61.08-.37.17-.73.26-1.09,1.33,2.16,1.08,5.94,5.27,5.19-13.45,1.95-26.87,4.17-40.36,5.75-8.09.94-16.28.88-24.43,1.26a9.4,9.4,0,0,1-1.5,0c-3.87-.45-9.18.45-10.22-4-.48-2.07,4-5.27,6.18-8,13.72-5.81,27.42-11.68,41.17-17.42,6.52-2.72,13.14-5.2,19.71-7.79.32,1.39.63,2.79.95,4.18C417.54,138.05,417.25,138,417,138Z"/><path class="cls-8" d="M663,96.69l2.16,6.85c21.35-8,43.33-13.77,62-27.07-.09-.56-.18-1.13-.26-1.69L722,73c-2.75-.33-5.5-.69-8.26-1-3.57-.36-7.14-.65-10.71-1,6.77,0,13.57-.26,20.32.13,1.95.11,5.26,2,5.33,3.2a7.55,7.55,0,0,1-3.19,5.89,183.8,183.8,0,0,1-21.65,11.06c-11.64,4.8-23.57,8.88-35.41,13.19a23.69,23.69,0,0,1-4.34.72C663.69,102.36,663.33,99.53,663,96.69Z"/><path class="cls-5" d="M595.77,80.9c-18.4,7.23-36.68,14.8-55.26,21.52-7.11,2.57-14.93,3.19-22.43,4.7l-4-1.05c28.14-4,53.86-15.32,79.73-26.22Z"/><path class="cls-3" d="M547.69,17.47C529.46,24.65,511.07,30.84,491,26.3,510.65,28.12,529,21.56,547.69,17.47Z"/><path class="cls-18" d="M416.89,133.89c-6.57,2.59-13.19,5.07-19.71,7.79-13.75,5.74-27.45,11.61-41.17,17.42l-1.26-1.25L358,155l-.07.05L359,154l-.07.06,2-.06,2.54-2,0,0,4-1,1.52-.55L373,148l0,0,6.88-2.19c11.38-4.22,22.75-8.46,34.14-12.63a10.53,10.53,0,0,1,2.83-.21A1.39,1.39,0,0,1,416.89,133.89Z"/><path class="cls-13" d="M504.53,19.68c-7.1,2.4-14.12,3.24-20.95.42,0-.46,0-.91.05-1.36Z"/><path class="cls-7" d="M417,138c.3,0,.59.07.89.09,5.07,1.29,10.09,2.85,15.23,3.76,3.13.55,6.44.1,9.64,1a39.86,39.86,0,0,1-24.32-1.51c-.16,1.89-.3,3.48-.44,5.06Q417.46,142.17,417,138Z"/><path class="cls-6" d="M514.11,106.07l4,1.05L502.3,109c-.06-.72-.11-1.43-.16-2.15Z"/><path class="cls-10" d="M487.85,138l-13,2.55c-.13-.65-.26-1.31-.4-2l12.91-2.28C487.5,136.83,487.67,137.39,487.85,138Z"/><path class="cls-10" d="M425,129l3.19.94Z"/><path class="cls-10" d="M423,128l2,1Z"/><path class="cls-10" d="M421,126.85l2,1.14Z"/><path class="cls-15" d="M434.13,180c-13.78,2.12-27.51,4.89-41.37,6.22q-37,3.56-74.06,5.53c-7,.37-14.22-1.34-21.09-3.09-5.51-1.4-6.24-4.74-2.24-8.75,3.1-3.1,7-5.35,10.61-8-.62,1.69-1.25,3.37-1.88,5.06l-1,1.52c0,.44,0,.88,0,1.32.8,3.92,3.56,5.51,7.2,6l10.66,1.41,3.11,0,18.77-.42c11.38-.8,22.8-1.16,34.11-2.5,15.11-1.79,30.14-4.21,45.16-6.65,4.4-.71,8.64-2.42,12.95-3.68l.78.09a10.56,10.56,0,0,0,3.31.54c11.09-1.9,22.2-3.75,33.23-6,3.08-.62,5.94-2.39,8.89-3.63h.33l.33,0c4.73.26,9.63,1.31,13.32-3a3.07,3.07,0,0,0,.53.05L506,160c2.54,0,5.1.18,7.63-.05,5-.45,8.88-5,14.61-3.71,2,.45,4.51-1.92,6.9-2.43,8.5-1.81,17.1-3.2,25.57-5.13,2.56-.58,4.84-2.4,7.24-3.65l0-.05c4.94,1.84,8.93-.71,13-2.82l11.33-3h.35c.95.18,2,.73,2.84.5,11.18-3.12,22.33-6.34,33.48-9.54l2-1,37-11,14-5.1,9.9-3,2.12-.86,4.85-1.17,2.1-1c.9-.39,1.8-.79,2.71-1.15L739,92l0,0,5-2,1.38-1a.92.92,0,0,0,.6-.47L751,86l0,0,4.54-2,.06.08L762,80l0,0,3.09-1,2-2.1-.08.06L769,76l-.09.07L770,75l0,0L772,74l-.07.06L773,73l0,0,4-3c3.59-4.84,3.12-6.86-2-9.59a18.08,18.08,0,0,1-2.8-2.27c4,.91,8.2,1.5,12.11,2.81,4.93,1.67,5.89,5.08,2,8.57a88.9,88.9,0,0,1-15.5,11.56c-26.59,15.07-55.32,25.13-84.05,35.12-7.64,2.66-15.33,5.17-23,7.75l-5.74,1.73-20.47,6.25-.32.06-16.45,5c-17.82,4.73-35.6,9.61-53.47,14.15-13.22,3.35-26.55,6.26-39.84,9.36-8.25,1.93-16.46,4.07-24.77,5.74-22.35,4.49-44.74,8.78-67.11,13.17A7,7,0,0,0,434.13,180Z"/><path class="cls-8" d="M481.17,229.47l42-5.61c0,.4.09.8.14,1.2C509.37,227.64,495.65,232.19,481.17,229.47Z"/><path class="cls-10" d="M439,186.89l-3.24-.75Z"/><path class="cls-8" d="M772.08,58.12a18.08,18.08,0,0,0,2.8,2.27c5.17,2.73,5.64,4.75,2,9.59l-1.16-1.23c1.79-4.55-.52-6.77-4.58-7.79-2.68-.67-5.42-1.07-8.14-1.59l-47.11,1.49c3.73-.86,7.43-2.32,11.19-2.5,13.55-.64,27.11-.9,40.68-1.2A18.35,18.35,0,0,1,772.08,58.12Z"/><path class="cls-8" d="M713,60.77l-7,.39Z"/><path class="cls-23" d="M495.73,162.08a3.07,3.07,0,0,1-.53-.05c-2.67.09-5.4-.13-8,.39-1.88.37-3.56,1.71-5.33,2.63l-.33,0h-.33c-4,.31-8.08.44-12.07,1-4.83.65-9.64,1.52-14.41,2.52-6.62,1.37-13.19,2.95-19.78,4.44-2.48.21-5,.26-7.43.66-9.4,1.51-18.74,3.54-28.19,4.63-11.84,1.37-23.77,2-35.66,3l-14.77.59c-2.73-.64-5.62-.91-8.14-2-3.61-1.58-8.59-3-10-5.91-2.1-4.27,2.92-7,5.9-9.72,1.49-1.38,2.84-2.91,4.25-4.38V160l1.07-1-.19-.17c9-3.92,17.92-7.87,26.92-11.73A28.68,28.68,0,0,1,373,146l0,2,0,0-4.05,2.47-1.52.55-4,1,0,0-3.56,1-1,1.08L359,154,357.94,155,358,155,351,159l.06,0-6,4,0,0-4.15,2c-1.28,2.3-4.12,5.25-3.49,6.75.91,2.16,4.22,3.48,6.72,4.72,1.38.68,3.2.46,4.82.65l1.45.15,4.17.21h27.67l0-1.35-2.3-.38a5.75,5.75,0,0,1,1.86-.65c20.16.16,39.6-5.26,59.44-7.65,31-3.73,61.19-11.61,91.6-18.37,17.34-3.86,34.49-8.57,51.67-13.13,10.25-2.73,20.38-5.93,30.56-8.91,0,.29,0,.58-.06.87l3-1,8.89-2,1.17-1a6.57,6.57,0,0,1,.77,0l5.15-1.91c8.39-2.67,16.87-5.1,25.17-8.06,12.92-4.62,25.72-9.57,38.56-14.42,3.83-1.44,7.61-3,11.41-4.54l3.5.8L714,97l-14.43,6.38c.42,1.06.91,2.34,1.41,3.62l-2.1,1-1.26-3.15c.87,3.27-7.11-.8-3.59,4.32l-2.11.86c-1-3.25-3.46-2.53-5.66-1.78s-5.2,1.08-4.25,4.76L668,118c-1.16-2.61-2.75-3.66-5.36-1.59a6.92,6.92,0,0,1-2.37,1.13c-8.77,2.49-17.56,4.91-26.32,7.44-1.91.55-4.78.69-2.94,4.07l-2,1c-1.19-3.23-3.32-2.74-6-1.9-7.64,2.41-15.42,4.38-23,6.86-2.6.84-4.88,2.69-7.3,4.08h-.35c-2.27-1.37-10.72.18-11.85,2.23-.08.13.33.53.52.81-4.08,2.11-8.07,4.66-13,2.82-.12-.21-.25-.42-.74-1.28L568,145c-2.4,1.25-4.68,3.07-7.24,3.65-8.47,1.93-17.07,3.32-25.57,5.13-2.39.51-4.89,2.88-6.9,2.43-5.73-1.28-9.6,3.26-14.61,3.71-2.53.23-5.09.05-7.63.05C502,158,498.8,159.65,495.73,162.08Z"/><path class="cls-18" d="M714,97l-1.4-1.13.42-1.88-.08.06,5.6-2-.06.06L723,89l-.07,0L729,86l-.06,0,9.13-4.94c.08-.13.23-.28.21-.39a4,4,0,0,0-.3-.74l-.07.09,1.09-1.1-.08.06c3.69-.93,6.32-4.42,4.8-7-1.65-2.81-4.19-4.58-7.57-2l-5.34-2c-1.52-.63-3-1.73-4.59-1.8C720.8,65.86,715.39,66,710,66c0-.57,0-1.15,0-1.73l11.11-.2,5-.26,18.91.12,5.29.86-5.33.62c7.09,5.18,7.08,5.17,4.51,12.35-.12.34.29.88.46,1.32l-8.12,7.83c-.84.32-2.22.44-2.42,1A16.54,16.54,0,0,0,739,92l0,0-3-3.67a2.25,2.25,0,0,0-.65.14Z"/><path class="cls-4" d="M710,66c5.42,0,10.83-.11,16.23.12,1.56.07,3.07,1.17,4.59,1.8L708.94,68C709.28,67.29,709.63,66.63,710,66Z"/><path class="cls-14" d="M718.51,92l-5.6,2Z"/><path class="cls-4" d="M721.13,64l-11.11.2Z"/><path class="cls-3" d="M335.55,184.69l2.29-1.52c7-.12,14.07-.14,21.1-.41,1.6-.06,3.16-1,4.74-1.5,11.89-1,23.82-1.6,35.66-3,9.45-1.09,18.79-3.12,28.19-4.63,2.45-.4,5-.45,7.43-.66h0l.05,1c-4.31,1.25-8.55,3-12.95,3.67-15,2.44-30.05,4.86-45.16,6.65-11.31,1.34-22.73,1.7-34.11,2.5Z"/><path class="cls-1" d="M481.88,165.05c1.77-.92,3.45-2.26,5.33-2.63,2.59-.52,5.32-.3,8-.39C491.51,166.36,486.61,165.31,481.88,165.05Z"/><path class="cls-1" d="M495.73,162.08C498.8,159.65,502,158,506,160Z"/><path class="cls-7" d="M773,73l2.82-4.26L776.93,70Z"/><path class="cls-17" d="M751,86l4.54-2Z"/><path class="cls-7" d="M766.92,77,769,76Z"/><path class="cls-7" d="M769.94,75,772,74Z"/><path class="cls-7" d="M771.94,74,773,73Z"/><path class="cls-7" d="M768.93,76,770,75Z"/><path class="cls-23" d="M435,173l.83,1.12L435,174C435,173.69,435,173.34,435,173Z"/><path class="cls-5" d="M768,66c3,3.16,2.76,4.43-1,6Z"/><path class="cls-5" d="M766,74l-2,1Z"/><path class="cls-5" d="M767,72c-.33.66-.66,1.33-1,2C766.29,73.35,766.62,72.68,767,72Z"/><path class="cls-18" d="M756.93,67.09l1.17.85Z"/><path class="cls-5" d="M764,75l-1.05,1Z"/><path class="cls-5" d="M758,80.08l-.94-1A9.24,9.24,0,0,1,758,79C758,79.33,758,79.7,758,80.08Z"/><path class="cls-9" d="M1014,331.19c-23.53.71-45.55-19.47-44.53-47.37.91-24.63,21.6-43.72,47.13-43,25.36.73,44,21.17,43.3,47.55C1059.22,312.91,1038.81,331.94,1014,331.19Zm-30.61-73.45-.65-.15-.07.38.62-.29,1.32-.66,6.33-1.26c-5.95,4.7-14,6.47-16.43,14.74l.88,2.47-3.23,5.71q-.37,2.69-.73,5.36c.29,6.24.42,6.53,6.74,5.53,5.4-.85,10.71-2.31,16.09-3.36a63.47,63.47,0,0,1,6.48-.65l.33,1.95-28.64,6.42c-.08,4.46,1.94,6.78,6.91,6,1.31-.21,2.65-.2,4-.28l14.17-.92c.07.58.13,1.15.2,1.73l-22.28,3c.89,3.24,2.32,5.05,6,4.5,8.17-1.24,16.38-2.26,24.57-3.37l3.3,1.13L979.49,312l9.32,8.35,2.67,2.22c8.07,6.22,17,5.71,26.26,3.6l-5.87,2.33c13.36,3.58,36.25-8.76,40.37-21.51.09-.27-.49-.74-.76-1.12l-1.41-1.3c3.66-2.78,7.48-5.47,6.73-11l-7.71,5.07-.73-1.07c2.74-2.46,6.34-4.47,8-7.52,1.56-2.89,1.06-6.89,1.57-11.21l-24.57,12.38-.89-1.59c1.64-1,3.26-2,4.93-2.88,5.38-2.95,10.84-5.76,16.11-8.89,1.24-.73,1.84-2.53,3.17-4.49l-23.73,7.17-.5-1.4a30.44,30.44,0,0,1,3.29-1.74c4.93-1.95,9.94-3.69,14.83-5.75,3.93-1.66,4.52-4.29,1.43-7.1-1.07-1-3.24-.76-4.91-1.09l.06.08,2.43-3-.7-.94-8.4,3.2-1.39-1.36,7.17-4.12v-1.41h-14l-.12-1.85,10.1-1.25c-8.54-7.6-17.83-2.78-26.41-3.29l-.26-1.28L1028,245c-2.21-.56-3.63-.88-5-1.28-5.9-1.7-11.44,1.17-17.05,1.33-9.55.27-16,5.27-22.35,11.12C983.49,256.7,983.41,257.22,983.34,257.74Z"/><path class="cls-25" d="M972.11,278.68l3.23-5.71,24.15-11.89a18.63,18.63,0,0,0-8.63,1.48c-5.55,2.46-10.94,5.27-16.4,7.94,2.46-8.27,10.48-10,16.43-14.74L984.56,257l-1-.84c6.37-5.85,12.8-10.85,22.35-11.12,5.61-.16,11.15-3,17.05-1.33,1.4.4,2.82.72,5,1.28l-12.49,3.21.26,1.28c8.58.51,17.87-4.31,26.41,3.29l-10.1,1.25.12,1.85h14v1.41l-7.17,4.12c-8.69,2.2-16.85,7.26-26,4.61l2.12,5c2.14-.73,4.54-1.59,7-2.37q9.15-3,18.33-5.91l8.4-3.2.7.94c-.81,1-1.62,2-2.42,3l-.07-.08c1.67.33,3.84.11,4.91,1.09,3.09,2.81,2.5,5.44-1.43,7.1-4.89,2.06-9.9,3.8-14.83,5.75a30.44,30.44,0,0,0-3.29,1.74l.5,1.4,23.73-7.17c-1.33,2-1.93,3.76-3.17,4.49-5.27,3.13-10.73,5.94-16.11,8.89-1.67.91-3.29,1.91-4.93,2.88l.89,1.59,24.57-12.38c-.51,4.32,0,8.32-1.57,11.21-1.65,3.05-5.25,5.06-8,7.52l.73,1.07,7.71-5.07c.75,5.49-3.07,8.18-6.73,11l-20.51,12.55c8.37-1.62,15.45-5.83,21.92-11.25.27.38.85.85.76,1.12-4.12,12.75-27,25.09-40.37,21.51l5.87-2.33c-9.27,2.11-18.19,2.62-26.26-3.6l16.16-3.79c-.07-.33-.15-.67-.22-1l-18.61,2.58L979.49,312l29.71-6.29,21.93-7.09c8.8-2.83,17.39-6.07,24.43-12.4L1029,297.56l-23.13,7c-8.19,1.11-16.4,2.13-24.57,3.37-3.65.55-5.08-1.26-6-4.5l22.28-3c-.07-.58-.13-1.15-.2-1.73l-14.17.92c-1.33.08-2.67.07-4,.28-5,.8-7-1.52-6.91-6l28.64-6.42-.33-1.95a63.47,63.47,0,0,0-6.48.65c-5.38,1.05-10.69,2.51-16.09,3.36-6.32,1-6.45.71-6.75-5.53L984.53,280c-3.88-4.54,4-4.34,3.27-9.13-2.39,2.3-4.28,3.9-5.91,5.74C979.22,279.59,974.35,280.74,972.11,278.68Zm34.71,0,.69,2.23,32.66-9.9-.6-2ZM1030,308l-.61-1.71-19.87,7c.21.6.43,1.21.65,1.81Zm-28.57-44,.36,1.84,13.4-2.67-.33-1.75Z"/><path class="cls-20" d="M1040.47,262.78q-9.17,2.94-18.33,5.91c-2.42.78-4.82,1.64-7,2.37l-2.12-5c9.17,2.65,17.33-2.41,26-4.61Z"/><path class="cls-8" d="M974.46,270.5c5.46-2.67,10.85-5.48,16.4-7.94a18.63,18.63,0,0,1,8.63-1.48L975.34,273C975,272.15,974.75,271.33,974.46,270.5Z"/><path class="cls-8" d="M1005.9,304.56l23.13-7,2.1,1-21.93,7.09Z"/><path class="cls-8" d="M972.11,278.68c2.24,2.06,7.11.91,9.78-2.11,1.63-1.84,3.52-3.44,5.91-5.74.69,4.79-7.15,4.59-3.27,9.13L971.37,284C971.62,282.26,971.86,280.47,972.11,278.68Z"/><path class="cls-20" d="M1051.48,305.85c-6.47,5.42-13.55,9.63-21.92,11.25l20.51-12.55Z"/><path class="cls-17" d="M988.81,320.33l18.61-2.58c.07.34.15.68.22,1l-16.16,3.79Z"/><path class="cls-25" d="M983.25,257.68l-.63.29.07-.38.65.15Z"/><path class="cls-25" d="M984.56,257l-1.31.66.09.06c.07-.52.15-1,.23-1.56Z"/><path class="cls-8" d="M1006.82,278.69l32.75-9.66.6,2-32.66,9.9Z"/><path class="cls-20" d="M1031.13,298.6l-2.1-1,26.53-11.36C1048.52,292.53,1039.93,295.77,1031.13,298.6Z"/><path class="cls-5" d="M1030,308l-19.83,7.1c-.22-.6-.44-1.21-.65-1.81l19.87-7Z"/><path class="cls-2" d="M1001.47,264l13.43-2.58.33,1.75-13.4,2.67Z"/><path class="cls-9" d="M1047.08,263.48l.07.08S1047.08,263.48,1047.08,263.48Z"/><path class="cls-24" d="M774.92,376.88a19.57,19.57,0,0,1-19.37,19.45c-10.66,0-19.65-8.88-19.6-19.28a19.49,19.49,0,1,1,39-.17Z"/><path class="cls-13" d="M99,363.82c.38-5.79,1.07-11.58,1-17.36,0-4.11.8-6.37,5.46-5.81a8.56,8.56,0,0,0,5.4-1.41l-10-3.72.51-1.62,15.93,4.74c-4.54,1.06-9.14,1.94-13.6,3.3a4.63,4.63,0,0,0-2.45,3.39c-.32,4.14.07,8.34-.25,12.48C100.81,359.85,99.68,361.82,99,363.82Z"/><path class="cls-15" d="M96.07,363.81C92.48,375.94,85,385.29,73.74,390.5c-7,3.23-15.13,3.89-22.75,5.7L50.65,395l5.11-1.94-21.63-.33L37.51,390l-.3-.73-7.45,1.44-1.57-1q9.19-2.94,18.4-5.85l-.38-1.29-20.58,5.14-2.42-1.09,14-4.89a159.77,159.77,0,0,0,50.81-26c3.24-2.44,6.67-4.61,10-6.91-.37,3.16-.73,6.32-1.1,9.48L91.39,363l-1.72,1.26-3,2c-.53.58-1.06,1.17-1.58,1.76l.55.56,1.88-1.23,3-2.2L92.32,364Zm-28.26,16-.64-1L39.85,389.3A63.1,63.1,0,0,0,67.81,379.77Zm14-10.29.39,1a7.82,7.82,0,0,0,1.53-.68c.1-.07-.2-.71-.32-1.08Z"/><path class="cls-8" d="M98,348.82c-3.34,2.3-6.77,4.47-10,6.91a159.77,159.77,0,0,1-50.81,26L35,380.71,49,374.65l16.22-6.91.91-1.06,0,.05c8.13-5.23,16.33-10.37,24.37-15.74,3.48-2.32,6.66-5.11,7.44-9.64Q97.94,345.08,98,348.82Z"/><path class="cls-11" d="M20,368.83c6.47-1.76,13-3.41,19.42-5.32,4.39-1.3,8.67-3,13.13-4.08C48.3,363.88,24.74,372,12.12,373.87L10,370.59l6.09-.07,4-1.78Z"/><path class="cls-20" d="M56,336.63c-5.45,2.72-10.75,5.82-16.38,8.08-9.4,3.77-19,7.07-28.56,10.41-1.66.58-3.59.36-5.4.52a3,3,0,0,0,0-.9Q28,346.31,50.41,337.92A41.92,41.92,0,0,1,56,336.63Z"/><path class="cls-5" d="M16.11,370.52l-6.09.07-1.35-2.87c7.07-1.59,14.14-3.15,21.2-4.78,1.93-.44,3.82-1.07,5.73-1.61l.67.75L20,368.83l.08-.09Z"/><path class="cls-14" d="M25.63,387.75l20.58-5.14.38,1.29q-9.21,2.93-18.4,5.85Z"/><path class="cls-7" d="M35,380.71l2.16,1.06-14,4.89-2.55-3Z"/><path class="cls-5" d="M96.07,363.81l-3.75.21-.93-1,5.53-4.74C96.64,360.13,96.35,362,96.07,363.81Z"/><path class="cls-6" d="M29.76,390.74l7.45-1.44.3.73-3.38,2.71Z"/><path class="cls-3" d="M65.17,367.74,49,374.65,44.65,373c6.61-2.71,13-5.36,19.4-7.84.4-.16,1.32,1,2,1.59l0-.05C65.78,367,65.47,367.38,65.17,367.74Z"/><path class="cls-2" d="M60.92,342.61l19.09-10c-.73,5.73-6.76,5.52-9.85,8.66-1.38,1.41-3.72,2.11-5.75,2.56C63.39,344.1,62.09,343.07,60.92,342.61Z"/><path class="cls-21" d="M59.5,352.22l-23.23,9.86-.67-.75,23.13-10Z"/><path class="cls-17" d="M74.27,353,56.5,364l-1.14-2,18.53-9.42Z"/><path class="cls-21" d="M84.27,339,66.66,349.18c-.28-.53-.57-1.05-.85-1.57q8.82-4.82,17.66-9.61Z"/><path class="cls-21" d="M89.36,334l2.87-2.17.72,1-2.76,2.08Z"/><path class="cls-21" d="M86.39,336l3-2,.82.86L87.28,337C87,336.65,86.68,336.35,86.39,336Z"/><path class="cls-21" d="M87.28,337l-3,2-.8-1,2.92-2C86.68,336.35,87,336.65,87.28,337Z"/><path class="cls-17" d="M76.27,352l-2,1-.37-.47,2-1Z"/><path class="cls-17" d="M78.28,351l-2,1-.39-.47,2-1.06Z"/><path class="cls-21" d="M58.73,351.36l1.86-.7.28.58-1.37,1Z"/><path class="cls-17" d="M77.83,350.45l1.9-1.09.43.44L78.27,351Z"/><path class="cls-21" d="M64.29,349.94l-1.89.66-.25-.56,1.42-1Z"/><path class="cls-17" d="M79.73,349.36l.43.44Z"/><path class="cls-21" d="M63.57,349.07l1.21-.13c-.16.33-.33.66-.49,1Z"/><path class="cls-6" d="M67.81,379.77a63.1,63.1,0,0,1-28,9.53l27.32-10.58Z"/><path class="cls-5" d="M81.82,369.48l1.6-.71c.12.37.42,1,.32,1.08a7.82,7.82,0,0,1-1.53.68Z"/><path class="cls-5" d="M90.45,365.18l-3,2.19-.85-1.1,3-2Z"/><path class="cls-5" d="M87.5,367.37l-1.88,1.23-.55-.56c.52-.59,1.05-1.18,1.58-1.76C86.93,366.64,87.22,367,87.5,367.37Z"/><path class="cls-5" d="M89.67,364.3,91.39,363l.93,1-1.87,1.15Z"/><path class="cls-22" d="M116.19,148.87c3.23.65,3.23.65,3.57-2.74a95.1,95.1,0,0,1,39.32,18.33h-5l-11-7L131,152.34l-.86,1.89,10.94,4.61,12.78,7,8.18,5,1.55.86a2.6,2.6,0,0,0,.42.83c-.7,2.82-1.29,5.59,2.33,7l6.36,5.25-.64.84-4.55-1.16-12.41-5.58c-.2.46-.4.92-.59,1.39L165,185.64l7.75,3.1,5.15,3.13,3.16.67,7,7.93,1.95,4.36.27,1.56c.13.64.27,1.27.68,3.31-3-1.91-7.12-3.72-6.93-4.54,1.8-7.86-6-4.53-7.51-8.18l-1,1,5.09,4.45-8.94-1c4.28,3.3,8.48,6.42,13.12,7.32,7.09,1.38,8.74,6.25,10.14,11.88l0-.05v4.81l-10.42-4.63-11.8,1,16.78,10.31c-1.46-3.24-2.44-5.43-3.43-7.61l10,5c.67,4.19-2.15,3.27-5.13,3,7.94,3.59,5.84,10.28,5.89,16.19,0,.41-1.46.84-2.24,1.25L192,246.35l-1,.83q1.41,1.83,2.83,3.64c3.92,4.22,1.74,8.95,1.13,13.55-1.34.58.32,4.94-3.31,2.63l-13.3-11-1.53,2.07,14,9.83c.61,1.56,1.21,3.13,1.82,4.69l-.44,1.14,0,.08c-2.74-1.39-5.55-2.64-8.19-4.19s-5.4-3.57-8.09-5.37l-1.09,1.65c4.48,3,9,5.87,13.38,9,1.13.81,1.67,2.44,2.48,3.7l-.66,1.72-1.58,3.42-.23.26c-3.6-2-7.07-4.38-10.84-6-3.2-1.39-6.75-2-11.27-3.21,1,1.84,1.1,2.37,1.24,2.37,7.29-.15,11.29,7.35,18.3,7.92.52.05.95,1.15,1.43,1.77-5.06,7.34-9.49,15.24-15.36,21.87-5.47,6.19-12.22,11.37-18.93,16.29-2.49,1.82-6.46,1.61-10,2.37l3.53,2.54L138.57,331c-1.06,3.44-12.41,7.64-21.3,7.61l-15.93-4.74-.51,1.62,10,3.72a8.56,8.56,0,0,1-5.4,1.41c-4.66-.56-5.49,1.7-5.46,5.81,0,5.78-.65,11.57-1,17.36-6,18-18.06,29.79-36.66,33.73-32.42,6.87-59-17.49-59.54-45.46-.31-15.32,4.17-28,15-38.63a65.62,65.62,0,0,1,5.28-4.36L6.13,277.89c.09-.87.19-1.73.29-2.59l10.21,5.5.81-1.53A49,49,0,0,1,13,276.75c-3.57-2.51-8.87-3-9.9-8.52-.34-1.45-.67-2.91-1-4.36a11.53,11.53,0,0,1,3.41.34c5,2.1,10,4.35,15,6.55L21,269.5l-20-10.23L0,242.84l14.47,1.81c-4.35-3.55-9.25-4.12-14.41-3.39L1,229H14.62l.12-1.22a34,34,0,0,1-5.27-.79c-2.49-.76-6.07,1.63-7.42-2.47q2-8.73,4-17.46l23.11,2.63A8.6,8.6,0,0,0,27,208.11c-5.49-1.59-11-3-16.5-4.65-.88-.26-1.5-1.35-2.24-2.06,5.4-8.14,10.16-16.79,16.34-24.28,7.67-9.3,17.59-16.26,28.11-22.19a21.24,21.24,0,0,1,4.2-1.34l18.91,6.23c-.17-2-.3-3.51-.45-5.18l-11.94-2.57c.09-.44.18-.89.26-1.33H69l18.09,2.72c.1-.64.21-1.28.31-1.92l-9.92-2.3c2.31-1.42,4.32-3.69,6.44-3.8a143.94,143.94,0,0,1,20.24.39C108.21,146.2,112.18,147.81,116.19,148.87ZM114.58,242,112,240.66l-.39.67,2.15,1.6,2.87,1.73.51-.83Zm-90.53,4.59c.37.38.73.76,1.1,1.13a.94.94,0,0,1,.05.64c-3,4.3-1.74,8.45.8,12.29.58.89,2.44.93,3.71,1.36a8.33,8.33,0,0,0,.22-2.64c-1-3.7-2.07-7.35-3.13-11l0-1.62,2.18-.05h0l0,2.14c2.87,5.46,5.23,11.27,8.74,16.27,4.29,6.09,9.49,11.61,18,11.56h7a38.73,38.73,0,0,1-3.93-3.2c-2.3-2.56-2.56-2.52-4,1.14-2.81-1.16-5.69-2.2-8.41-3.56-.72-.36-.95-1.7-1.4-2.59l2.91.27,4.28,2.76,5.46-4.07-.6-4.75,5,6.6c.33-1,.65-2.14,1.08-3.24.32-.84.77-1.63,1.17-2.44l8.56,11.66c-2.14-9-6.32-15-12.61-19.45L59,255.61l.06,0,1.32-2.26c1.61,1,3.55,1.8,4.76,3.19,4.51,5.24,8.79,10.69,14,17.08-1.28-3.74-1.52-7.34-3.42-9.44-5.24-5.8-11.12-11-16.91-16.33a8.19,8.19,0,0,0-4.6-1.76c-4.72-.38-9.46-.44-14.2-.62.22-1.37.45-2.75.67-4.16-2.53-.18-4.57-.16-6.56-.49-3.87-.64-6.85.22-8.26,4.26l-1.68-.33-1.7-2-4.93-1.73L9,237.38l-.7,2.14,8.58,2.26L20,244.53l4.08,2ZM66.9,301.72l11.64,4.65c.22-.62.45-1.23.68-1.85L69,300.71l-3,0c-2.87-1.53-8.19-3.1-8.17-4.59.08-5.26-3.56-3.54-5.89-4.35l-12.5-6.29-.92,1.69L50,293.62c4.55,4.16,9.31,7.84,16,7Zm30.26-14.25L84.4,282.85l-.48,1.28,10.22,4.5,9.68,5.56.92-1.73ZM73,210.65l5.14,3.56,1-2-5.93-1.86-9.79-10.23C64.35,206,67.35,209.71,73,210.65Zm43,79.84-.2,0,.26,0c1.05,5,4.42,7.79,10.63,7.64Zm-51.23-3.63a14.07,14.07,0,0,0,14.6,4.31l-12.28-4.54-11.42-5.88L54.59,282l2.36,5.9C59.73,282.26,62.23,286.33,64.81,286.86Zm96.26,10c2.48,2.2,10.4,2.8,12.72.92.18-.14.08-.62.1-.94-.08-1.24-.17-2.48-.26-3.72C163.82,293.79,163.82,293.79,161.07,296.87ZM177,229.67l-.29-.09.32,0q7.66,6.5,15.34,13c.09.07.53-.28,1.11-.62C189,236.34,184.14,231.54,177,229.67ZM41,204.3l17.28,6.23c-3.11-5.1-12.54-7.83-17.26-6.22l-3.33-.49c-.29-.73-.46-2-.88-2.09-5.56-1.19-11.15-2.24-16.75-3.23-.34-.06-.82.71-1.61,1.45l19.34,3.84Zm-1.62,31.21-23.08-2.77-.2,1.49c6.29,2.66,13,2.77,19.8,2.68l19.88,6.79,12.44,5.65c7,3.7,14.55,5.71,22,7.8.25-.73.5-1.45.76-2.17l-20.92-7.35-11.28-4.86Zm7.83-4c-13.44-6.59-28-8.73-42.65-10.43l41.48,12.26,33,12.54.71-1.95ZM10,370.59l2.1,3.28q4.28,4.89,8.54,9.77l2.55,3,2.42,1.09,2.56,2,1.57,1,4.37,2,21.63.32L50.65,395,51,396.2c7.62-1.81,15.78-2.47,22.75-5.7,11.24-5.21,18.74-14.56,22.33-26.69.28-1.84.57-3.68.85-5.51.37-3.16.73-6.32,1.1-9.48q-.09-3.74-.16-7.47l-5.79-15.6L90,323.45l-2-3.45L86,318.35l-5.73-5.77-2.46-1.95-8.66-3.86-3.61-2c-6.47-.56-13.07-2.21-19.39-1.47-19.9,2.32-37.46,19.08-41,38.3-.28,1.5,1.28,3.33,2,5-4.07,1.34-2.1,5-1.51,8.22a3,3,0,0,1,0,.9l1.18,5.88c.39,1.71.77,3.43,1.16,5.14.22.35.43.71.66,1.06C9.12,368.68,9.57,369.63,10,370.59ZM129.26,251.81l-18.35-3.94a5.6,5.6,0,0,0,2.93,2.89q9.36,4,18.79,7.94c4.39,1.8,9.37,2.72,13.13,5.38,6.11,4.32,12.2,6.88,20,5.34l-40-15.7Zm39.1,6.39-38.22-18.11C132.72,245.76,162.23,259.57,168.36,258.2Zm-118-34.09C34.68,216.43,12.22,211.62,6.6,214Zm78.41-47.66c-12.91-8.31-27.39-12.57-41.91-16.7-.21.54-.41,1.09-.62,1.64Zm9.81-5.29c-8.43-7.49-19.38-8.3-29.62-11.07C117.82,166.3,128.79,167.14,138.55,171.16Zm26.56,21.57c.25-.67.49-1.33.74-2l-29.53-13.8-1.06,2.27C144.59,185.05,155.3,187.92,165.11,192.73ZM89.57,183.9c3.59,4.86,27.08,14.12,30.88,12.4C109.89,194.07,101.6,186.13,89.57,183.9Zm21-31.47c-.24.75-.47,1.5-.7,2.24l29.75,9.39.78-2.5ZM57.83,183.61c-10.11-6.87-20.44-8.77-28.92-5.43ZM156,235.46c-8-4.34-15-10.55-24.55-11.61C139.6,227.81,146.05,235.18,156,235.46ZM94.82,225.6l.76-2.23-26.13-10.7-1,2.5Zm9.61,90c7.89,6.62,26.09,11,29.86,8.73ZM63.28,228.36,62.59,230c9.09,5.49,19,8.91,29.24,11.75.18-.41.35-.82.52-1.23ZM80.47,261l-.75,2c9.15,3.85,18.28,7.76,27.5,11.45,1,.41,2.53-.47,3.41-.66Zm23-80.63.56-2.18L80,170.62l-.77,2.53ZM170.8,227c-1-4.73-15.83-12.83-22.35-11.63ZM126.65,329.76l-24.22-3.69C106.13,330.53,119.4,332.9,126.65,329.76Zm23.19-25.12,1.31-1.63-19-14.24-1.45,1.91ZM82.42,197.14c.18-.54.36-1.07.55-1.6-4.3-2.5-8.47-5.28-13-7.39-2.35-1.11-5.47-2.4-7.33.33Zm61,12.44.67-1.62-19.34-9-.78,1.79C130.35,203.86,135.67,209.42,143.38,209.58Zm-34.59,10.35c2.49,13.37,14.15,9.9,21.14,13.9a25.94,25.94,0,0,0-6.84-4c-4.14-1.78-9.68-1.35-11.17-7.32C111.73,221.79,110.49,221.3,108.79,219.93ZM99,310.53c-6.88,3.25-11.48-2.61-17.28-5.14,1.31,4.89,13.65,10.39,20.62,9.75Zm62.12-103.62c-.25.68-.51,1.35-.77,2l18.53,7.28,1-2.5ZM111,211.83l-1.22,2.79,16.39,6.65.89-2.08ZM95.43,232.32l-20.21-6C80.17,231.69,88.94,234.52,95.43,232.32ZM14,259.5l-.92,1.73L33.42,273l1-1.85ZM101.63,255c.3-.74.59-1.48.88-2.22l-19.26-7.43-.75,1.9Zm38.52,64.35,1.14-2.64c-6.95,0-10.27-7.91-18-6.16ZM123.6,287.65l-1.47,2L135.89,301l1.28-1.5Zm-12-103.83c3.73,7.57,11.36,4.84,16.24,8.27l.84-1.86Zm-11.06,43.81c3.63,4.93,11.68,8.18,15.42,6.69ZM39.86,191.85c0-.61.11-1.23.17-1.84l-17.16-2.93-.39,2.33Zm49.31,5.57c-.27.76-.55,1.51-.83,2.27l15.13,5.12.69-2Zm-35-32.17,18,3.49.22-1.45C66.87,165.79,61.6,162.38,54.2,165.25Zm112.51,86.94c.35-.63.7-1.26,1.06-1.89l-14.14-7-1,2ZM17,283.31c2.24,5.77,10.32,11.35,15.32,10.94Zm44.75-110.8-.5,1.51c6.13,4.44,9.08,5.18,12.75,2.73Zm82,101c2.35,4.62,10.13,7.79,15.74,6.1ZM133.49,280c0-.44,0-.89,0-1.33H117V280Zm-83.89-.38.53-1.78-12.49-4.19C40.75,278,44.94,279.44,49.6,279.59Zm90.77-89.73-.7,2.17,11.41,3C147.35,191.33,144.27,189.5,140.37,189.86ZM80.56,265.78l-1,2,9.57,5c.32-.59.64-1.18,1-1.77Zm57.25,45.16,1.08-1.94-12.95-4.74-.62,1.62ZM70.33,197.71l-.27,1.37L82.31,202C79.32,197,74.77,197.54,70.33,197.71Zm33.08,63-.61,2.09,10.91,3.4c.18-.64.37-1.28.56-1.92Zm37.93,24.86,0,1.88,12.67-.93-.09-1.8Zm34.5-48.31-.75,2.34,9.66,2.83c.21-.83.43-1.65.65-2.48ZM94.85,148c-.17.69-.34,1.38-.5,2.07l9.63,1.86c.15-.75.29-1.5.43-2.25Zm6.47,61.36c.11-.48.22-1,.32-1.43-6.72-3.6-7.5-3.75-10.49-1.64ZM52.88,190.19c-.25.77-.49,1.54-.74,2.31l8.07,2.76c.24-.7.49-1.41.74-2.11ZM84.42,304.71l1.25-.53a21.66,21.66,0,0,1-1.62-3.32,34.43,34.43,0,0,1-.75-4.26C78.92,298.5,78.92,298.53,84.42,304.71ZM110.83,241l.84-1.68-6.8-2.84c-.28.7-.57,1.41-.86,2.11Zm2.59,49.37-.12-.76h0C113.32,289.9,113.36,290.15,113.42,290.4Zm-6-44.29.27.14.06-.17Z"/><path class="cls-13" d="M116.19,148.87c-4-1.06-8-2.67-12-3a143.94,143.94,0,0,0-20.24-.39c-2.12.11-4.13,2.38-6.44,3.8l9.92,2.3c-.1.64-.21,1.28-.31,1.92L69,150.74l.13-.46c.66-1.08,1.12-2.9,2-3.14C86.29,143.14,101.44,141.15,116.19,148.87Zm-44.11-1.13-.35,1.1,3.4.9.24-.76Z"/><path class="cls-13" d="M195,220.69c-1.4-5.63-3.05-10.5-10.14-11.88-4.64-.9-8.84-4-13.12-7.32l8.94,1L175.56,198l1-1c1.51,3.65,9.31.32,7.51,8.18-.19.82,3.92,2.63,6.93,4.54-.41-2-.55-2.67-.68-3.31Q192.62,213.55,195,220.69Z"/><path class="cls-3" d="M69.11,150.28l-.13.46H63.67c-.08.44-.17.89-.26,1.33l11.94,2.57c.15,1.67.28,3.17.45,5.18l-18.91-6.23C60.31,150.1,64.25,148.5,69.11,150.28Z"/><path class="cls-26" d="M172.77,188.74l-7.75-3.1,2.47-1.14,4.55,1.16.64-.84-6.36-5.25c.77-.42,1.87-1.38,2.27-1.15,1.69,1,3.07,2.52,4.79,3.44.5.27,1.72-.8,2.62-1.26,1,1.36,2,2.71,3,4.07Q175.87,186.7,172.77,188.74Z"/><path class="cls-3" d="M187,286.85c-.48-.62-.91-1.72-1.43-1.77-7-.57-11-8.07-18.3-7.92-.14,0-.29-.53-1.24-2.37,4.52,1.24,8.07,1.82,11.27,3.21,3.77,1.65,7.24,4,10.84,6Z"/><path class="cls-2" d="M8.24,201.4c.74.71,1.36,1.8,2.24,2.06,5.47,1.64,11,3.06,16.5,4.65a8.6,8.6,0,0,1,2.18,1.53L6.05,207Z"/><path class="cls-1" d="M162,170.91l-8.17-5,.27-1.39h5l12,11.11-7.06-3a2.6,2.6,0,0,1-.42-.83c0-.4.08-.81.11-1.22Z"/><path class="cls-10" d="M164,172.6l7.06,3,4.95,5c-.9.46-2.12,1.53-2.62,1.26-1.72-.92-3.1-2.45-4.79-3.44-.4-.23-1.5.73-2.27,1.15C162.7,178.19,163.29,175.42,164,172.6Z"/><path class="cls-13" d="M190.62,278.63c-.81-1.26-1.35-2.89-2.48-3.7-4.36-3.15-8.9-6-13.38-9l1.09-1.65c2.69,1.8,5.31,3.73,8.09,5.37s5.45,2.8,8.19,4.19Q191.38,276.22,190.62,278.63Z"/><path class="cls-5" d="M1.05,259.27,21,269.5l-.54,1.26c-5-2.2-10-4.45-15-6.55a11.53,11.53,0,0,0-3.41-.34C1.72,262.34,1.38,260.8,1.05,259.27Z"/><path class="cls-17" d="M184.51,220.82l10.42,4.63v-4.81l1.17,8.92-10-5,0,.11a.76.76,0,0,0-.18-.9Z"/><path class="cls-5" d="M3.06,268.23c1,5.48,6.33,6,9.9,8.52a49,49,0,0,0,4.48,2.52l-.81,1.53L6.42,275.3c-.1.86-.2,1.72-.29,2.59Q4.58,273.06,3.06,268.23Z"/><path class="cls-5" d="M.06,241.26c5.16-.73,10.06-.16,14.41,3.39L0,242.84Z"/><path class="cls-13" d="M2.05,224.47c1.35,4.1,4.93,1.71,7.42,2.47a34,34,0,0,0,5.27.79L14.62,229H1C1.34,227.46,1.69,226,2.05,224.47Z"/><path class="cls-1" d="M172.77,188.74q3.1-2,6.22-4.07c.38,1.31.76,2.62,1.15,3.94l-2.22,3.26Z"/><path class="cls-3" d="M192.61,272.6c-.61-1.56-1.21-3.13-1.82-4.69l.86-.91c3.63,2.31,2-2.05,3.31-2.63l-1.8,8.34A3.57,3.57,0,0,0,192.61,272.6Z"/><path class="cls-26" d="M177.92,191.87l2.22-3.26c.31,1.31.62,2.62.94,3.93Z"/><path class="cls-13" d="M190,204.83l-1.95-4.36Z"/><path class="cls-3" d="M188.38,283.77l1.58-3.42C189.44,281.49,188.91,282.63,188.38,283.77Z"/><path class="cls-13" d="M192.61,272.6a3.57,3.57,0,0,1,.55.11l-1,1Z"/><path class="cls-25" d="M69.18,306.77l8.66,3.86a23.52,23.52,0,0,1-3.24,3.81c-2.95,2.3-6.1,4.35-9.17,6.49l1,1.47,13.84-9.82L86,318.35c-9.64,5.49-19.29,10.95-28.9,16.49-.55.32-.78,1.21-1.16,1.83l.05,0a41.92,41.92,0,0,0-5.61,1.29Q28,346.26,5.65,354.74c-.58-3.24-2.55-6.88,1.52-8.22-.68-1.63-2.24-3.46-2-5,3.51-19.22,21.07-36,41-38.3,6.32-.74,12.92.91,19.39,1.47a36.43,36.43,0,0,1-4.8,3.49c-6.75,3.45-13.59,6.72-20.4,10.06.25.49.5,1,.74,1.49Z"/><path class="cls-15" d="M8.67,367.72,8,366.66c-.52-2.9,1.39-3.52,3.62-4.25,6.77-2.21,13.59-4.36,20.18-7.06,9.8-4,19.41-8.47,29.1-12.74,1.17.46,2.47,1.49,3.49,1.26,2-.45,4.37-1.15,5.75-2.56,3.09-3.14,9.12-2.93,9.85-8.66l12.06-6.9,5.79,15.6c-.78,4.53-4,7.32-7.44,9.64-8,5.37-16.24,10.51-24.37,15.74-.68-.56-1.6-1.75-2-1.59-6.43,2.48-12.79,5.13-19.4,7.84l4.3,1.67L35,380.71l-14.39,2.93-8.53-9.77c12.62-1.86,36.18-10,40.44-14.44-4.46,1.1-8.74,2.78-13.13,4.08C33,365.42,26.48,367.07,20,368.83l16.26-6.75,23.23-9.86,1.37-1-.28-.58-1.86.7-23.13,10c-1.91.54-3.8,1.17-5.73,1.61C22.81,364.57,15.74,366.13,8.67,367.72Zm54.9-18.65-1.42,1,.25.56,1.89-.67.49-1Zm16.16.29-1.9,1.09-2,1.06-2,1-18.53,9.42,1.14,2,17.76-11,2-1,2-1,1.89-1.19ZM87.28,337l2.91-2.09L93,332.79l-.72-1L89.37,334l-3,2L83.47,338q-8.84,4.8-17.66,9.61c.28.52.57,1,.85,1.57L84.27,339Z"/><path class="cls-15" d="M6.86,361.52c-.39-2-.79-3.92-1.18-5.88,1.81-.16,3.74.06,5.4-.52,9.56-3.34,19.16-6.64,28.56-10.41,5.63-2.26,10.93-5.36,16.38-8.08l-.05,0c6.45-3.16,13-6.22,19.33-9.51,4.3-2.22,8.44-4.76,12.64-7.16l2,3.45c-5.44,3.48-10.61,7.53-16.4,10.29-6.82,3.25-13.09,7.37-21.29,8.39-6.67.83-12.79,5.92-18.94,9.75C25.52,356.74,15.77,358.45,6.86,361.52Z"/><path class="cls-10" d="M25.83,245.11c1.41-4,4.39-4.9,8.26-4.26,2,.33,4,.31,6.56.49-.22,1.41-.45,2.79-.67,4.16l-6.41,1.32L50,249.55c.7,1.49,1,3.68,2.17,4.31,2,1.1,4.55,1.24,6.87,1.78l-.06,0,1,1.1c-.09,3.26.51,6.07,4.35,6.83-.4.81-.85,1.6-1.17,2.44-.43,1.1-.75,2.24-1.08,3.24l-5-6.6a4.05,4.05,0,0,0-.7-.07l-1.27-.94h0l4.75-2.41c-3.75-1-6.53-2.32-9.3-2.32-1.67,0-3.33,2-5,3.15q1.25,1.8,2.48,3.62l-1.13,2.16-6.22-9.53c.18,3.12.36,6.28.54,9.43-1.82-3.14-3.43-6.43-5.53-9.37A92.53,92.53,0,0,0,29,248.79l0-2.14,1.66-2.42-1.18-.54c-.15,1-.31,2-.46,3l-2.18.05Z"/><path class="cls-6" d="M6.86,361.52c8.91-3.07,18.66-4.78,26.46-9.64,6.15-3.83,12.27-8.92,18.94-9.75,8.2-1,14.47-5.14,21.29-8.39,5.79-2.76,11-6.81,16.4-10.29l2.12,2.3L80,332.65l-19.09,10c-9.69,4.27-19.3,8.73-29.1,12.74-6.59,2.7-13.41,4.85-20.18,7.06-2.23.73-4.14,1.35-3.62,4.25C7.63,365,7.25,363.23,6.86,361.52Z"/><path class="cls-3" d="M129.26,251.81l-3.47,1.91,40,15.7c-7.82,1.54-13.91-1-20-5.34-3.76-2.66-8.74-3.58-13.13-5.38q-9.43-3.88-18.79-7.94a5.6,5.6,0,0,1-2.93-2.89Z"/><path class="cls-2" d="M50,249.55l-16.44-2.73L40,245.5c4.74.18,9.48.24,14.2.62a8.19,8.19,0,0,1,4.6,1.76c5.79,5.28,11.67,10.53,16.91,16.33,1.9,2.1,2.14,5.7,3.42,9.44-5.19-6.39-9.47-11.84-14-17.08-1.21-1.39-3.15-2.15-4.76-3.19Z"/><path class="cls-26" d="M168.36,258.2c-6.13,1.37-35.64-12.44-38.22-18.11Z"/><path class="cls-13" d="M46.08,233.34,4.6,221.08c14.67,1.7,29.21,3.84,42.65,10.43Z"/><path class="cls-3" d="M50.33,224.11,6.6,214C12.22,211.62,34.68,216.43,50.33,224.11Z"/><path class="cls-3" d="M128.74,176.45,86.21,161.39c.21-.55.41-1.1.62-1.64C101.35,163.88,115.83,168.14,128.74,176.45Z"/><path class="cls-2" d="M138.55,171.16c-9.76-4-20.73-4.86-29.62-11.07C119.17,162.86,130.12,163.67,138.55,171.16Z"/><path class="cls-3" d="M29,248.79a92.53,92.53,0,0,1,6.62,7.56c2.1,2.94,3.71,6.23,5.53,9.37L45,268.41c.45.89.68,2.23,1.4,2.59,2.72,1.36,5.6,2.4,8.42,3.56.32.69.64,1.37,1,2.06-8.48.05-13.68-5.47-18-11.56C34.26,260.06,31.9,254.25,29,248.79Z"/><path class="cls-2" d="M165.11,192.73c-9.81-4.81-20.52-7.68-29.85-13.52l1.06-2.27,29.53,13.8C165.6,191.4,165.36,192.06,165.11,192.73Z"/><path class="cls-3" d="M46.08,233.34l1.17-1.83,32.58,12.42-.71,1.95Z"/><path class="cls-26" d="M89.57,183.9c12,2.23,20.32,10.17,30.88,12.4C116.65,198,93.16,188.76,89.57,183.9Z"/><path class="cls-2" d="M110.54,152.43l29.83,9.13-.78,2.5-29.75-9.39C110.07,153.93,110.3,153.18,110.54,152.43Z"/><path class="cls-1" d="M57.83,183.61l-28.91-5.43C37.39,174.84,47.72,176.74,57.83,183.61Z"/><path class="cls-1" d="M156,235.46c-9.95-.28-16.4-7.65-24.55-11.61C141,224.91,148,231.12,156,235.46Z"/><path class="cls-2" d="M94.82,225.6,68.46,215.17l1-2.5,26.13,10.7Z"/><path class="cls-3" d="M104.43,315.57l29.86,8.73C130.52,326.59,112.32,322.19,104.43,315.57Z"/><path class="cls-3" d="M63.28,228.36l29.07,12.15c-.17.41-.34.82-.52,1.23-10.2-2.84-20.15-6.26-29.24-11.75Z"/><path class="cls-3" d="M80.47,261l30.16,12.8c-.88.19-2.4,1.07-3.41.66-9.22-3.69-18.35-7.6-27.5-11.45Z"/><path class="cls-20" d="M87.94,320c-4.2,2.4-8.34,4.94-12.64,7.16-6.38,3.29-12.88,6.35-19.33,9.51.38-.62.61-1.51,1.16-1.83,9.61-5.54,19.26-11,28.9-16.49Z"/><path class="cls-2" d="M70.15,247.63,91.07,255c-.26.72-.51,1.44-.76,2.17-7.5-2.09-15-4.1-22-7.81Z"/><path class="cls-1" d="M103.49,180.41l-24.28-7.26.77-2.53,24.07,7.61Z"/><path class="cls-8" d="M56.32,262.55a4.05,4.05,0,0,1,.7.07l.6,4.75-5.46,4.07-4.28-2.76-1-2.86L48,263.66l7.07-2h0c-.09.37-.19.74-.29,1.11Z"/><path class="cls-11" d="M184.51,220.82l1.39,2.91c-.07.11-.2.25-.17.33a3.8,3.8,0,0,0,.35.57l0-.11c1,2.18,2,4.37,3.43,7.61l-16.78-10.31Z"/><path class="cls-3" d="M170.8,227l-22.35-11.63C155,214.18,169.85,222.28,170.8,227Z"/><path class="cls-6" d="M69.18,306.77l-28.07,13c-.24-.5-.49-1-.74-1.49,6.81-3.34,13.65-6.61,20.4-10.06a36.43,36.43,0,0,0,4.8-3.49Z"/><path class="cls-26" d="M55.82,243.7l-19.88-6.79,3.48-1.4,19.45,7.26Z"/><path class="cls-3" d="M126.65,329.76c-7.25,3.14-20.52.77-24.22-3.69Z"/><path class="cls-3" d="M149.84,304.64l-19.18-14,1.45-1.91,19,14.24Z"/><path class="cls-1" d="M82.42,197.14l-19.73-8.66c1.86-2.73,5-1.44,7.33-.33,4.48,2.11,8.65,4.89,13,7.39C82.78,196.07,82.6,196.6,82.42,197.14Z"/><path class="cls-26" d="M143.38,209.58c-7.71-.16-13-5.72-19.45-8.79l.78-1.79,19.34,9Z"/><path class="cls-14" d="M108.79,219.93c1.7,1.37,2.94,1.86,3.13,2.61,1.49,6,7,5.54,11.17,7.32a25.94,25.94,0,0,1,6.84,4C122.94,229.83,111.28,233.3,108.79,219.93Z"/><path class="cls-13" d="M64.3,263.54c-3.84-.76-4.44-3.57-4.35-6.84l.3-.95c6.29,4.49,10.47,10.41,12.61,19.45Z"/><path class="cls-3" d="M99,310.53l3.34,4.61c-7,.64-19.31-4.86-20.62-9.75C87.56,307.92,92.16,313.78,99,310.53Z"/><path class="cls-3" d="M37.82,203.79,18.49,200c.79-.74,1.27-1.51,1.61-1.45,5.6,1,11.19,2,16.75,3.23.42.09.59,1.36.88,2.08Z"/><path class="cls-26" d="M161.16,206.91l18.72,6.8-1,2.5-18.53-7.28C160.65,208.26,160.91,207.59,161.16,206.91Z"/><path class="cls-2" d="M111,211.83,127,219.19l-.89,2.08-16.39-6.65Z"/><path class="cls-3" d="M95.43,232.32c-6.49,2.2-15.26-.63-20.21-6Z"/><path class="cls-20" d="M14,259.5l20.44,11.68-1,1.85-20.33-11.8Z"/><path class="cls-10" d="M26.8,248.33c1.06,3.67,2.17,7.32,3.13,11a8.33,8.33,0,0,1-.22,2.64c-1.27-.43-3.13-.47-3.71-1.36-2.54-3.84-3.77-8-.8-12.29Z"/><path class="cls-2" d="M101.63,255,82.5,247.29l.75-1.9,19.26,7.43C102.22,253.56,101.93,254.3,101.63,255Z"/><path class="cls-1" d="M41.06,204.31c4.72-1.61,14.15,1.12,17.26,6.22L41,204.3Z"/><path class="cls-17" d="M51.9,291.75c2.33.81,6-.91,5.89,4.35,0,1.49,5.3,3.06,8.17,4.59l.06-.07c-6.74.84-11.5-2.84-16-7Z"/><path class="cls-13" d="M39.42,235.51l-3.48,1.4c-6.77.09-13.51,0-19.8-2.68l.2-1.49Z"/><path class="cls-13" d="M140.15,319.39l-16.86-8.8c7.73-1.75,11,6.2,18,6.16Z"/><path class="cls-14" d="M177,229.67c7.15,1.87,12,6.67,16.48,12.3-.58.34-1,.69-1.11.62q-7.7-6.45-15.34-13Z"/><path class="cls-3" d="M123.6,287.65l13.57,11.85-1.28,1.5-13.76-11.38Z"/><path class="cls-3" d="M190.79,267.91l-14-9.83,1.53-2.07,13.3,11Z"/><path class="cls-3" d="M111.6,183.82l17.08,6.41-.84,1.86C123,188.66,115.33,191.39,111.6,183.82Z"/><path class="cls-3" d="M100.54,227.63,116,234.32C112.22,235.81,104.17,232.56,100.54,227.63Z"/><path class="cls-3" d="M39.86,191.85l-17.38-2.44.39-2.33L40,190C40,190.62,39.91,191.24,39.86,191.85Z"/><path class="cls-3" d="M89.17,197.42l15,5.4-.69,2-15.13-5.12C88.62,198.93,88.9,198.18,89.17,197.42Z"/><path class="cls-9" d="M161.07,296.87c2.75-3.08,2.75-3.08,12.56-3.74.09,1.24.18,2.48.26,3.71Z"/><path class="cls-4" d="M54.2,165.25c7.4-2.87,12.67.54,18.25,2l-.22,1.45Z"/><path class="cls-1" d="M166.71,252.19l-14.11-6.85,1-2,14.14,7C167.41,250.93,167.06,251.56,166.71,252.19Z"/><path class="cls-2" d="M46.86,265.82l1,2.86L45,268.41l-3.79-2.69c-.18-3.15-.36-6.31-.54-9.43Z"/><path class="cls-13" d="M17,283.31l15.32,10.94C27.29,294.66,19.21,289.08,17,283.31Z"/><path class="cls-3" d="M61.72,172.51,74,176.75c-3.67,2.45-6.62,1.71-12.75-2.73Z"/><path class="cls-3" d="M51.9,291.75,50,293.62l-11.49-6.47.92-1.69Z"/><path class="cls-13" d="M143.68,273.53l15.74,6.1C153.81,281.32,146,278.15,143.68,273.53Z"/><path class="cls-2" d="M154.12,164.47l-.27,1.39-12.79-7,2.11-1.35Z"/><path class="cls-13" d="M133.49,280H117v-1.33h16.47C133.49,279.08,133.49,279.53,133.49,280Z"/><path class="cls-26" d="M67.13,286.63l12.28,4.54a14.06,14.06,0,0,1-14.6-4.32Z"/><path class="cls-13" d="M116,290.49l10.7,7.71c-6.21.15-9.58-2.67-10.63-7.64Z"/><path class="cls-17" d="M49.6,279.59c-4.66-.15-8.85-1.58-12-6l12.49,4.19Z"/><path class="cls-8" d="M50,249.55l10.36,3.83-1.32,2.26c-2.32-.54-4.86-.68-6.87-1.78C51,253.23,50.71,251,50,249.55Z"/><path class="cls-4" d="M67.13,286.63l-2.32.22c-2.58-.52-5.08-4.59-7.86,1L54.59,282l1.12-1.21Z"/><path class="cls-14" d="M73,210.65c-5.65-.94-8.65-4.65-9.58-10.53l9.79,10.23Z"/><path class="cls-3" d="M140.37,189.86c3.9-.36,7,1.47,10.71,5.17l-11.41-3Z"/><path class="cls-3" d="M80.56,265.78,90,271c-.31.59-.63,1.18-1,1.77l-9.57-5Z"/><path class="cls-6" d="M80.3,312.58,66.46,322.4l-1-1.47c3.07-2.14,6.22-4.19,9.17-6.49a23.52,23.52,0,0,0,3.24-3.81Z"/><path class="cls-6" d="M143.17,157.49l-2.11,1.35-10.94-4.61.86-1.89Z"/><path class="cls-3" d="M137.81,310.94l-12.49-5.06.62-1.62L138.89,309Z"/><path class="cls-3" d="M70.33,197.71c4.44-.17,9-.69,12,4.29l-12.25-2.92Z"/><path class="cls-13" d="M103.41,260.72l10.86,3.57c-.19.64-.38,1.28-.56,1.92l-10.91-3.4Z"/><path class="cls-14" d="M141.34,285.58l12.6-.85.09,1.8-12.67.93Z"/><path class="cls-14" d="M55.82,243.7l3-.93,11.28,4.86-1.89,1.71Z"/><path class="cls-1" d="M175.84,237.27,185.4,240c-.22.83-.44,1.65-.65,2.48l-9.66-2.83Z"/><path class="cls-3" d="M94.85,148l9.56,1.68c-.14.75-.28,1.5-.43,2.25l-9.63-1.86C94.51,149.36,94.68,148.67,94.85,148Z"/><path class="cls-4" d="M101.32,209.34l-10.17-3.07c3-2.11,3.77-2,10.49,1.64C101.54,208.38,101.43,208.86,101.32,209.34Z"/><path class="cls-2" d="M97.16,287.47l7.58,5-.92,1.73-9.68-5.56Z"/><path class="cls-1" d="M161.07,296.87l12.82,0c0,.33.08.81-.1,1C171.47,299.67,163.55,299.07,161.07,296.87Z"/><path class="cls-1" d="M167.49,184.5,165,185.64l-10.53-5.33c.19-.47.39-.93.59-1.39Z"/><path class="cls-13" d="M52.88,190.19l8.07,3c-.25.7-.5,1.41-.74,2.11l-8.07-2.76C52.39,191.73,52.63,191,52.88,190.19Z"/><path class="cls-4" d="M84.42,304.71c-5.5-6.18-5.5-6.21-1.12-8.11a34.43,34.43,0,0,0,.75,4.26,21.66,21.66,0,0,0,1.62,3.32Z"/><path class="cls-6" d="M55.74,276.62c-.31-.69-.63-1.37-1-2.06,1.46-3.66,1.72-3.7,4-1.14a38.73,38.73,0,0,0,3.93,3.2Z"/><path class="cls-4" d="M69,300.71l10.24,3.81c-.23.62-.46,1.23-.68,1.85L66.9,301.72Z"/><path class="cls-6" d="M97.16,287.47l-3,1.16-10.22-4.5.48-1.28Z"/><path class="cls-17" d="M16.9,241.78l-8.58-2.26.7-2.14,8.5,3.71C17.3,241.31,17.1,241.54,16.9,241.78Z"/><path class="cls-17" d="M110.83,241,104,238.62c.29-.7.58-1.41.86-2.11l6.8,2.84Z"/><path class="cls-14" d="M73.21,210.35l5.93,1.86-1,2L73,210.65Z"/><path class="cls-17" d="M17.52,241.09l4.93,1.73L20,244.53l-3.13-2.75C17.1,241.54,17.3,241.31,17.52,241.09Z"/><path class="cls-17" d="M26.8,248.33H25.2a.94.94,0,0,0-.05-.64l-1.1-1.13.06,0c0-.58,0-1.17,0-1.76l1.68.33,1,1.6Z"/><path class="cls-10" d="M24.15,244.78c0,.59,0,1.18,0,1.76l-4.08-2,2.42-1.71Z"/><path class="cls-27" d="M193.83,250.82Q192.4,249,191,247.18l1-.83,2.63,3.68Z"/><path class="cls-17" d="M114.58,242l2.55,1.85-.51.83-2.87-1.73Z"/><path class="cls-13" d="M113.42,290.4c-.06-.25-.1-.5-.15-.76h0Z"/><path class="cls-27" d="M162,170.91l1.66-.36c0,.41-.07.82-.11,1.22Z"/><path class="cls-17" d="M113.75,242.93l-2.15-1.6.39-.67,2.59,1.32C114.3,242.3,114,242.61,113.75,242.93Z"/><path class="cls-3" d="M41.06,204.31h0l-3.21-.51-.1,0Z"/><polygon class="cls-3" points="107.45 246.11 107.78 246.08 107.72 246.25 107.45 246.11"/><path class="cls-17" d="M69,300.71l-2.08,1-.88-1.1-.06.07Z"/><path class="cls-13" d="M116.1,290.56l-.26,0,.19,0Z"/><path class="cls-14" d="M177,229.63l-.32,0,.29.09Z"/><path class="cls-10" d="M24.05,246.57l1.1,1.13C24.78,247.33,24.42,247,24.05,246.57Z"/><path class="cls-8" d="M60.25,255.75l-.3.95-1-1.09Z"/><path class="cls-22" d="M72.08,147.74,75.37,149l-.24.76-3.4-.9Z"/><path class="cls-22" d="M186.08,224.63a3.8,3.8,0,0,1-.35-.57c0-.08.1-.22.17-.33A.76.76,0,0,1,186.08,224.63Z"/><path class="cls-3" d="M55.06,261.62l-7.07,2q-1.23-1.82-2.48-3.62c1.67-1.12,3.33-3.15,5-3.15,2.77,0,5.55,1.3,9.3,2.32Z"/><path class="cls-22" d="M29,246.66c.15-1,.31-2,.46-3l1.18.54L29,246.65Z"/><path class="cls-3" d="M56.32,262.55l-1.56.17c.1-.37.2-.74.29-1.11Z"/><path class="cls-15" d="M65.17,367.74c.3-.36.61-.71.91-1.06C65.78,367,65.47,367.38,65.17,367.74Z"/><path class="cls-15" d="M16.11,370.52l4-1.78Z"/><path class="cls-22" d="M399.55,483.87l-1.86,1.56-12-6.09h-.46l.2.27,5.58,7-.33,2-.08,0c-4.45-1.33-8.51-3.15-10.09-8.06l1.26-1.12-.34-.3-.93,1.4-4.93-2.08,0,0q-2.5-5-5-10l0,0c-1.91-5.21-3.71-10.53-10-12l.06,0,0-5,0,.06c.31-.37.62-.74.92-1.12l0,0,1.85-2.26v0l3.7,2.13c-.24-1.94-.42-3.46-.6-5l0,0,1-.31c3.41,2.56,6.56,5.7,11.39,5.14l2.59,2.39,4.17,1.91,0,0c.93,3.88.88,8.5,3.08,11.43s6.54,3.81,9.95,5.61h2l0,0c-2.94,4.48-6.62,0-9.86.83l-2.19-1.13-.3.67,2.21.81c-1.17.14-2.56.75-3.45.32a44.84,44.84,0,0,1-5.57-3.7l-1.19,1.11,3.37,4.09.14.33-.17-.31,11.81,4.24Zm-17.14-18.21H383l-.22-.34-.81-3-1,.33C381.44,463.69,381.92,464.68,382.41,465.66Zm-4.25,10.16,1,.74-.44-1.19q-3.65-7.61-7.28-15.22l-1.84,1Q373.88,468.5,378.16,475.82Zm-9.65-24.36-.86.88,7.32,8,.84-.87Q372.15,455.48,368.51,451.46Zm16.33,17.13.36,0-.16-.36Z"/><path class="cls-22" d="M394.69,442.68c8.25,5,13.53,12,13.61,22,0,2.59-1.18,5.19-1.82,7.79l-5.94-1,0,0c-.64-.71-1.27-1.43-1.9-2.14-.9-.35-2.16-.43-2.63-1.08-2.71-3.77-5.23-7.68-7.84-11.58l2.15-1.69-4.81-.54,0,0-3.11-3-6.85-7.07.11-.07c0-2,0-3.93,3-3.54C384,441.51,389.36,442.06,394.69,442.68Zm-.06,15.72-.49-.1.33.27,1,.22Zm3,7.05c-.19-.19-.37-.39-.56-.59.16.22.31.45.46.67.13.56.26,1.12.38,1.68l.66-.25C398.23,466.45,397.91,466,397.6,465.45ZM395.55,453l-.31,1.9h4.11c0-.41.08-.82.13-1.23Zm-3.13,1.09.62-1.15L390.6,452c-.13.31-.26.63-.38.94Z"/><path class="cls-10" d="M356.66,463.28l.84-4.61,3.1-2.17-.06,0,10,12,0,0q2.51,5,5,10l0,0,3.07,6.26-2,1.45-2.1-3.66,0,0c-1.32-1.33-2.65-2.65-4-4l0,0-3.06-4-.41,0-4.51-3,0,0-3-2,0,0Z"/><path class="cls-11" d="M367.08,474.51l.41,0,3.06,4,0,0c1.33,1.33,2.66,2.65,4,4l0,0,2.82,7-1.66-.2-1.26-.75.07,0c-2.39-1.06-3.22-5.71-7.19-3.12-.67-.63-1.33-1.27-2-1.91l1.49-1.77-1.19-.71-.27,2.5q-3.87-5.56-7.76-11.12l-.9-3.11a.94.94,0,0,1-.07-.68l2.89.82,0,0,3,2,0,0Z"/><path class="cls-9" d="M400.54,471.49l5.94,1c-1.25,2.75-2.5,5.49-3.74,8.24l-.39-.39c-1.5-4.74-5.39-5.18-10.65-6L396,478l-.66.76-11.8-4.24,0,0-3.37-4.09,1.19-1.11A44.84,44.84,0,0,0,387,473c.89.43,2.28-.18,3.45-.32l.28-.35C393.92,471.52,397.6,476,400.54,471.49Z"/><path class="cls-7" d="M377.39,489.49l-2.82-7,2.1,3.66,2-1.45-3.07-6.26,4.93,2.08v0c1.58,4.91,5.64,6.73,10.09,8.06C386.35,491.19,381.88,490.49,377.39,489.49Z"/><path class="cls-14" d="M394.69,442.68c-5.33-.62-10.67-1.17-16-1.87-3-.39-3,1.54-3,3.53l-3.18-1.87-.4-.51C379.78,438.17,387.3,438.35,394.69,442.68Z"/><path class="cls-8" d="M385.69,479.34l12,6.09-2.06,1.1-1.65.31,0,.17-3-.5v.1l-5.58-7Z"/><path class="cls-7" d="M367.35,485.46c4-2.59,4.8,2.06,7.19,3.12Z"/><path class="cls-9" d="M399.55,483.87l-4.21-5.12c.21-.25.43-.51.65-.75l6.36,2.31.39.39Z"/><path class="cls-7" d="M366.44,445.35c.18,1.53.36,3,.6,5l-3.7-2.13Z"/><path class="cls-7" d="M359.55,469.48l-2.89-.82v-5.38C357.62,465.35,358.59,467.41,359.55,469.48Z"/><path class="cls-7" d="M360.6,456.5l-3.1,2.17,3.12-7.16C360.61,453.18,360.6,454.84,360.6,456.5Z"/><path class="cls-14" d="M367.51,444.35l4.63-2.38.4.5-5,2.22Z"/><path class="cls-7" d="M391,486.61v-.1l2.93.74-3.25,1.35Z"/><path class="cls-7" d="M363.34,448.23l-1.85,2.26Z"/><path class="cls-7" d="M356.73,469.34l.9,3.11Z"/><path class="cls-22" d="M393.93,487.25l-2.93-.74,3,.5Z"/><path class="cls-7" d="M394,486.84l1.65-.31Z"/><path class="cls-7" d="M361.52,450.45c-.3.38-.61.75-.92,1.12C360.91,451.2,361.22,450.83,361.52,450.45Z"/><path class="cls-7" d="M367.42,445.08l-1,.31,1.1-1,0,.34Z"/><path class="cls-7" d="M374.47,488.54l1.26.75Z"/><path class="cls-8" d="M385.53,454.48l4.81.54-2.15,1.69c2.61,3.9,5.13,7.81,7.84,11.58.47.65,1.73.73,2.63,1.08,0,.72-.07,1.44-.1,2.15-3.41-1.8-7.85-2.82-9.95-5.61S386.46,458.36,385.53,454.48Z"/><path class="cls-8" d="M367.42,445.08l.12-.39,5-2.22,3.18,1.87-.11.08,3.2,5.8C374,450.78,370.83,447.64,367.42,445.08Z"/><path class="cls-8" d="M378.16,475.82q-4.29-7.32-8.57-14.66l1.84-1q3.65,7.62,7.28,15.22Z"/><path class="cls-7" d="M370.59,468.5l-10-12C366.88,458,368.68,463.29,370.59,468.5Z"/><path class="cls-7" d="M368.51,451.46q3.64,4,7.3,8l-.84.87-7.32-8Z"/><path class="cls-14" d="M378.81,450.22l-3.2-5.8,6.85,7.08-1.06,1.11Z"/><path class="cls-7" d="M375.59,478.49q-2.5-5-5-10Q373.08,473.47,375.59,478.49Z"/><path class="cls-8" d="M381.4,452.61l1.06-1.11,3.11,3Z"/><path class="cls-9" d="M382.41,465.67l-1.46-3,1-.33.81,3Z"/><path class="cls-8" d="M380.5,480.54l.93-1.4.34.3-1.26,1.12Z"/><path class="cls-9" d="M390.4,472.67l-2.21-.81.3-.67,2.19,1.13Z"/><path class="cls-9" d="M398.56,471.52c0-.71.06-1.43.1-2.15.63.71,1.26,1.43,1.9,2.14Z"/><path class="cls-8" d="M378.71,475.37c.15.4.29.8.44,1.19l-1-.74Z"/><path class="cls-9" d="M383.53,474.51l.17.31-.14-.33Z"/><polygon class="cls-9" points="384.84 468.59 385.04 468.26 385.2 468.62 384.84 468.59"/><path class="cls-9" d="M382.75,465.33l.22.34h-.56Z"/><path class="cls-8" d="M385.43,479.6l-.2-.27h.46Z"/><path class="cls-10" d="M395.55,453l3.93.67c-.05.41-.09.82-.13,1.23h-4.11Z"/><path class="cls-10" d="M392.42,454.08l-2.2-1.15c.12-.31.25-.63.38-.94l2.44.94Z"/><path class="cls-9" d="M397.6,465.45l.94,1.51-.66.25c-.12-.56-.25-1.12-.38-1.68Z"/><path class="cls-9" d="M397.5,465.53c-.15-.22-.3-.45-.46-.67.19.2.37.4.56.59Z"/><path class="cls-8" d="M394.63,458.4l.8.39-1-.22Z"/><path class="cls-8" d="M394.47,458.57l-.33-.27.49.1Z"/><path class="cls-7" d="M374.55,482.48c-1.32-1.33-2.65-2.65-4-4C371.9,479.83,373.23,481.15,374.55,482.48Z"/><path class="cls-7" d="M367.08,474.51l-4.51-3Z"/><path class="cls-7" d="M370.55,478.48l-3.06-4Z"/><path class="cls-7" d="M362.55,471.48l-3-2Z"/><path class="cls-7" d="M365.39,483.57l.27-2.5,1.19.71-1.49,1.77Z"/><path class="cls-22" d="M402.35,480.31,396,478c-1.08-.94-2.17-1.87-4.29-3.67C397,475.13,400.85,475.57,402.35,480.31Z"/><path class="cls-24" d="M652.25,557.38a13.36,13.36,0,1,1-13.55,13.08A13.35,13.35,0,0,1,652.25,557.38Z"/></g></g></svg>