<svg xmlns="http://www.w3.org/2000/svg" viewBox="0 0 90.48 90.39"><defs><style>.cls-1{fill:#8daec2;}.cls-2{fill:#222537;}.cls-3{fill:#5a7baa;}.cls-4{fill:#7aa0bf;}.cls-5{fill:#426089;}.cls-6{fill:#4d6d97;}.cls-7{fill:#2a3d5a;}</style></defs><g id="Layer_2" data-name="Layer 2"><g id="Layer_1-2" data-name="Layer 1"><path class="cls-1" d="M44.56,90.37C21,91.08-1,70.89,0,43,.94,18.37,21.63-.72,47.16,0c25.36.74,44,21.17,43.3,47.56C89.84,72.08,69.43,91.11,44.56,90.37ZM14,16.92l-.65-.16-.07.39.63-.29,1.31-.67,6.33-1.25c-5.94,4.7-14,6.47-16.43,14.74L6,32.14,2.72,37.85c-.24,1.79-.49,3.58-.73,5.37.29,6.23.43,6.52,6.74,5.52,5.4-.85,10.71-2.31,16.09-3.36,2.12-.41,4.32-.44,6.49-.65l.32,2L3,53.1c-.07,4.46,1.94,6.78,6.91,6,1.31-.21,2.65-.19,4-.28l14.18-.91c.06.57.13,1.15.19,1.73L6,62.61c.89,3.24,2.33,5,6,4.49,8.17-1.24,16.37-2.26,24.56-3.37l3.3,1.14L10.1,71.16c3.06,2.73,6.19,5.54,9.32,8.35l2.68,2.22c8.06,6.22,17,5.71,26.25,3.6l-5.87,2.33c13.36,3.57,36.26-8.76,40.38-21.52.08-.26-.5-.74-.77-1.11l-1.41-1.3c3.66-2.79,7.48-5.47,6.74-11L79.7,57.84,79,56.76c2.75-2.46,6.35-4.46,8-7.52C88.52,46.35,88,42.36,88.53,38L64,50.42l-.89-1.6c1.64-1,3.26-2,4.93-2.88,5.38-2.95,10.84-5.75,16.11-8.88,1.24-.74,1.84-2.54,3.17-4.5L63.55,39.74l-.5-1.41a35.69,35.69,0,0,1,3.29-1.74c4.93-1.94,10-3.69,14.83-5.75,3.93-1.66,4.52-4.28,1.44-7.09-1.08-1-3.25-.77-4.92-1.1l.06.08,2.44-3c-.24-.32-.48-.63-.71-.95L71.08,22,69.7,20.6l7.16-4.12V15.07h-14l-.12-1.85L72.79,12C64.25,4.37,55,9.19,46.38,8.67L46.12,7.4,58.61,4.18c-2.21-.56-3.63-.88-5-1.28-5.89-1.7-11.43,1.17-17,1.33-9.56.28-16,5.28-22.36,11.13C14.1,15.88,14,16.4,14,16.92Z"/><path class="cls-2" d="M2.72,37.85,6,32.14,30.11,20.26a18.67,18.67,0,0,0-8.64,1.47c-5.55,2.46-10.94,5.28-16.4,8,2.46-8.27,10.49-10,16.43-14.74l-6.33,1.25-1-.83C20.55,9.51,27,4.51,36.54,4.23c5.61-.16,11.15-3,17-1.33,1.4.4,2.82.72,5,1.28L46.12,7.4l.26,1.27C55,9.19,64.25,4.37,72.79,12l-10.1,1.26.12,1.85h14v1.41L69.7,20.6c-8.69,2.19-16.86,7.26-26,4.6l2.12,5c2.14-.73,4.54-1.58,7-2.37q9.16-3,18.33-5.91l8.4-3.2c.23.32.47.63.71.95-.81,1-1.63,2-2.43,3,0,0-.07-.09-.07-.09,1.67.33,3.84.12,4.92,1.1,3.08,2.81,2.49,5.43-1.44,7.09-4.88,2.06-9.9,3.81-14.83,5.75a35.69,35.69,0,0,0-3.29,1.74l.5,1.41,23.73-7.18c-1.33,2-1.93,3.76-3.17,4.5C78.84,40.19,73.38,43,68,45.94c-1.67.92-3.29,1.92-4.93,2.88l.89,1.6L88.53,38c-.5,4.33,0,8.32-1.57,11.21-1.64,3.06-5.24,5.06-8,7.52l.73,1.08,7.72-5.08c.74,5.5-3.08,8.18-6.74,11L60.17,76.27C68.55,74.65,75.62,70.45,82.09,65c.27.37.85.85.77,1.11-4.12,12.76-27,25.09-40.38,21.52l5.87-2.33c-9.27,2.11-18.19,2.62-26.26-3.6l16.16-3.79c-.07-.34-.15-.68-.22-1L19.42,79.51c-3.13-2.81-6.26-5.62-9.32-8.35l29.71-6.29,21.93-7.09c8.8-2.84,17.4-6.08,24.43-12.41L59.64,56.73l-23.13,7C28.32,64.84,20.12,65.86,12,67.1c-3.65.56-5.09-1.25-6-4.49l22.28-3c-.06-.58-.13-1.16-.19-1.73l-14.18.91c-1.33.09-2.67.07-4,.28-5,.8-7-1.52-6.91-6l28.64-6.41-.32-2c-2.17.21-4.37.24-6.49.65-5.38,1-10.69,2.51-16.09,3.36-6.31,1-6.45.71-6.74-5.52l13.15-4.09c-3.88-4.53,4-4.33,3.27-9.13-2.39,2.31-4.28,3.9-5.9,5.74C9.84,38.77,5,39.92,2.72,37.85Zm34.71,0,.69,2.24,32.66-9.91-.6-2ZM60.65,67.15,60,65.44l-19.87,7c.21.6.43,1.2.65,1.8ZM32.08,23.2,32.44,25l13.4-2.67-.33-1.74Z"/><path class="cls-3" d="M71.08,22q-9.16,3-18.33,5.91c-2.42.79-4.82,1.64-7,2.37l-2.12-5c9.17,2.66,17.34-2.41,26-4.6Z"/><path class="cls-4" d="M5.07,29.68c5.46-2.67,10.85-5.49,16.4-7.95a18.67,18.67,0,0,1,8.64-1.47L6,32.14Z"/><path class="cls-4" d="M36.51,63.73l23.13-7,2.1,1.05L39.81,64.87Z"/><path class="cls-4" d="M2.72,37.85c2.24,2.07,7.12.92,9.79-2.11C14.13,33.9,16,32.31,18.41,30c.69,4.8-7.15,4.6-3.27,9.13L2,43.22C2.23,41.43,2.48,39.64,2.72,37.85Z"/><path class="cls-3" d="M82.09,65c-6.47,5.42-13.54,9.62-21.92,11.24L80.68,63.73Z"/><path class="cls-5" d="M19.42,79.51,38,76.93c.07.33.15.67.22,1L22.09,81.73Z"/><path class="cls-2" d="M13.86,16.86l-.63.29.07-.39.65.16Z"/><path class="cls-2" d="M15.17,16.19l-1.31.67.09.06c.08-.52.15-1,.23-1.56Z"/><path class="cls-4" d="M37.43,37.86l32.75-9.65.6,2L38.12,40.1Z"/><path class="cls-3" d="M61.74,57.78l-2.1-1.05L86.17,45.37C79.14,51.7,70.54,54.94,61.74,57.78Z"/><path class="cls-6" d="M60.65,67.15,40.82,74.24c-.22-.6-.44-1.2-.65-1.8l19.87-7Z"/><path class="cls-7" d="M32.08,23.2l13.43-2.58.33,1.74L32.44,25Z"/><path class="cls-1" d="M77.69,22.65s.08.09.07.09Z"/></g></g></svg>