<svg xmlns="http://www.w3.org/2000/svg" viewBox="0 0 555.21 323.36"><defs><style>.cls-1{fill:#b0b2b0;}.cls-2{fill:#6a84ad;}.cls-3{fill:#253656;}.cls-4{fill:#627d9c;}.cls-5{fill:#eec9a2;}.cls-6{fill:#c5792e;}.cls-7{fill:#dd9d59;}.cls-8{fill:#f4f4f4;}.cls-9{fill:#c17321;}.cls-10{fill:#df9448;}.cls-11{fill:#f1b67a;}.cls-12{fill:#fdfdfc;}.cls-13{fill:#fdfbf9;}</style></defs><g id="Layer_2" data-name="Layer 2"><g id="Layer_1-2" data-name="Layer 1"><path class="cls-1" d="M166.06,294.36c-8.95,1.45-17.91,2.88-26.87,4.35-19.28,3.16-38.52,6.69-57.87,9.39a262.42,262.42,0,0,1-35.19,2.67c-12.38,0-25-.41-36.48-6C-.14,300-2.82,291,3.19,281.39a85.63,85.63,0,0,1,18.1-20.27c20.94-17.22,44.79-29.75,69.52-40.61,1.28-.56,3-.22,4.43-.3-1.53.95-3,1.94-4.6,2.86-19.58,11.6-39.47,22.73-58.62,35-7.37,4.73-13.64,11.58-19.39,18.33a10.48,10.48,0,0,0,6.25,17.28c10.62,1.59,21.62,3.06,32.19,2a410.35,410.35,0,0,0,51-8.82c34.76-8.11,69.52-16.37,103.89-26,24.4-6.84,48.18-15.94,72.18-24.2,15.26-5.25,30.58-10.38,45.57-16.31,25.53-10.1,50.74-21,76.23-31.17,20.37-8.15,41.11-15.35,61.39-23.72,20-8.26,38.62-19.38,56.56-31.51,6.18-4.19,12.2-8.62,18.29-12.93,1.31-.17,3.2.16,3.83-.58a19.86,19.86,0,0,0,4.6-16.18l6.85-5.34c4.5,5,5.06,12.43,1.06,19.38-6.58,11.44-16,20.47-26.63,27.86-12.93,9-26.26,17.43-39.84,25.41-11.88,7-24.23,13.18-36.56,19.36s-24.76,11.87-37.16,17.78a31.1,31.1,0,0,0-3.33,1q-23,9.75-46.07,19.56c-6.92,3-13.82,6-20.73,9l.07,0-1.91.15c-1.35.57-2.68,1.22-4.06,1.71-23.16,8.09-46.29,16.25-69.5,24.19-9.55,3.27-19.22,6.21-28.91,9-13.36,3.91-26.78,7.59-40.19,11.33-10.48,2.92-21,5.79-31.48,8.69l-.35-.24.39.2Z"/><path class="cls-2" d="M536.18,121c-6.09,4.31-12.11,8.74-18.29,12.93-17.94,12.13-36.53,23.25-56.56,31.51-20.28,8.37-41,15.57-61.39,23.72-25.49,10.19-50.7,21.07-76.23,31.17-15,5.93-30.31,11.06-45.57,16.31-24,8.26-47.78,17.36-72.18,24.2-34.37,9.63-69.13,17.89-103.89,26a410.35,410.35,0,0,1-51,8.82c-10.57,1.09-21.57-.38-32.19-2a10.48,10.48,0,0,1-6.25-17.28c5.75-6.75,12-13.6,19.39-18.33,19.15-12.28,39-23.41,58.62-35,1.56-.92,3.07-1.91,4.6-2.86l6.29-2c2.28,5.08,4.49,10,6.91,15.43-28.36,14.59-57,28.1-81,50.83a56.5,56.5,0,0,0,27.52,1.28c23-4.24,45.93-9.07,68.85-13.83,4.31-.89,8.47-2.51,12.7-3.8l1.76,0c10.33-3,20.71-5.82,31-9,16-5,31.86-10.14,47.76-15.29,9.69-3.15,19.32-6.44,29-9.63,8.48-2.78,17-5.36,25.45-8.3,9.31-3.25,18.53-6.73,27.73-10.27a44.68,44.68,0,0,0,6.07-3.46,65.65,65.65,0,0,0,8.05-2.12c11.57-4.57,23.05-9.33,34.58-14,7.52-3,15.14-5.83,22.57-9.08q16.71-7.32,33.19-15.17c5.41-2.6,10.5-5.87,15.73-8.84,2.65-.75,5.52-1.06,7.91-2.3,23.46-12.14,47.1-24,68.83-39.11,5.68-4,10.92-8.57,16.36-12.87l-.75-1.43c-1.92-.34-3.86-1.06-5.76-1-11.78.63-23.61.91-35.3,2.31-18.14,2.18-36.18,5.17-54.26,7.81l-4.3-7.44c.07-.62.13-1.24.2-1.87,6.78-2.09,13.5-4.41,20.36-6.23,23.23-6.18,46.39-12.21,70.84-12.06A62.12,62.12,0,0,1,538,99.22a8.23,8.23,0,0,1,3,3.73C543.74,110.06,540.75,115.76,536.18,121Z"/><path class="cls-3" d="M109.05,223.33l-3.57-9c2.77-.51,5.72-.57,8.27-1.62,15.22-6.25,30.77-11.88,45.4-19.32,27.59-14,55.93-25.81,86.37-31.74,20.36-4,40.56-8.26,58.1-19.88,13-8.6,25.27-18.27,37.86-27.46,1.44-.74,2.93-1.39,4.32-2.22q15.75-9.47,31.47-19l3-1,0,0c2.73-.53,5.73-.52,8.13-1.71,3.19-1.58,5.07-.8,7.33,1.53s5,4,8,6.49c1.18,2.63,2.66,6.36,4.48,9.92,2.29,4.49.94,9.82,4.41,14.32,2.13,2.77,2.16,7.56,2.05,11.42,0,1.06-3.94,2-6,3-.21.1-.22.6-.32.91-4.93.53-9.95.63-14.78,1.65a114.22,114.22,0,0,0-47,21.57c-9.57,7.43-19.59,14.28-31.5,17.53-6.19,1.68-12.49,2.95-18.74,4.41-11.77.62-23.56,1.11-35.32,1.9-27.78,1.85-54.24,9.06-80.12,19.15C157.65,213.3,134.85,224.09,109.05,223.33Z"/><path class="cls-1" d="M96.44,163.11c11.8.6,22.43-3.84,33.2-7.7,28.51-10.22,53.77-26.64,79.79-41.65,21.73-12.53,43.26-25.5,65.66-36.73,25.1-12.59,51.8-21.45,78.7-29.5a17.13,17.13,0,0,1,3.46-.33c-.16,1.64-.26,3.29-.48,4.92q-1.75,13-3.56,26C346.46,82,339.75,86,333,89.75c-24.18,13.51-49.85,23-77.37,26.38a161.89,161.89,0,0,0-67.87,24.5c-17.41,11-34.49,22.61-52.05,33.4-11.34,7-23.45,12.53-36.67,15.18Q97.73,176.16,96.44,163.11Z"/><path class="cls-1" d="M341.48,114.36c-12.59,9.19-24.88,18.86-37.86,27.46-17.54,11.62-37.74,15.91-58.1,19.88-30.44,5.93-58.78,17.71-86.37,31.74-14.63,7.44-30.18,13.07-45.4,19.32-2.55,1.05-5.5,1.11-8.27,1.62l-4.38-15.09c9.87-3.29,20.5-5.2,29.45-10.17,19.42-10.78,38.22-22.76,56.84-34.92,21.46-14,44.14-24.21,69.94-27S307,115.61,330,104c6-3.06,12.14-5.92,18.22-8.87Q344.87,104.73,341.48,114.36Z"/><path class="cls-3" d="M348.24,95.09C342.16,98,336,100.9,330,104c-23,11.65-46.94,20.44-72.69,23.23s-48.48,13-69.94,27c-18.62,12.16-37.42,24.14-56.84,34.92-9,5-19.58,6.88-29.45,10.17L99,189.21c13.22-2.65,25.33-8.21,36.67-15.18,17.56-10.79,34.64-22.36,52.05-33.4a161.89,161.89,0,0,1,67.87-24.5c27.52-3.38,53.19-12.87,77.37-26.38,6.79-3.8,13.5-7.76,20.25-11.65l32-15.88,7.16,9.86c-12.32,6-24.66,12-37,18.08a60.06,60.06,0,0,0-6.13,4c-.35.34-.7.68-1.06,1Z"/><path class="cls-1" d="M109.35,99.23c5-14.73,13.43-27.47,23.09-39.37C156.16,30.66,186.56,12,223.25,3.73,236.44.74,249.8-.79,263.36.41a22,22,0,0,1-3.73,2.95c-6.28,3-12.89,5.45-18.9,8.92C228.4,19.38,216.38,27,204.24,34.43a72.63,72.63,0,0,0-29.68,22.74,8.4,8.4,0,0,0-2.3.76c-16.66,11.7-33.21,23.57-50,35.08C118.36,95.68,113.68,97.19,109.35,99.23Z"/><path class="cls-1" d="M109.05,223.33c25.8.76,48.6-10,71.75-19.06,25.88-10.09,52.34-17.3,80.12-19.15,11.76-.79,23.55-1.28,35.32-1.9l-10.83,13.3-10.23,12.57c-15.25,0-30.58-.88-45.74.3-20.75,1.61-40.78,7.2-60.26,14.58l-15.89,5.32-3.07,1-33.77,9.07Q112.75,231.35,109.05,223.33Z"/><path class="cls-1" d="M211.24,69.15l-2,.12L208.09,69c3.82-5.81,7.79-11.54,11.43-17.46,2.79-4.53,3.15-9.37.43-14.18a13.24,13.24,0,0,1,2.14-2C238.15,25.8,254,15.79,272,10c6.42-2.07,12.75-4.4,19.12-6.62,12.54,2.92,25,6,36.18,12.8-3.89,2-7.65,4.31-11.68,5.93-23,9.24-46.27,17.9-69.07,27.63C235.33,54.53,224.93,61.18,214.17,67Z"/><path class="cls-1" d="M139.15,118.06c-7.18,4-14.16,8.42-21.61,11.82-6.06,2.77-12.68,4.31-19.05,6.4q3.41-13.56,6.8-27.14a16.19,16.19,0,0,0,3.44-.34c16.93-5.38,31.86-14.6,46.6-24.21,3.65-2.38,7.59-4.33,11.4-6.48.06,5.84,1,11.16,7.59,13.3-1.39,1.89-2.77,3.79-4.15,5.68h0l-8.5,3.21c-9.77-.38-13,2.2-13.73,11Z"/><path class="cls-4" d="M291.09,3.39C284.72,5.61,278.39,7.94,272,10c-18,5.78-33.82,15.79-49.88,25.35a13.24,13.24,0,0,0-2.14,2c-4.55-4.62-10.07-4.14-15.71-3,12.14-7.41,24.16-15,36.49-22.15,6-3.47,12.62-5.89,18.9-8.92A22,22,0,0,0,263.36.41Z"/><path class="cls-4" d="M166.73,78.11c-3.81,2.15-7.75,4.1-11.4,6.48-14.74,9.61-29.67,18.83-46.6,24.21a16.19,16.19,0,0,1-3.44.34q2-5,4.06-9.91c4.33-2,9-3.55,12.91-6.22,16.79-11.51,33.34-23.38,50-35.08a8.4,8.4,0,0,1,2.3-.76C170.69,63.68,166.66,70.13,166.73,78.11Z"/><path class="cls-1" d="M536.18,121c4.57-5.24,7.56-10.94,4.78-18a8.23,8.23,0,0,0-3-3.73,62.12,62.12,0,0,0-34.52-10.33C479,88.74,455.85,94.77,432.62,101c-6.86,1.82-13.58,4.14-20.36,6.23l-2.07-2,0,0c-.35-1-.7-2-1-3.06v.13c0-3.88,3.48-4.49,5.86-4.93,14-2.61,28-5.27,42.08-7,17.05-2.12,34.2-3.42,51.32-4.92,2.25-.2,4.57.47,6.86.74.46.62.79,1.59,1.39,1.79,6.54,2.26,13.13,4.39,19.7,6.56l-.3,1.47,6.2-4.79,6,4,1.13,1,2,2.76-6.85,5.34a19.86,19.86,0,0,1-4.6,16.18C539.38,121.16,537.49,120.83,536.18,121Z"/><path class="cls-3" d="M400.34,237.23l-40.07,1c1.64-.66,3.25-1.82,4.91-1.9,10.34-.51,20.69-.63,31-1.29a6.75,6.75,0,0,0,4.9-3.43c2.08-5.41,3.45-11.09,5.35-17.56L356.58,234.6c.6,1.3,1.15,2.45,1.69,3.6l-16.07,0c6.91-3,13.81-6,20.73-9q23-9.81,46.07-19.56a31.1,31.1,0,0,1,3.33-1Q406.35,223,400.34,237.23Z"/><path class="cls-3" d="M380.23,92.14c3.51-1.65,7-3.38,10.55-4.91,2.87-1.24,5.83-2.25,8.76-3.36,1.23,2.76,2.47,5.53,3.71,8.29h-3c-.41-1.77-.82-3.55-1.48-6.44-2.07,3.84-1.94,5.73,1.47,6.45l3.11.77,5.79,9.36v-.13c.34,1,.69,2,1,3.06l0,0,1,4c.72,2.61,1.45,5.21,2.17,7.81l4.53,21-9.6,0c.1-.31.11-.81.32-.91,2.1-1.05,6-2,6-3,.11-3.86.08-8.65-2.05-11.42-3.47-4.5-2.12-9.83-4.41-14.32-1.82-3.56-3.3-7.29-4.48-9.92-3.07-2.45-5.81-4.22-8-6.49s-4.14-3.11-7.33-1.53C386,91.62,383,91.61,380.23,92.14Z"/><path class="cls-3" d="M251.46,320.31c-.44.88-.88,1.77-1.31,2.65-21.37-.29-41.42-6-60.66-14.91-4.91-2.27-9.54-5.17-14.29-7.79l3.05-1.93c6.11,3.51,11.9,7.92,18.42,10.33,9.94,3.66,20.57,5.41,30.55,9C235.25,320.48,243.24,320.7,251.46,320.31Z"/><path class="cls-3" d="M116.45,239.36l33.77-9.07c-1.69,1.3-3.2,3.17-5.11,3.79-6.77,2.2-13.67,4-20.55,5.88-3.29.89-4,2.34-2,5.33,2.41,3.48,4.42,7.23,6.74,10.77.31.46,1.4.42,2.13.58,1.53.35,3.07.68,3.26.72l3.5,10.84-1.76,0Z"/><path class="cls-4" d="M96.44,163.11q1-13.41,2-26.83c6.37-2.09,13-3.63,19.05-6.4,7.45-3.4,14.43-7.83,21.61-11.82,4.12,1,7.91-.79,12.69,2.45,7.32,4.95,18.95-4.54,16.9-13.26-1-4.11-1.29-7,1.43-10.15h0l12.37-3.43c.14,0,.26-.21.35-.34,3.24-4.66,7.77-6.76,13.33-7.52,1.27-.18,2.21-2.82,3.26-4.35.59-.86,1-2.5,1.64-2.56,5.92-.6,7.09-5,8.09-9.62l2-.12L214.17,67c10.76-5.81,21.16-12.46,32.35-17.24,22.8-9.73,46.06-18.39,69.07-27.63,4-1.62,7.79-3.93,11.68-5.93L335.32,20c.48.79.78,1.86,1.48,2.32,3,2,6.15,3.81,9.2,5.75,7,4.42,14.18,8.73,11.29,19l0,.12a17.13,17.13,0,0,0-3.46.33c-26.9,8-53.6,16.91-78.7,29.5-22.4,11.23-43.93,24.2-65.66,36.73-26,15-51.28,31.43-79.79,41.65C118.87,159.27,108.24,163.71,96.44,163.11Z"/><path class="cls-4" d="M166.06,294.36l.2-1.15,0,0c10.5-2.9,21-5.77,31.48-8.69,13.41-3.74,26.83-7.42,40.19-11.33,9.69-2.83,19.36-5.77,28.91-9,23.21-7.94,46.34-16.1,69.5-24.19,1.38-.49,2.71-1.14,4.06-1.71l1.91-.15-.07,0,16.07,0h2l40.07-1a87.69,87.69,0,0,1-18.82,28l-6.23,1c-15.13,2.63-30.18,6.22-45.42,7.62-16.33,1.51-32.88.47-49.27,1.47-12.67.77-25.53,1.8-37.81,4.76-21.71,5.24-43,12-64.54,18.18l-3.05,1.93Z"/><path class="cls-4" d="M348.44,295.37c-10.66,8.5-22.95,14-35.62,18.54-20.24,7.3-41.11,10.66-62.67,9l1.3-2.65c3.14-1,6.43-1.59,9.38-2.94a227.59,227.59,0,0,1,47.88-16.13c12.76-2.67,25.66-4.64,38.5-6.92Z"/><path class="cls-4" d="M349.27,94.15a60.06,60.06,0,0,1,6.13-4c12.29-6.1,24.63-12.07,37-18.08l7.19,11.79c-2.93,1.11-5.89,2.12-8.76,3.36-3.56,1.53-7,3.26-10.55,4.91l0,0-3,1q-15.72,9.48-31.47,19c-1.39.83-2.88,1.48-4.32,2.22q3.38-9.63,6.76-19.27l0,.07C348.57,94.83,348.92,94.49,349.27,94.15Z"/><path class="cls-4" d="M385.19,62.22l-32,15.88q1.79-13,3.56-26c.22-1.63.32-3.28.48-4.92l0-.12,10.22-4.24Z"/><path class="cls-4" d="M367.51,42.84l-10.22,4.24c2.89-10.3-4.32-14.61-11.29-19-3.05-1.94-6.2-3.74-9.2-5.75-.7-.46-1-1.53-1.48-2.32C347.35,25.77,357.87,33.68,367.51,42.84Z"/><path class="cls-1" d="M542.28,91.2,536.08,96l.3-1.47c-6.57-2.17-13.16-4.3-19.7-6.56-.6-.2-.93-1.17-1.39-1.79,8.61,1.39,17.22,2.76,25.82,4.19C541.54,90.43,541.89,90.91,542.28,91.2Z"/><path class="cls-3" d="M375.29,266.3l6.23-1c-4,4.56-7.76,9.43-12.16,13.6-4.87,4.62-10.35,8.6-15.56,12.85-.18-.17-.35-.33-.53-.48,5.32-5.05,10.49-10.26,16-15.07C372.43,273.42,376,271.28,375.29,266.3Z"/><path class="cls-3" d="M348.44,295.37l-1.23-1.05c-.22-5.42,3.5-3.13,6.06-3.09.18.15.35.31.53.48Z"/><path class="cls-3" d="M400.28,92.16h3a1.12,1.12,0,0,1,.13.78l-3.11-.77Z"/><path class="cls-5" d="M549.42,96.14l-1.13-1Z"/><path class="cls-6" d="M342.27,238.14l-1.91.15Z"/><path class="cls-7" d="M166.26,293.21l-.39-.2.35.24Z"/><path class="cls-3" d="M138.22,268.2l-3.5-10.84c-.19,0-1.73-.37-3.26-.72-.73-.16-1.82-.12-2.13-.58-2.32-3.54-4.33-7.29-6.74-10.77-2.08-3-1.32-4.44,2-5.33,6.88-1.87,13.78-3.68,20.55-5.88,1.91-.62,3.42-2.49,5.11-3.79l3.07-1c3.88,1.08,13.61-2.17,15.89-5.32,19.48-7.38,39.51-13,60.26-14.58,15.16-1.18,30.49-.28,45.74-.3l30,3.15a44.68,44.68,0,0,1-6.07,3.46c-9.2,3.54-18.42,7-27.73,10.27-8.42,2.94-17,5.52-25.45,8.3-9.68,3.19-19.31,6.48-29,9.63-15.9,5.15-31.8,10.33-47.76,15.29C158.93,262.38,148.55,265.21,138.22,268.2Z"/><path class="cls-4" d="M305.21,212.24l-30-3.15,10.23-12.57,10.83-13.3c6.25-1.46,12.55-2.73,18.74-4.41,11.91-3.25,21.93-10.1,31.5-17.53a114.22,114.22,0,0,1,47-21.57c4.83-1,9.85-1.12,14.78-1.65l9.6,0q.72,12.47,1.43,24.94c-5.23,3-10.32,6.24-15.73,8.84q-16.44,7.89-33.19,15.17c-7.43,3.25-15.05,6-22.57,9.08-11.53,4.66-23,9.42-34.58,14A65.65,65.65,0,0,1,305.21,212.24Z"/><path class="cls-2" d="M416.36,116.49l-3,.56c-.72-2.6-1.45-5.2-2.17-7.81a3.68,3.68,0,0,1,.86-.19Z"/><path class="cls-8" d="M412.06,109.05a3.68,3.68,0,0,0-.86.19c-.34-1.35-.67-2.7-1-4l2.07,2C412.19,107.81,412.13,108.43,412.06,109.05Z"/><path class="cls-9" d="M377.27,93.17l3-1Z"/><path class="cls-4" d="M170.17,97.09c1.38-1.89,2.76-3.79,4.15-5.68,3.69-1.32,7.93-1.89,11-4.1,7.88-5.71,15.23-12.13,22.79-18.27l1.12.23c-1,4.62-2.17,9-8.09,9.62-.62.06-1.05,1.7-1.64,2.56-1,1.53-2,4.17-3.26,4.35-5.56.76-10.09,2.86-13.33,7.52-.09.13-.21.3-.35.34Z"/><path class="cls-4" d="M161.67,100.31l8.5-3.21c-2.72,3.1-2.39,6-1.43,10.15,2,8.72-9.58,18.21-16.9,13.26-4.78-3.24-8.57-1.5-12.69-2.45l8.79-6.8c2.85,8.23,10.42,10.39,16.11,4.58Q171.25,108.49,161.67,100.31Z"/><path class="cls-10" d="M211.24,69.15,214.17,67Z"/><path class="cls-3" d="M353.27,291.23c-2.56,0-6.28-2.33-6.06,3.09-12.84,2.28-25.74,4.25-38.5,6.92a227.59,227.59,0,0,0-47.88,16.13c-2.95,1.35-6.24,2-9.38,2.94-8.21.39-16.2.17-24.23-2.69-10-3.55-20.61-5.3-30.55-9-6.52-2.41-12.31-6.82-18.42-10.33,21.49-6.15,42.83-12.94,64.54-18.18,12.28-3,25.14-4,37.81-4.76,16.39-1,32.94,0,49.27-1.47,15.24-1.4,30.29-5,45.42-7.62.74,5-2.86,7.12-6,9.86C363.76,281,358.59,286.18,353.27,291.23Z"/><path class="cls-3" d="M358.27,238.2c-.54-1.15-1.09-2.3-1.69-3.6L406.45,214c-1.9,6.47-3.27,12.15-5.35,17.56a6.75,6.75,0,0,1-4.9,3.43c-10.33.66-20.68.78-31,1.29-1.66.08-3.27,1.24-4.91,1.9Z"/><path class="cls-11" d="M349.27,94.15c-.35.34-.7.68-1.06,1C348.57,94.83,348.92,94.49,349.27,94.15Z"/><path class="cls-12" d="M208.09,69c-7.56,6.14-14.91,12.56-22.79,18.27-3.05,2.21-7.29,2.78-11,4.1-6.55-2.14-7.53-7.46-7.59-13.3-.07-8,4-14.43,7.83-20.94a72.63,72.63,0,0,1,29.68-22.74c5.64-1.17,11.16-1.65,15.71,3,2.72,4.81,2.36,9.65-.43,14.18C215.88,57.5,211.91,63.23,208.09,69Z"/><path class="cls-3" d="M169.18,224c-2.28,3.15-12,6.4-15.89,5.32Z"/><path class="cls-13" d="M161.67,100.31q9.59,8.19,2.38,15.53c-5.69,5.81-13.26,3.65-16.11-4.58C148.66,102.51,151.9,99.93,161.67,100.31Z"/><path class="cls-8" d="M410.22,105.23c-.35-1-.7-2-1-3.06C409.52,103.19,409.87,104.21,410.22,105.23Z"/><path class="cls-3" d="M400.27,92.17c-3.41-.72-3.54-2.61-1.47-6.45.66,2.89,1.07,4.67,1.48,6.44Z"/></g></g></svg>