<svg xmlns="http://www.w3.org/2000/svg" viewBox="0 0 411.28 411.28"><defs><style>.cls-1{fill:#b0b2b0;}.cls-2{fill:#253656;}.cls-3{fill:#627d9c;}.cls-4{fill:#fdcf42;}.cls-5{fill:#f5921e;}.cls-6{fill:#fddf8a;}</style></defs><g id="Layer_2" data-name="Layer 2"><g id="Layer_1-2" data-name="Layer 1"><path class="cls-1" d="M411.28,185.72v13.49c-4.26.21-8.53.62-12.79.59-11-.08-22-.09-33-.64s-22-1-32.8-2.75c-18.84-3-37.69-6.29-56.24-10.72-29.5-7-58.79-15-88.11-22.82-17.41-4.64-34.9-8.37-53.07-7.33-4.78.27-9.55.8-14.33,1.21a190.33,190.33,0,0,1,18.45-46.82c2.17-3.88,4.28-7.8,6.42-11.7l0,0,.67-.54.51-.27c.53-.06,1.06-.09,1.58-.19a178.42,178.42,0,0,1,55.14-2.06c17.49,2.12,34.28,7.11,50.71,13.37,13.68,5.21,27.21,10.93,41.16,15.29,8.46,2.65,17.54,3.71,26.43,4.37,6.18.45,12.51-1,18.77-1.61A304.58,304.58,0,0,0,391,116.76c.34.66.72,1.3,1,2a204.55,204.55,0,0,1,18.07,64.93C410.2,184.38,410.88,185,411.28,185.72Z"/><path class="cls-2" d="M120.92,156.75c4.78-.41,9.55-.94,14.33-1.21,18.17-1,35.66,2.69,53.07,7.33,29.32,7.8,58.61,15.78,88.11,22.82,18.55,4.43,37.4,7.7,56.24,10.72,10.81,1.73,21.85,2.21,32.8,2.75s22,.56,33,.64c4.26,0,8.53-.38,12.79-.59v26.35c-.39.6-1,1.16-1.11,1.79-.57,3.7-.89,7.43-1.5,11.12-2.14,13-5.15,25.72-10.06,38-1.26-.61-2.49-1.27-3.76-1.83-16.59-7.15-33.27-14.1-49.76-21.47-20.21-9-40.25-18.44-60.42-27.55A515.49,515.49,0,0,0,216.91,200a276.16,276.16,0,0,0-71.61-10.91c-9.88-.22-19.78,1.12-29.68,1.76l5.07-34Z"/><path class="cls-2" d="M32.81,94.48a186.8,186.8,0,0,1,32-38.7q48.2-45,113.62-54c1.91-.26,3.83-.39,5.72-.73.58-.1,1.08-.71,1.61-1.09H226.2A10.25,10.25,0,0,0,229,1.24a206.15,206.15,0,0,1,41.5,9.17,4.23,4.23,0,0,1,.82.47c-.7.24-1.4.53-2.12.7a195.53,195.53,0,0,0-50.14,19,177.81,177.81,0,0,0-34.63,24l-1.24.65a9.48,9.48,0,0,0-1.6.07A548,548,0,0,0,94.73,80.2C74.61,87.89,53.66,90.66,32.81,94.48Z"/><path class="cls-1" d="M0,185.72a7.26,7.26,0,0,0,1.15-2.1c.59-3.57,1.05-7.17,1.56-10.75.63-.4,1.28-.77,1.89-1.21,15.23-10.85,30.18-22.13,45.76-32.46,22-14.59,45.43-26.56,70.63-34.71,8.09-2.62,16.52-4.2,24.8-6.26-2.14,3.9-4.25,7.82-6.42,11.7a190.33,190.33,0,0,0-18.45,46.82l-.23.14c-11.17,2.75-22.58,4.81-33.48,8.4-23.12,7.6-44.55,19-65.8,30.77C14.32,200,7.14,203.74,0,207.57Z"/><path class="cls-2" d="M185.08,411.28c-.71-.41-1.39-1.12-2.13-1.2A203.7,203.7,0,0,1,79.76,368.29c-.76-.58-1.43-1.27-2.14-1.9,5.74-.44,11.48-1.27,17.22-1.26q31.59.06,63.18.63c5.86.1,11.71.79,17.54,1.4,8.58.9,17.14,2,25.71,3l19.08,11.57.75.62v0l1.28.68h0a18.87,18.87,0,0,0,2.3,2.09q15.3,10,30.66,20c-9,1.64-18,3.27-26.92,5a13.91,13.91,0,0,0-2.84,1.24Z"/><path class="cls-3" d="M5.76,253.2c-1.5-8.32-3-16.64-4.54-24.95A12,12,0,0,0,0,225.56V214c2.2-.34,4.43-.56,6.61-1,28.51-6.19,57-12.52,85.54-18.57,7.57-1.6,15.33-2.34,23-3.48-.49,15.24-.26,30.46,1.85,45.6-1-.24-2.08-.44-3.1-.72-8.24-2.23-16.4-4.79-24.71-6.65-13.42-3-27.19-4.52-40.37-.09-9.2,3.09-17.78,8.21-26.33,13C16.64,245.25,11.31,249.44,5.76,253.2Z"/><path class="cls-2" d="M115.15,190.9c-7.67,1.14-15.43,1.88-23,3.48-28.55,6.05-57,12.38-85.54,18.57-2.18.48-4.41.7-6.61,1v-6.42c7.14-3.83,14.32-7.6,21.41-11.51,21.25-11.74,42.68-23.17,65.8-30.77,10.9-3.59,22.31-5.65,33.48-8.4l-5.07,34Z"/><path class="cls-3" d="M183.18,55.27l1.24-.65A476.16,476.16,0,0,1,243,47.06c9.66-.63,19.4-.42,29.09-.12,11.72.37,23.44,1.05,35.13,2,8.92.69,17.78,2,26.68,2.91,2.64.26,5.34,0,8,.06A174.71,174.71,0,0,1,375.2,89.38c5.78,8.79,10.58,18.23,15.83,27.38a304.58,304.58,0,0,1-50.23,9.88c-6.26.65-12.59,2.06-18.77,1.61-8.89-.66-18-1.72-26.43-4.37-14-4.36-27.48-10.08-41.16-15.29-16.43-6.26-33.22-11.25-50.71-13.37a178.42,178.42,0,0,0-55.14,2.06c-.52.1-1.05.13-1.58.19,7.09-9.21,13.92-18.64,21.37-27.55C172.81,64.62,178.22,60.13,183.18,55.27Z"/><path class="cls-3" d="M183.18,55.27c-5,4.86-10.37,9.35-14.8,14.65C160.93,78.83,154.1,88.26,147,97.47l-.51.27-.67.54,0,0c-8.28,2.06-16.71,3.64-24.8,6.26-25.2,8.15-48.63,20.12-70.63,34.71C34.78,149.53,19.83,160.81,4.6,171.66c-.61.44-1.26.81-1.89,1.21a190.85,190.85,0,0,1,18.93-59c3.37-6.66,7.43-13,11.17-19.43,20.85-3.82,41.8-6.59,61.92-14.28a548,548,0,0,1,86.85-24.86A9.48,9.48,0,0,1,183.18,55.27Z"/><path class="cls-4" d="M145.83,98.28l.67-.54Z"/><path class="cls-3" d="M115.15,190.9l.47-.06c9.9-.64,19.8-2,29.68-1.76A276.16,276.16,0,0,1,216.91,200a515.49,515.49,0,0,1,67.76,25.59c20.17,9.11,40.21,18.54,60.42,27.55,16.49,7.37,33.17,14.32,49.76,21.47,1.27.56,2.5,1.22,3.76,1.83Q395,285,391.36,293.67c-6.87.86-13.71,2.12-20.61,2.48-8.39.43-16.83.35-25.24,0a248.91,248.91,0,0,1-26.77-1.94c-15.91-2.34-31.85-4.82-47.54-8.29-28.65-6.33-56.46-15.62-84.11-25.33Q164.55,252.71,142,245c-8.09-2.75-16.28-5.22-24.43-7.81l-.53-.64C114.89,221.36,114.66,206.14,115.15,190.9Z"/><path class="cls-3" d="M117.53,237.14c8.15,2.59,16.34,5.06,24.43,7.81q22.6,7.71,45.13,15.68c27.65,9.71,55.46,19,84.11,25.33,15.69,3.47,31.63,6,47.54,8.29a248.91,248.91,0,0,0,26.77,1.94c8.41.31,16.85.39,25.24,0,6.9-.36,13.74-1.62,20.61-2.48-4.48,8.11-8.57,16.45-13.52,24.26A180,180,0,0,1,345,356.64c-6.1.95-12.27,1.56-18.28,2.91-13.92,3.11-27.69,3.14-41.42-.82-2.35-.68-4.71-1.33-7.06-2l-.23.61,35.61,23.15a175.5,175.5,0,0,1-42.42,19.88c-.49-.19-1-.41-1.48-.57-11.92-3.92-23.86-7.73-35.73-11.79-4-1.37-7.78-3.34-11.66-5h0l-1.28-.68v0l-.75-.62-19.08-11.57a10.89,10.89,0,0,0-1.16-1.1,189.7,189.7,0,0,1-40.06-37.19c-5.12-6.41-9.56-13.36-14.3-20.06,8.5.61,17.06.77,25.49,1.92a199.92,199.92,0,0,1,49.84,14c5.32,2.21,10.67,4.34,16,6.5l.31.08-.21-.18a8.36,8.36,0,0,0-1.13-1.1c-16.37-10.86-32.57-22-49.18-32.48-18.5-11.67-38.17-21-59.59-26.11l-.64-.06c-.56-1.94-1.19-3.87-1.66-5.83C122.47,258.08,120,247.61,117.53,237.14Zm121.53,98.3-.23-.11.22.13c.2.14.39.28,0,0C239.52,335.59,239.29,335.52,239.06,335.44Z"/><path class="cls-1" d="M313.65,380.5,278,357.35l.23-.61c2.35.66,4.71,1.31,7.06,2,13.73,4,27.5,3.93,41.42.82,6-1.35,12.18-2,18.28-2.91A166.71,166.71,0,0,1,313.65,380.5Z"/><path class="cls-3" d="M222.36,383c3.88,1.7,7.67,3.67,11.66,5,11.87,4.06,23.81,7.87,35.73,11.79.5.16,1,.38,1.48.57l-15.91,4.7q-15.34-10-30.66-20A18.87,18.87,0,0,1,222.36,383Z"/><path class="cls-2" d="M341.94,51.87c-2.67,0-5.37.2-8-.06-8.9-.9-17.76-2.22-26.68-2.91-11.69-.91-23.41-1.59-35.13-2-9.69-.3-19.43-.51-29.09.12a476.16,476.16,0,0,0-58.61,7.56,177.81,177.81,0,0,1,34.63-24,195.53,195.53,0,0,1,50.14-19c.72-.17,1.42-.46,2.12-.7,11.24,4.88,22.74,9.23,33.64,14.77A160.33,160.33,0,0,1,341.94,51.87Z"/><path class="cls-3" d="M145.75,311.79c4.74,6.7,9.18,13.65,14.3,20.06A189.7,189.7,0,0,0,200.11,369a10.89,10.89,0,0,1,1.16,1.1c-8.57-1-17.13-2.08-25.71-3-5.83-.61-11.68-1.3-17.54-1.4q-31.59-.54-63.18-.63c-5.74,0-11.48.82-17.22,1.26a190.81,190.81,0,0,1-36.77-37.68c-2.23-3-4.21-6.14-6.31-9.22C41.35,319,48.17,318.61,55,318c15.71-1.4,31.39-3.16,47.12-4.29,14.36-1,28.77-1.44,43.16-2.12A3,3,0,0,0,145.75,311.79Z"/><path class="cls-3" d="M117.53,237.14c2.48,10.47,4.94,20.94,7.45,31.4.47,2,1.1,3.89,1.66,5.83A116.82,116.82,0,0,0,75,272.88c-16.5,3.22-31.89,9.53-46.8,17.08-2.71,1.38-5.15,3.26-7.72,4.91A175,175,0,0,1,5.76,253.2c5.55-3.76,10.88-7.95,16.73-11.19,8.55-4.76,17.13-9.88,26.33-13,13.18-4.43,26.95-2.91,40.37.09,8.31,1.86,16.47,4.42,24.71,6.65,1,.28,2.07.48,3.1.72Z"/><path class="cls-1" d="M20.44,294.87c2.57-1.65,5-3.53,7.72-4.91,14.91-7.55,30.3-13.86,46.8-17.08a116.82,116.82,0,0,1,51.68,1.49l.64.06a24.56,24.56,0,0,0,1.18,3.64q8.35,16.79,16.79,33.53c-14.39.68-28.8,1.09-43.16,2.12C86.36,314.85,70.68,316.61,55,318c-6.8.6-13.62,1-20.43,1.48Z"/><path class="cls-5" d="M221.09,382.31l1.28.68Z"/><path class="cls-5" d="M220.35,381.71l.75.62Z"/><path class="cls-1" d="M145.25,311.6q-8.4-16.75-16.79-33.53a24.56,24.56,0,0,1-1.18-3.64c21.42,5.15,41.09,14.44,59.59,26.11C203.48,311,219.68,322.16,236.05,333a8.36,8.36,0,0,1,1.13,1.1l-.1.11c-5.33-2.17-10.68-4.3-16-6.51a199.92,199.92,0,0,0-49.84-14c-8.43-1.15-17-1.31-25.49-1.92A3,3,0,0,1,145.25,311.6Z"/><path class="cls-6" d="M239.06,335.44c.23.08.46.15-.05,0,.43.31.24.17,0,0Z"/><path class="cls-6" d="M237.18,334.12l.21.18-.31-.08Z"/><path class="cls-6" d="M239.05,335.46l-.22-.13.23.11Z"/></g></g></svg>