<svg xmlns="http://www.w3.org/2000/svg" viewBox="0 0 197.07 255.11"><defs><style>.cls-1{fill:#365174;}.cls-2{fill:#23283a;}.cls-3{fill:#7aa0bf;}.cls-4{fill:#99b5c4;}.cls-5{fill:#5a7baa;}.cls-6{fill:#4d6d97;}.cls-7{fill:#46658e;}.cls-8{fill:#6286b1;}.cls-9{fill:#7094ba;}.cls-10{fill:#2e4564;}.cls-11{fill:#2a3d5a;}.cls-12{fill:#53749e;}.cls-13{fill:#426089;}.cls-14{fill:#c2ccca;}.cls-15{fill:#263854;}.cls-16{fill:#2b3f5f;}.cls-17{fill:#a0bac7;}.cls-18{fill:#222537;}.cls-19{fill:#8daec2;}.cls-20{fill:#3c597e;}.cls-21{fill:#20202c;}</style></defs><g id="Layer_2" data-name="Layer 2"><g id="Layer_1-2" data-name="Layer 1"><path class="cls-1" d="M99,220.2c.38-5.78,1.07-11.57,1-17.35,0-4.11.8-6.37,5.46-5.81a8.62,8.62,0,0,0,5.4-1.41l-10-3.73.51-1.61L117.27,195c-4.54,1.05-9.14,1.94-13.6,3.3a4.63,4.63,0,0,0-2.45,3.39c-.32,4.14.07,8.34-.25,12.48C100.81,216.24,99.68,218.21,99,220.2Z"/><path class="cls-2" d="M96.07,220.2C92.48,232.33,85,241.68,73.74,246.89c-7,3.23-15.13,3.89-22.75,5.7l-.34-1.19,5.11-1.94-21.63-.33,3.38-2.71-.3-.73-7.45,1.44-1.57-1,18.4-5.85L46.21,239l-20.58,5.14-2.42-1.09,14-4.9a159.54,159.54,0,0,0,50.81-26c3.24-2.44,6.67-4.61,10-6.91-.37,3.16-.73,6.32-1.1,9.48l-5.53,4.74-1.72,1.26-3,2-1.58,1.77.55.56c.63-.41,1.26-.82,1.88-1.24l3-2.19,1.87-1.15Zm-28.26,16-.64-1L39.85,245.68A62.85,62.85,0,0,0,67.81,236.15Zm14-10.28.39,1a7.3,7.3,0,0,0,1.53-.69c.1-.06-.2-.7-.32-1.07Z"/><path class="cls-3" d="M98,205.21c-3.34,2.3-6.77,4.47-10,6.91a159.54,159.54,0,0,1-50.81,26L35,237.1,49,231l16.22-6.92.91-1.05,0,.05c8.13-5.23,16.33-10.37,24.37-15.74,3.48-2.32,6.66-5.12,7.44-9.64Q97.94,201.47,98,205.21Z"/><path class="cls-4" d="M20,225.21c6.47-1.75,13-3.4,19.42-5.31,4.39-1.3,8.67-3,13.13-4.08-4.26,4.45-27.82,12.58-40.44,14.44L10,227l6.09-.06,4-1.78Z"/><path class="cls-5" d="M56,193c-5.45,2.72-10.75,5.82-16.38,8.08-9.4,3.77-19,7.07-28.56,10.41-1.66.57-3.59.36-5.4.52a3,3,0,0,0,0-.9Q28,202.7,50.41,194.31A41.92,41.92,0,0,1,56,193Z"/><path class="cls-6" d="M16.11,226.91,10,227l-1.35-2.86c7.07-1.59,14.14-3.15,21.2-4.78,1.93-.44,3.82-1.07,5.73-1.61l.67.75L20,225.21l.08-.08Z"/><path class="cls-7" d="M25.63,244.14,46.21,239l.38,1.28-18.4,5.85Z"/><path class="cls-8" d="M35,237.1l2.16,1.06q-7,2.43-14,4.89l-2.55-3Z"/><path class="cls-6" d="M96.07,220.2l-3.75.21-.93-1,5.53-4.74C96.64,216.52,96.35,218.36,96.07,220.2Z"/><path class="cls-9" d="M29.76,247.13l7.45-1.44.3.73-3.38,2.71Z"/><path class="cls-10" d="M65.17,224.12,49,231l-4.3-1.67c6.61-2.71,13-5.36,19.4-7.84.4-.16,1.32,1,2,1.59l0-.05Z"/><path class="cls-11" d="M60.92,199q9.56-5,19.09-10c-.73,5.72-6.76,5.52-9.85,8.66-1.38,1.41-3.72,2.11-5.75,2.56C63.39,200.49,62.09,199.46,60.92,199Z"/><path class="cls-12" d="M59.5,208.61l-23.23,9.86-.67-.75,23.13-10C59,208,59.24,208.32,59.5,208.61Z"/><path class="cls-13" d="M74.27,209.38l-17.77,11-1.14-2,18.53-9.42Z"/><path class="cls-12" d="M84.27,195.35,66.66,205.56,65.81,204q8.82-4.81,17.66-9.61Z"/><path class="cls-12" d="M89.36,190.4l2.87-2.17.72.94-2.76,2.09Z"/><path class="cls-12" d="M86.39,192.43l3-2,.82.86-2.91,2.09C87,193,86.68,192.74,86.39,192.43Z"/><path class="cls-12" d="M87.28,193.35l-3,2-.8-1,2.92-2C86.68,192.74,87,193,87.28,193.35Z"/><path class="cls-13" d="M76.27,208.38l-2,1-.37-.47,2-1Z"/><path class="cls-13" d="M78.28,207.39l-2,1-.39-.47,2-1.06Z"/><path class="cls-12" d="M58.73,207.75l1.86-.7.28.58-1.37,1C59.24,208.32,59,208,58.73,207.75Z"/><path class="cls-13" d="M77.83,206.84l1.9-1.09.43.44-1.89,1.19Z"/><path class="cls-12" d="M64.29,206.32,62.4,207l-.25-.56,1.42-1Z"/><path class="cls-13" d="M79.73,205.75l.43.44Z"/><path class="cls-12" d="M63.57,205.46l1.21-.13-.49,1Z"/><path class="cls-9" d="M67.81,236.15a62.85,62.85,0,0,1-28,9.53l27.32-10.57Z"/><path class="cls-6" d="M81.82,225.87l1.6-.71c.12.37.42,1,.32,1.07a7.3,7.3,0,0,1-1.53.69Z"/><path class="cls-6" d="M90.45,221.56l-3,2.19c-.28-.36-.57-.72-.85-1.09l3-2Z"/><path class="cls-6" d="M87.5,223.75c-.62.42-1.25.83-1.88,1.24l-.55-.56,1.58-1.77C86.93,223,87.22,223.39,87.5,223.75Z"/><path class="cls-6" d="M89.67,220.69l1.72-1.26.93,1-1.87,1.15Z"/><path class="cls-14" d="M116.19,5.25c3.23.66,3.23.66,3.57-2.73a95,95,0,0,1,39.32,18.33h-5l-11-7L131,8.72l-.86,1.89,10.94,4.62,12.78,7q4.09,2.52,8.18,5.05l1.55.86A2.6,2.6,0,0,0,164,29c-.7,2.82-1.29,5.59,2.33,7l6.36,5.25-.64.84-4.55-1.16-12.41-5.58c-.2.46-.4.92-.59,1.39L165,42l7.75,3.1,5.15,3.13,3.16.67,7,7.93L190,61.22l.27,1.56c.13.64.27,1.27.68,3.31-3-1.92-7.12-3.72-6.93-4.54,1.8-7.86-6-4.54-7.51-8.19l-1,1,5.09,4.45-8.94-1c4.28,3.3,8.48,6.41,13.12,7.32,7.09,1.38,8.74,6.25,10.14,11.88l0,0v4.81l-10.42-4.63-11.8,1,16.78,10.31-3.43-7.62,10,5c.67,4.19-2.15,3.27-5.13,3,7.94,3.59,5.84,10.28,5.89,16.19,0,.41-1.46.83-2.24,1.25L192,102.74l-1,.83c.94,1.21,1.88,2.43,2.83,3.64,3.92,4.22,1.74,9,1.13,13.55-1.34.58.32,4.94-3.31,2.63l-13.3-11-1.53,2.07,14,9.83c.61,1.56,1.21,3.13,1.82,4.69l-.44,1.14,0,.08c-2.74-1.39-5.55-2.64-8.19-4.19s-5.4-3.57-8.09-5.37l-1.09,1.65c4.48,3,9,5.87,13.38,9,1.13.81,1.67,2.44,2.48,3.7l-.66,1.72c-.53,1.14-1.05,2.28-1.58,3.41l-.23.27c-3.6-2-7.07-4.38-10.84-6-3.2-1.39-6.75-2-11.27-3.22,1,1.85,1.1,2.38,1.24,2.38,7.29-.15,11.29,7.35,18.3,7.92.52.05.95,1.15,1.43,1.76-5.06,7.35-9.49,15.25-15.36,21.88-5.47,6.19-12.22,11.37-18.93,16.29-2.49,1.81-6.46,1.61-10,2.37l3.53,2.54-7.72,1.11c-1.06,3.44-12.41,7.64-21.3,7.61l-15.93-4.74-.51,1.61,10,3.73a8.62,8.62,0,0,1-5.4,1.41c-4.66-.56-5.49,1.7-5.46,5.81,0,5.78-.65,11.57-1,17.35-6,18-18.06,29.8-36.66,33.74-32.42,6.87-59-17.49-59.54-45.47-.31-15.31,4.17-28,15-38.62a65.62,65.62,0,0,1,5.28-4.36L6.13,134.27c.09-.86.19-1.72.29-2.58l10.21,5.5.81-1.53A49,49,0,0,1,13,133.14c-3.57-2.51-8.87-3-9.9-8.52-.34-1.45-.67-2.91-1-4.37a11.87,11.87,0,0,1,3.41.35c5,2.09,10,4.35,15,6.55l.54-1.26-20-10.23L0,99.23,14.47,101C10.12,97.49,5.22,96.91.06,97.65L1,85.34H14.62l.12-1.22a34,34,0,0,1-5.27-.79C7,82.57,3.4,85,2.05,80.86q2-8.73,4-17.46L29.16,66A8.6,8.6,0,0,0,27,64.5c-5.49-1.59-11-3-16.5-4.65-.88-.27-1.5-1.36-2.24-2.06C13.64,49.65,18.4,41,24.58,33.5c7.67-9.29,17.59-16.25,28.11-22.18A20.6,20.6,0,0,1,56.89,10L75.8,16.21c-.17-2-.3-3.51-.45-5.19L63.41,8.46c.09-.45.18-.89.26-1.33H69L87.07,9.85c.1-.64.21-1.28.31-1.92l-9.92-2.3c2.31-1.43,4.32-3.69,6.44-3.8a143.94,143.94,0,0,1,20.24.39C108.21,2.59,112.18,4.2,116.19,5.25Zm-1.61,93.12L112,97.05l-.39.67,2.15,1.6,2.87,1.73.51-.83ZM24.05,103l1.1,1.13a.94.94,0,0,1,.05.64c-3,4.3-1.74,8.44.8,12.29.58.88,2.44.93,3.71,1.36a8.39,8.39,0,0,0,.22-2.65c-1-3.69-2.07-7.34-3.13-11l0-1.62,2.18,0h0l0,2.14c2.87,5.45,5.23,11.27,8.74,16.27,4.29,6.09,9.49,11.61,18,11.56h7a38.73,38.73,0,0,1-3.93-3.2c-2.3-2.56-2.56-2.52-4,1.14-2.81-1.16-5.69-2.21-8.41-3.56-.72-.36-.95-1.7-1.4-2.59l2.91.27,4.28,2.75,5.46-4.06L57,119l5,6.6c.33-1,.65-2.14,1.08-3.25.32-.83.77-1.62,1.17-2.43l8.56,11.66c-2.14-9-6.32-15-12.61-19.45L59,112l.06,0,1.32-2.26c1.61,1,3.55,1.8,4.76,3.19,4.51,5.24,8.79,10.69,14,17.08-1.28-3.74-1.52-7.34-3.42-9.44-5.24-5.8-11.12-11-16.91-16.33a8.19,8.19,0,0,0-4.6-1.76c-4.72-.38-9.46-.44-14.2-.62.22-1.37.45-2.75.67-4.16-2.53-.18-4.57-.16-6.56-.49-3.87-.64-6.85.22-8.26,4.26l-1.68-.33-1.7-2-4.93-1.74L9,93.77l-.7,2.14,8.58,2.26L20,100.92l4.08,2ZM66.9,158.1l11.64,4.66c.22-.62.45-1.23.68-1.85L69,157.1l-3,0c-2.87-1.53-8.19-3.1-8.17-4.59.08-5.26-3.56-3.55-5.89-4.35l-12.5-6.29-.92,1.69L50,150c4.55,4.16,9.31,7.84,16,7C66.31,157.38,66.61,157.74,66.9,158.1Zm30.26-14.24L84.4,139.24l-.48,1.27L94.14,145l9.68,5.56.92-1.73ZM73,67l5.14,3.56,1-2-5.93-1.86L63.42,56.5C64.35,62.39,67.35,66.1,73,67Zm43,79.84-.2,0,.26,0c1.05,5,4.42,7.79,10.63,7.63Zm-51.23-3.64a14.06,14.06,0,0,0,14.6,4.32L67.13,143l-11.42-5.88-1.12,1.21,2.36,5.9C59.73,138.65,62.23,142.72,64.81,143.24Zm96.26,10c2.48,2.2,10.4,2.8,12.72.92.18-.14.08-.62.1-1-.08-1.24-.17-2.47-.26-3.71C163.82,150.17,163.82,150.17,161.07,153.26ZM177,86.05,176.7,86l.32,0q7.66,6.49,15.34,13c.09.07.53-.28,1.11-.62C189,92.73,184.14,87.93,177,86.05ZM41,60.69l17.28,6.23c-3.11-5.1-12.54-7.84-17.26-6.22l-3.33-.5c-.29-.72-.46-2-.88-2.08-5.56-1.19-11.15-2.24-16.75-3.23-.34-.06-.82.71-1.61,1.45l19.34,3.83ZM39.42,91.9,16.34,89.13l-.2,1.49c6.29,2.66,13,2.77,19.8,2.68l19.88,6.79,12.44,5.64c7,3.71,14.55,5.72,22,7.81.25-.73.5-1.45.76-2.18L70.15,104,58.87,99.16Zm7.83-4c-13.44-6.59-28-8.73-42.65-10.44L46.08,89.73l33,12.54.71-2ZM10,227l2.1,3.29L20.66,240l2.55,3,2.42,1.09,2.56,2,1.57,1,4.37,2,21.63.33-5.11,1.94.34,1.19c7.62-1.81,15.78-2.47,22.75-5.7C85,241.68,92.48,232.33,96.07,220.2c.28-1.84.57-3.68.85-5.52.37-3.15.73-6.31,1.1-9.47q-.09-3.74-.16-7.47l-5.79-15.6L90,179.84l-2-3.45L86,174.74,80.3,169,77.84,167l-8.66-3.86-3.61-2c-6.47-.56-13.07-2.21-19.39-1.47C26.28,162,8.72,178.72,5.21,198c-.28,1.5,1.28,3.33,2,5-4.07,1.34-2.1,5-1.51,8.22a3,3,0,0,1,0,.9l1.18,5.88c.39,1.71.77,3.43,1.16,5.14.22.35.43.71.66,1.06C9.12,225.07,9.57,226,10,227ZM129.26,108.2l-18.35-3.94a5.55,5.55,0,0,0,2.93,2.88q9.36,4,18.79,8c4.39,1.8,9.37,2.71,13.13,5.37,6.11,4.33,12.2,6.89,20,5.35l-40-15.7Zm39.1,6.39L130.14,96.48C132.72,102.15,162.23,116,168.36,114.59ZM50.33,80.5C34.68,72.82,12.22,68,6.6,70.38Zm78.41-47.66c-12.91-8.31-27.39-12.57-41.91-16.7-.21.54-.41,1.09-.62,1.64Zm9.81-5.29c-8.43-7.49-19.38-8.3-29.62-11.08C117.82,22.69,128.79,23.53,138.55,27.55Zm26.56,21.56.74-2-29.53-13.8-1.06,2.27C144.59,41.44,155.3,44.31,165.11,49.11ZM89.57,40.29c3.59,4.86,27.08,14.12,30.88,12.4C109.89,50.46,101.6,42.52,89.57,40.29Zm21-31.47c-.24.75-.47,1.5-.7,2.24l29.75,9.39.78-2.5ZM57.83,40c-10.11-6.87-20.44-8.77-28.92-5.43ZM156,91.85c-8-4.34-15-10.55-24.55-11.61C139.6,84.2,146.05,91.57,156,91.85ZM94.82,82c.25-.75.51-1.49.76-2.23L69.45,69.05l-1,2.51Zm9.61,90c7.89,6.63,26.09,11,29.86,8.73ZM63.28,84.75l-.69,1.63c9.09,5.49,19,8.91,29.24,11.75.18-.41.35-.82.52-1.24Zm17.19,32.68-.75,2c9.15,3.85,18.28,7.76,27.5,11.45,1,.4,2.53-.47,3.41-.66Zm23-80.64.56-2.17L80,27l-.77,2.53ZM170.8,83.4c-1-4.73-15.83-12.83-22.35-11.63ZM126.65,186.15l-24.22-3.69C106.13,186.92,119.4,189.29,126.65,186.15ZM149.84,161l1.31-1.62-19-14.24c-.49.63-1,1.27-1.45,1.91ZM82.42,53.53c.18-.54.36-1.07.55-1.6-4.3-2.5-8.47-5.28-13-7.39-2.35-1.11-5.47-2.4-7.33.33Zm61,12.44.67-1.62-19.34-9-.78,1.79C130.35,60.25,135.67,65.8,143.38,66ZM108.79,76.31c2.49,13.38,14.15,9.91,21.14,13.91a25.94,25.94,0,0,0-6.84-4c-4.14-1.78-9.68-1.35-11.17-7.32C111.73,78.18,110.49,77.69,108.79,76.31ZM99,166.92c-6.88,3.24-11.48-2.61-17.28-5.14,1.31,4.89,13.65,10.38,20.62,9.75ZM161.16,63.3c-.25.67-.51,1.35-.77,2l18.53,7.28,1-2.5ZM111,68.22,109.75,71l16.39,6.65.89-2.08ZM95.43,88.71l-20.21-6C80.17,88.08,88.94,90.91,95.43,88.71ZM14,115.89l-.92,1.73,20.33,11.8,1-1.85Zm87.62-4.46c.3-.74.59-1.48.88-2.22l-19.26-7.43-.75,1.9Zm38.52,64.34,1.14-2.63c-6.95,0-10.27-7.91-18-6.16ZM123.6,144l-1.47,2,13.76,11.38,1.28-1.5Zm-12-103.83c3.73,7.57,11.36,4.84,16.24,8.27l.84-1.86ZM100.54,84C104.17,89,112.22,92.2,116,90.71ZM39.86,48.24c0-.61.11-1.23.17-1.84L22.87,43.47l-.39,2.33Zm49.31,5.57c-.27.75-.55,1.51-.83,2.26l15.13,5.13.69-2Zm-35-32.17,18,3.49.22-1.45C66.87,22.18,61.6,18.77,54.2,21.64Zm112.51,86.94c.35-.63.7-1.26,1.06-1.89l-14.14-7-1,2ZM17,139.7c2.24,5.77,10.32,11.35,15.32,10.94ZM61.72,28.9l-.5,1.51c6.13,4.44,9.08,5.17,12.75,2.73Zm82,101c2.35,4.62,10.13,7.79,15.74,6.1Zm-10.19,6.44c0-.44,0-.89,0-1.33H117v1.33ZM49.6,136l.53-1.78L37.64,130C40.75,134.39,44.94,135.83,49.6,136Zm90.77-89.73-.7,2.17,11.41,3C147.35,47.72,144.27,45.89,140.37,46.25ZM80.56,122.17l-1,2,9.57,5c.32-.59.64-1.18,1-1.77Zm57.25,45.16,1.08-1.94-12.95-4.74-.62,1.62ZM70.33,54.1l-.27,1.37,12.25,2.92C79.32,53.4,74.77,53.93,70.33,54.1Zm33.08,63-.61,2.09,10.91,3.4c.18-.64.37-1.28.56-1.92ZM141.34,142l0,1.88,12.67-.93-.09-1.8Zm34.5-48.32L175.09,96l9.66,2.83c.21-.83.43-1.65.65-2.48Zm-81-89.28c-.17.69-.34,1.38-.5,2.07L104,8.3c.15-.75.29-1.5.43-2.25Zm6.47,61.36c.11-.48.22-1,.32-1.44-6.72-3.59-7.5-3.74-10.49-1.63ZM52.88,46.58c-.25.77-.49,1.54-.74,2.31l8.07,2.76c.24-.7.49-1.41.74-2.11ZM84.42,161.1l1.25-.53a22.11,22.11,0,0,1-1.62-3.32A34.43,34.43,0,0,1,83.3,153C78.92,154.89,78.92,154.92,84.42,161.1Zm26.41-63.68.84-1.68-6.8-2.84c-.28.7-.57,1.4-.86,2.11Zm2.59,49.37-.12-.76h0C113.32,146.28,113.36,146.54,113.42,146.79Zm-6-44.3.27.15.06-.17Z"/><path class="cls-1" d="M116.19,5.25c-4-1-8-2.66-12-3A143.94,143.94,0,0,0,83.9,1.83c-2.12.11-4.13,2.37-6.44,3.8l9.92,2.3c-.1.64-.21,1.28-.31,1.92L69,7.13l.13-.46c.66-1.08,1.12-2.9,2-3.14C86.29-.47,101.44-2.46,116.19,5.25ZM72.08,4.13l-.35,1.1,3.4.9.24-.77Z"/><path class="cls-1" d="M195,77.08c-1.4-5.63-3.05-10.5-10.14-11.88-4.64-.91-8.84-4-13.12-7.32l8.94,1-5.09-4.45,1-1c1.51,3.65,9.31.33,7.51,8.19-.19.82,3.92,2.62,6.93,4.54-.41-2-.55-2.67-.68-3.31Q192.62,69.92,195,77.08Z"/><path class="cls-10" d="M69.11,6.67,69,7.13H63.67c-.08.44-.17.88-.26,1.33L75.35,11c.15,1.68.28,3.18.45,5.19L56.89,10C60.31,6.48,64.25,4.89,69.11,6.67Z"/><path class="cls-15" d="M172.77,45.13,165,42l2.47-1.14L172,42.05l.64-.84L166.32,36c.77-.42,1.87-1.38,2.27-1.15,1.69,1,3.07,2.52,4.79,3.44.5.27,1.72-.8,2.62-1.26,1,1.36,2,2.71,3,4.07Q175.87,43.08,172.77,45.13Z"/><path class="cls-10" d="M187,143.23c-.48-.61-.91-1.71-1.43-1.76-7-.57-11-8.07-18.3-7.92-.14,0-.29-.53-1.24-2.38,4.52,1.25,8.07,1.83,11.27,3.22,3.77,1.65,7.24,4,10.84,6Z"/><path class="cls-11" d="M8.24,57.79c.74.7,1.36,1.79,2.24,2.06,5.47,1.64,11,3.06,16.5,4.65A8.6,8.6,0,0,1,29.16,66L6.05,63.4Z"/><path class="cls-16" d="M162,27.3l-8.17-5.05.27-1.39h5l12,11.11L164,29a2.6,2.6,0,0,1-.42-.83c0-.41.08-.81.11-1.22Z"/><path class="cls-17" d="M164,29l7.06,3L176,37c-.9.46-2.12,1.53-2.62,1.26-1.72-.92-3.1-2.45-4.79-3.44-.4-.23-1.5.73-2.27,1.15C162.7,34.58,163.29,31.81,164,29Z"/><path class="cls-1" d="M190.62,135c-.81-1.26-1.35-2.89-2.48-3.7-4.36-3.15-8.9-6-13.38-9l1.09-1.65c2.69,1.8,5.31,3.73,8.09,5.37s5.45,2.8,8.19,4.19Q191.38,132.61,190.62,135Z"/><path class="cls-6" d="M1.05,115.66l20,10.23-.54,1.26c-5-2.2-10-4.46-15-6.55a11.87,11.87,0,0,0-3.41-.35C1.72,118.73,1.38,117.19,1.05,115.66Z"/><path class="cls-13" d="M184.51,77.21l10.42,4.63V77L196.1,86l-10-5,0,.12a.76.76,0,0,0-.18-.9Z"/><path class="cls-6" d="M3.06,124.62c1,5.48,6.33,6,9.9,8.52a49,49,0,0,0,4.48,2.52l-.81,1.53-10.21-5.5c-.1.86-.2,1.72-.29,2.58Q4.58,129.45,3.06,124.62Z"/><path class="cls-6" d="M.06,97.65c5.16-.74,10.06-.16,14.41,3.39L0,99.23Z"/><path class="cls-1" d="M2.05,80.86C3.4,85,7,82.57,9.47,83.33a34,34,0,0,0,5.27.79l-.12,1.22H1C1.34,83.85,1.69,82.35,2.05,80.86Z"/><path class="cls-16" d="M172.77,45.13q3.1-2,6.22-4.07c.38,1.31.76,2.62,1.15,3.94l-2.22,3.26Z"/><path class="cls-10" d="M192.61,129c-.61-1.56-1.21-3.13-1.82-4.69l.86-.91c3.63,2.31,2-2,3.31-2.63l-1.8,8.33A5.3,5.3,0,0,0,192.61,129Z"/><path class="cls-15" d="M177.92,48.26,180.14,45c.31,1.31.62,2.62.94,3.93Z"/><path class="cls-1" d="M190,61.22l-1.95-4.36Z"/><path class="cls-10" d="M188.38,140.15c.53-1.13,1.05-2.27,1.58-3.41Z"/><path class="cls-1" d="M192.61,129a5.3,5.3,0,0,1,.55.1l-1,1Z"/><path class="cls-18" d="M69.18,163.16,77.84,167a24,24,0,0,1-3.24,3.81c-2.95,2.3-6.1,4.34-9.17,6.49l1,1.47L80.3,169,86,174.74c-9.64,5.49-19.29,10.95-28.9,16.49-.55.32-.78,1.2-1.16,1.83l.05,0a41.92,41.92,0,0,0-5.61,1.29Q28,202.65,5.65,211.13c-.58-3.24-2.55-6.88,1.52-8.22-.68-1.63-2.24-3.46-2-5,3.51-19.23,21.07-36,41-38.3,6.32-.74,12.92.91,19.39,1.47a36.43,36.43,0,0,1-4.8,3.49c-6.75,3.44-13.59,6.72-20.4,10l.74,1.49Z"/><path class="cls-2" d="M8.67,224.11,8,223.05c-.52-2.91,1.39-3.52,3.62-4.25,6.77-2.21,13.59-4.36,20.18-7.06,9.8-4,19.41-8.47,29.1-12.75,1.17.47,2.47,1.5,3.49,1.27,2-.45,4.37-1.15,5.75-2.56,3.09-3.14,9.12-2.94,9.85-8.66l12.06-6.9,5.79,15.6c-.78,4.52-4,7.32-7.44,9.64-8,5.37-16.24,10.51-24.37,15.74-.68-.56-1.6-1.75-2-1.59-6.43,2.48-12.79,5.13-19.4,7.84L49,231,35,237.1,20.65,240l-8.53-9.77c12.62-1.86,36.18-10,40.44-14.44-4.46,1.1-8.74,2.78-13.13,4.08C33,221.81,26.48,223.46,20,225.21l16.26-6.74,23.23-9.86,1.37-1-.28-.58-1.86.7-23.13,10c-1.91.54-3.8,1.17-5.73,1.61C22.81,221,15.74,222.52,8.67,224.11Zm54.9-18.65-1.42,1,.25.56,1.89-.67.49-1Zm16.16.29-1.9,1.09-2,1.06-2,1-18.53,9.42,1.14,2,17.76-11,2-1,2-1,1.89-1.19Zm7.55-12.4,2.91-2.09L93,189.17l-.72-.94-2.86,2.17-3,2-2.92,2q-8.84,4.8-17.66,9.61l.85,1.56,17.61-10.21Z"/><path class="cls-2" d="M6.86,217.91c-.39-2-.79-3.92-1.18-5.88,1.81-.16,3.74.05,5.4-.52,9.56-3.34,19.16-6.64,28.56-10.41,5.63-2.26,10.93-5.36,16.38-8.08l-.05,0c6.45-3.16,13-6.22,19.33-9.52,4.3-2.21,8.44-4.76,12.64-7.15l2,3.45c-5.44,3.48-10.61,7.53-16.4,10.28-6.82,3.26-13.09,7.38-21.29,8.4-6.67.83-12.79,5.92-18.94,9.75C25.52,213.13,15.77,214.84,6.86,217.91Z"/><path class="cls-17" d="M25.83,101.49c1.41-4,4.39-4.89,8.26-4.25,2,.33,4,.31,6.56.49-.22,1.41-.45,2.79-.67,4.16l-6.41,1.32L50,105.94c.7,1.49,1,3.68,2.17,4.31,2,1.1,4.55,1.24,6.87,1.78L59,112l1,1.09c-.09,3.26.51,6.08,4.35,6.84-.4.81-.85,1.6-1.17,2.43-.43,1.11-.75,2.25-1.08,3.25L57,119a4.05,4.05,0,0,0-.7-.07L55.05,118h0l4.75-2.41c-3.75-1-6.53-2.32-9.3-2.33-1.67,0-3.33,2-5,3.16q1.25,1.8,2.48,3.62l-1.13,2.16-6.22-9.53c.18,3.12.36,6.28.54,9.43-1.82-3.14-3.43-6.43-5.53-9.37A90.89,90.89,0,0,0,29,105.18L29,103l1.66-2.42-1.18-.54c-.15,1-.31,2-.46,3l-2.18,0Z"/><path class="cls-9" d="M6.86,217.91c8.91-3.07,18.66-4.78,26.46-9.64,6.15-3.83,12.27-8.92,18.94-9.75,8.2-1,14.47-5.14,21.29-8.4,5.79-2.75,11-6.8,16.4-10.28l2.12,2.3L80,189q-9.54,5-19.09,10c-9.69,4.28-19.3,8.74-29.1,12.75-6.59,2.7-13.41,4.85-20.18,7.06-2.23.73-4.14,1.34-3.62,4.25C7.63,221.34,7.25,219.62,6.86,217.91Z"/><path class="cls-10" d="M129.26,108.2l-3.47,1.91,40,15.7c-7.82,1.54-13.91-1-20-5.35-3.76-2.66-8.74-3.57-13.13-5.37q-9.43-3.89-18.79-8a5.55,5.55,0,0,1-2.93-2.88Z"/><path class="cls-11" d="M50,105.94l-16.44-2.73L40,101.89c4.74.18,9.48.24,14.2.62a8.19,8.19,0,0,1,4.6,1.76c5.79,5.28,11.67,10.53,16.91,16.33,1.9,2.1,2.14,5.7,3.42,9.44-5.19-6.39-9.47-11.84-14-17.08-1.21-1.39-3.15-2.15-4.76-3.2Z"/><path class="cls-15" d="M168.36,114.59c-6.13,1.36-35.64-12.44-38.22-18.11Z"/><path class="cls-1" d="M46.08,89.73,4.6,77.46c14.67,1.71,29.21,3.85,42.65,10.44Z"/><path class="cls-10" d="M50.33,80.5,6.6,70.38C12.22,68,34.68,72.82,50.33,80.5Z"/><path class="cls-10" d="M128.74,32.84,86.21,17.78c.21-.55.41-1.1.62-1.64C101.35,20.27,115.83,24.53,128.74,32.84Z"/><path class="cls-11" d="M138.55,27.55c-9.76-4-20.73-4.86-29.62-11.08C119.17,19.25,130.12,20.06,138.55,27.55Z"/><path class="cls-10" d="M29,105.18a90.89,90.89,0,0,1,6.62,7.56c2.1,2.94,3.71,6.23,5.53,9.37L45,124.8c.45.89.68,2.23,1.4,2.59,2.72,1.35,5.6,2.4,8.42,3.56.32.68.64,1.37,1,2.06-8.48.05-13.68-5.47-18-11.56C34.26,116.45,31.9,110.63,29,105.18Z"/><path class="cls-11" d="M165.11,49.11c-9.81-4.8-20.52-7.67-29.85-13.51l1.06-2.27,29.53,13.8Z"/><path class="cls-10" d="M46.08,89.73l1.17-1.83,32.58,12.42-.71,2Z"/><path class="cls-15" d="M89.57,40.29c12,2.23,20.32,10.17,30.88,12.4C116.65,54.41,93.16,45.15,89.57,40.29Z"/><path class="cls-11" d="M110.54,8.82,140.37,18l-.78,2.5-29.75-9.39C110.07,10.32,110.3,9.57,110.54,8.82Z"/><path class="cls-16" d="M57.83,40,28.92,34.57C37.39,31.23,47.72,33.13,57.83,40Z"/><path class="cls-16" d="M156,91.85c-9.95-.28-16.4-7.65-24.55-11.61C141,81.3,148,87.51,156,91.85Z"/><path class="cls-11" d="M94.82,82,68.46,71.56l1-2.51L95.58,79.76C95.33,80.5,95.07,81.24,94.82,82Z"/><path class="cls-10" d="M104.43,172l29.86,8.73C130.52,183,112.32,178.58,104.43,172Z"/><path class="cls-10" d="M63.28,84.75,92.35,96.89c-.17.42-.34.83-.52,1.24-10.2-2.84-20.15-6.26-29.24-11.75Z"/><path class="cls-10" d="M80.47,117.43l30.16,12.8c-.88.19-2.4,1.06-3.41.66-9.22-3.69-18.35-7.6-27.5-11.45Z"/><path class="cls-5" d="M87.94,176.39c-4.2,2.39-8.34,4.94-12.64,7.15-6.38,3.3-12.88,6.36-19.33,9.52.38-.63.61-1.51,1.16-1.83,9.61-5.54,19.26-11,28.9-16.49Z"/><path class="cls-11" d="M70.15,104l20.92,7.34c-.26.73-.51,1.45-.76,2.18-7.5-2.09-15-4.1-22-7.81Z"/><path class="cls-16" d="M103.49,36.79,79.21,29.54,80,27l24.07,7.61Z"/><path class="cls-3" d="M56.32,118.94a4.05,4.05,0,0,1,.7.07l.6,4.75-5.46,4.06-4.28-2.75-1-2.86L48,120.05l7.07-2h0c-.09.37-.19.74-.29,1.11Z"/><path class="cls-4" d="M184.51,77.21l1.39,2.91c-.07.11-.2.25-.17.33a3.8,3.8,0,0,0,.35.57l0-.12,3.43,7.62L172.71,78.21Z"/><path class="cls-10" d="M170.8,83.4,148.45,71.77C155,70.57,169.85,78.67,170.8,83.4Z"/><path class="cls-9" d="M69.18,163.16l-28.07,13-.74-1.49c6.81-3.33,13.65-6.61,20.4-10a36.43,36.43,0,0,0,4.8-3.49Z"/><path class="cls-15" d="M55.82,100.09,35.94,93.3l3.48-1.4,19.45,7.26Z"/><path class="cls-10" d="M126.65,186.15c-7.25,3.14-20.52.77-24.22-3.69Z"/><path class="cls-10" d="M149.84,161l-19.18-14c.48-.64,1-1.28,1.45-1.91l19,14.24Z"/><path class="cls-16" d="M82.42,53.53,62.69,44.87c1.86-2.73,5-1.44,7.33-.33,4.48,2.11,8.65,4.89,13,7.39C82.78,52.46,82.6,53,82.42,53.53Z"/><path class="cls-15" d="M143.38,66c-7.71-.17-13-5.72-19.45-8.79l.78-1.79,19.34,9Z"/><path class="cls-7" d="M108.79,76.31c1.7,1.38,2.94,1.87,3.13,2.62,1.49,6,7,5.54,11.17,7.32a25.94,25.94,0,0,1,6.84,4C122.94,86.22,111.28,89.69,108.79,76.31Z"/><path class="cls-1" d="M64.3,119.93c-3.84-.76-4.44-3.58-4.35-6.84l.3-1c6.29,4.49,10.47,10.4,12.61,19.45Z"/><path class="cls-10" d="M99,166.92l3.34,4.61c-7,.63-19.31-4.86-20.62-9.75C87.56,164.31,92.16,170.16,99,166.92Z"/><path class="cls-10" d="M37.82,60.18,18.49,56.34c.79-.74,1.27-1.51,1.61-1.45,5.6,1,11.19,2,16.75,3.23.42.09.59,1.36.88,2.08Z"/><path class="cls-15" d="M161.16,63.3l18.72,6.8-1,2.5-18.53-7.28C160.65,64.65,160.91,64,161.16,63.3Z"/><path class="cls-11" d="M111,68.22,127,75.58l-.89,2.08L109.75,71Z"/><path class="cls-10" d="M95.43,88.71c-6.49,2.2-15.26-.63-20.21-6Z"/><path class="cls-5" d="M14,115.89l20.44,11.68-1,1.85-20.33-11.8Z"/><path class="cls-17" d="M26.8,104.72c1.06,3.67,2.17,7.32,3.13,11a8.39,8.39,0,0,1-.22,2.65C28.44,118,26.58,117.9,26,117c-2.54-3.85-3.77-8-.8-12.29Z"/><path class="cls-11" d="M101.63,111.43,82.5,103.68l.75-1.9,19.26,7.43C102.22,110,101.93,110.69,101.63,111.43Z"/><path class="cls-16" d="M41.06,60.7c4.72-1.62,14.15,1.12,17.26,6.22L41,60.69Z"/><path class="cls-13" d="M51.9,148.14c2.33.8,6-.91,5.89,4.35,0,1.49,5.3,3.06,8.17,4.59L66,157c-6.74.84-11.5-2.84-16-7Z"/><path class="cls-1" d="M39.42,91.9l-3.48,1.4c-6.77.09-13.51,0-19.8-2.68l.2-1.49Z"/><path class="cls-1" d="M140.15,175.77,123.29,167c7.73-1.75,11,6.2,18,6.16Z"/><path class="cls-7" d="M177,86.05c7.15,1.88,12,6.68,16.48,12.31-.58.34-1,.69-1.11.62q-7.7-6.45-15.34-13Z"/><path class="cls-10" d="M123.6,144l13.57,11.85-1.28,1.5L122.13,146Z"/><path class="cls-10" d="M190.79,124.3l-14-9.83,1.53-2.07,13.3,11Z"/><path class="cls-10" d="M111.6,40.21l17.08,6.41-.84,1.86C123,45.05,115.33,47.78,111.6,40.21Z"/><path class="cls-10" d="M100.54,84,116,90.71C112.22,92.2,104.17,89,100.54,84Z"/><path class="cls-10" d="M39.86,48.24,22.48,45.8l.39-2.33L40,46.4C40,47,39.91,47.63,39.86,48.24Z"/><path class="cls-10" d="M89.17,53.81l15,5.4-.69,2L88.34,56.07C88.62,55.32,88.9,54.56,89.17,53.81Z"/><path class="cls-19" d="M161.07,153.26c2.75-3.09,2.75-3.09,12.56-3.74.09,1.24.18,2.47.26,3.71Z"/><path class="cls-20" d="M54.2,21.64c7.4-2.87,12.67.54,18.25,2l-.22,1.45Z"/><path class="cls-16" d="M166.71,108.58l-14.11-6.85,1-2,14.14,7C167.41,107.32,167.06,108,166.71,108.58Z"/><path class="cls-11" d="M46.86,122.21l1,2.86L45,124.8l-3.79-2.69c-.18-3.15-.36-6.31-.54-9.43Z"/><path class="cls-1" d="M17,139.7l15.32,10.94C27.29,151.05,19.21,145.47,17,139.7Z"/><path class="cls-10" d="M61.72,28.9,74,33.14c-3.67,2.44-6.62,1.71-12.75-2.73Z"/><path class="cls-10" d="M51.9,148.14,50,150l-11.49-6.47.92-1.69Z"/><path class="cls-1" d="M143.68,129.92l15.74,6.1C153.81,137.71,146,134.54,143.68,129.92Z"/><path class="cls-11" d="M154.12,20.86l-.27,1.39-12.79-7,2.11-1.35Z"/><path class="cls-1" d="M133.49,136.36H117V135h16.47C133.49,135.47,133.49,135.92,133.49,136.36Z"/><path class="cls-15" d="M67.13,143l12.28,4.54a14.06,14.06,0,0,1-14.6-4.32Z"/><path class="cls-1" d="M116,146.88l10.7,7.7c-6.21.16-9.58-2.67-10.63-7.63Z"/><path class="cls-13" d="M49.6,136c-4.66-.15-8.85-1.59-12-6l12.49,4.19Z"/><path class="cls-3" d="M50,105.94l10.36,3.82L59.05,112c-2.32-.54-4.86-.68-6.87-1.78C51,109.62,50.71,107.43,50,105.94Z"/><path class="cls-20" d="M67.13,143l-2.32.22c-2.58-.52-5.08-4.59-7.86,1l-2.36-5.9,1.12-1.21Z"/><path class="cls-7" d="M73,67c-5.65-.94-8.65-4.65-9.58-10.54l9.79,10.24Z"/><path class="cls-10" d="M140.37,46.25c3.9-.36,7,1.47,10.71,5.17l-11.41-3Z"/><path class="cls-10" d="M80.56,122.17,90,127.38c-.31.59-.63,1.18-1,1.77l-9.57-5Z"/><path class="cls-9" d="M80.3,169l-13.84,9.82-1-1.47c3.07-2.15,6.22-4.19,9.17-6.49A24,24,0,0,0,77.84,167Z"/><path class="cls-9" d="M143.17,13.88l-2.11,1.35-10.94-4.62L131,8.72Z"/><path class="cls-10" d="M137.81,167.33l-12.49-5.06.62-1.62,12.95,4.74Z"/><path class="cls-10" d="M70.33,54.1c4.44-.17,9-.7,12,4.29L70.06,55.47Z"/><path class="cls-1" d="M103.41,117.11l10.86,3.57c-.19.64-.38,1.28-.56,1.92l-10.91-3.4Z"/><path class="cls-7" d="M141.34,142l12.6-.85.09,1.8-12.67.93Z"/><path class="cls-7" d="M55.82,100.09l3-.93L70.15,104l-1.89,1.71Z"/><path class="cls-16" d="M175.84,93.65l9.56,2.7c-.22.83-.44,1.65-.65,2.48L175.09,96Z"/><path class="cls-10" d="M94.85,4.37l9.56,1.68c-.14.75-.28,1.5-.43,2.25L94.35,6.44C94.51,5.75,94.68,5.06,94.85,4.37Z"/><path class="cls-20" d="M101.32,65.73,91.15,62.66c3-2.11,3.77-2,10.49,1.63C101.54,64.77,101.43,65.25,101.32,65.73Z"/><path class="cls-11" d="M97.16,143.86l7.58,5-.92,1.73L94.14,145Z"/><path class="cls-16" d="M161.07,153.26l12.82,0c0,.33.08.81-.1,1C171.47,156.06,163.55,155.46,161.07,153.26Z"/><path class="cls-16" d="M167.49,40.89,165,42,154.49,36.7c.19-.47.39-.93.59-1.39Z"/><path class="cls-1" d="M52.88,46.58l8.07,3c-.25.7-.5,1.41-.74,2.11l-8.07-2.76C52.39,48.12,52.63,47.35,52.88,46.58Z"/><path class="cls-20" d="M84.42,161.1c-5.5-6.18-5.5-6.21-1.12-8.11a34.43,34.43,0,0,0,.75,4.26,22.11,22.11,0,0,0,1.62,3.32Z"/><path class="cls-9" d="M55.74,133c-.31-.69-.63-1.38-1-2.06,1.46-3.66,1.72-3.7,4-1.14a38.73,38.73,0,0,0,3.93,3.2Z"/><path class="cls-20" d="M69,157.1l10.24,3.81c-.23.62-.46,1.23-.68,1.85L66.9,158.1Z"/><path class="cls-9" d="M97.16,143.86l-3,1.16-10.22-4.51.48-1.27Z"/><path class="cls-13" d="M16.9,98.17,8.32,95.91,9,93.77l8.5,3.7C17.3,97.7,17.1,97.93,16.9,98.17Z"/><path class="cls-13" d="M110.83,97.42,104,95c.29-.71.58-1.41.86-2.11l6.8,2.84Z"/><path class="cls-7" d="M73.21,66.74l5.93,1.86-1,2L73,67Z"/><path class="cls-13" d="M17.52,97.47l4.93,1.74L20,100.92,16.9,98.17C17.1,97.93,17.3,97.7,17.52,97.47Z"/><path class="cls-13" d="M26.8,104.72H25.2a.94.94,0,0,0-.05-.64L24.05,103l.06,0c0-.58,0-1.17,0-1.76l1.68.33,1,1.6Z"/><path class="cls-17" d="M24.15,101.17c0,.59,0,1.18,0,1.76l-4.08-2,2.42-1.71Z"/><path class="cls-21" d="M193.83,107.21c-1-1.21-1.89-2.43-2.83-3.64l1-.83,2.63,3.68Z"/><path class="cls-13" d="M114.58,98.37l2.55,1.85-.51.83-2.87-1.73Z"/><path class="cls-1" d="M113.42,146.79c-.06-.25-.1-.51-.15-.76h0Z"/><path class="cls-21" d="M162,27.3l1.66-.36c0,.41-.07.81-.11,1.22Z"/><path class="cls-13" d="M113.75,99.32l-2.15-1.6.39-.67,2.59,1.32C114.3,98.68,114,99,113.75,99.32Z"/><path class="cls-10" d="M41.06,60.7h0l-3.21-.51-.1,0Z"/><polygon class="cls-10" points="107.45 102.5 107.78 102.47 107.72 102.64 107.45 102.5"/><path class="cls-13" d="M69,157.1l-2.08,1c-.29-.36-.59-.72-.88-1.09l-.06.07Z"/><path class="cls-1" d="M116.1,147l-.26,0,.19,0Z"/><path class="cls-7" d="M177,86l-.32,0,.29.08Z"/><path class="cls-17" d="M24.05,103l1.1,1.13Z"/><path class="cls-3" d="M60.25,112.14l-.3,1L59,112Z"/><path class="cls-14" d="M72.08,4.13l3.29,1.23-.24.77-3.4-.9Z"/><path class="cls-14" d="M186.08,81a3.8,3.8,0,0,1-.35-.57c0-.08.1-.22.17-.33A.76.76,0,0,1,186.08,81Z"/><path class="cls-10" d="M55.06,118l-7.07,2q-1.23-1.81-2.48-3.62c1.67-1.12,3.33-3.16,5-3.16,2.77,0,5.55,1.31,9.3,2.33Z"/><path class="cls-14" d="M29,103.05c.15-1,.31-2,.46-3l1.18.54L29,103Z"/><path class="cls-10" d="M56.32,118.94l-1.56.17c.1-.37.2-.74.29-1.11Z"/><path class="cls-2" d="M65.17,224.12l.91-1.05Z"/><path class="cls-2" d="M16.11,226.91l4-1.78Z"/></g></g></svg>