<svg xmlns="http://www.w3.org/2000/svg" viewBox="0 0 502.22 249.34"><defs><style>.cls-1{fill:#2b3f5f;}.cls-2{fill:#2a3d5a;}.cls-3{fill:#2e4564;}.cls-4{fill:#3c597e;}.cls-5{fill:#4d6d97;}.cls-6{fill:#7094ba;}.cls-7{fill:#6286b1;}.cls-8{fill:#7aa0bf;}.cls-9{fill:#8daec2;}.cls-10{fill:#a0bac7;}.cls-11{fill:#99b5c4;}.cls-12{fill:#d0d1ca;}.cls-13{fill:#365174;}.cls-14{fill:#46658e;}.cls-15{fill:#23283a;}.cls-16{fill:#21253e;}.cls-17{fill:#426089;}.cls-18{fill:#212d48;}.cls-19{fill:#212434;}.cls-20{fill:#5a7baa;}.cls-21{fill:#53749e;}.cls-22{fill:#c2ccca;}.cls-23{fill:#23334e;}.cls-24{fill:#ced0ca;}</style></defs><g id="Layer_2" data-name="Layer 2"><g id="Layer_1-2" data-name="Layer 1"><path class="cls-1" d="M264.53,217.09c30.41-8.38,61-16.34,89.21-30.9,3.36-1.74,6.46-4,9.68-6l-3.91,7c-.67-.09-1.51-.48-2-.22-28.18,15.37-58.73,24-89.65,31.54-.48.12-.95.31-1.42.47l-4.86-.56.17-.08Z"/><path class="cls-2" d="M158.11,207.45c21.46,6.53,43,5.11,64.68,1.11a119.91,119.91,0,0,1,21.06-2c-26.3,6.3-52.65,12.24-80.58,5.44.74,1.36,1.22,2.25,1.69,3.13a20.39,20.39,0,0,1-3.51-2.69A47.38,47.38,0,0,1,158.11,207.45Z"/><path class="cls-3" d="M300.31,9c-.55.28-1.57.53-1.59.84-.43,6.77-5.53,9.7-10.57,12.19-16.75,8.32-34.8,11.8-53.49,12.57,4.11-.93,8.27-1.67,12.32-2.82,12.77-3.64,25.58-7.15,38.18-11.3,4.79-1.58,9.64-4.19,11.29-9.74.31-1-.74-2.45-1.16-3.69Z"/><path class="cls-1" d="M295.32,7c-9.63-4.57-18.82-3.17-28.63.42s-20.55,5.42-30.89,7.94a13.83,13.83,0,0,1-3.22,0c0-.41-.06-.81-.1-1.22,7-1.88,14-3.71,21-5.63a156,156,0,0,0,20.26-6.71L267.92,0Z"/><path class="cls-1" d="M321.65,22A54.1,54.1,0,0,1,295.28,40.3l-.95-1.51a58.49,58.49,0,0,0,5.44-3c6-4.19,11.92-8.42,17.71-12.86,1-.78,1.24-2.64,1.82-4Z"/><path class="cls-4" d="M250.28,1.89,229.69,7.51l-.56-2.08c3.22-.82,6.45-1.6,9.65-2.49,1.48-.41,3.78-.66,1.32-2.94Z"/><path class="cls-5" d="M261.61,0c-3.28,6.84-9.77,6.77-15.71,7.91l-.51-1.19a63.52,63.52,0,0,0,7-2.56A77.31,77.31,0,0,0,259.16,0Z"/><path class="cls-3" d="M304.36,10.84l-4-1.85Z"/><path class="cls-3" d="M307.27,12.16l-2.8-1.28Z"/><path class="cls-4" d="M251.24.92c-.32.33-.65.65-1,1C250.59,1.57,250.92,1.25,251.24.92Z"/><path class="cls-4" d="M252.54,0c-.42.31-.85.61-1.28.91C251.69.61,252.12.31,252.54,0Z"/><path class="cls-4" d="M286.71,48.24c-12.5,4.64-24.74,10.1-38.61,10.24l38.24-11.43Z"/><path class="cls-3" d="M297.37,48.06,325.21,33C325.09,37.23,307.57,47.64,297.37,48.06Z"/><path class="cls-6" d="M276.66,16.26,287.9,9.63l1,1.7L277.71,18Z"/><path class="cls-6" d="M220.64,193.27c-14.44,4.16-29,7.79-44.2,5.68Z"/><path class="cls-7" d="M269.18,227.39l32.24-10.12C298.24,221.71,277.31,228.26,269.18,227.39Z"/><path class="cls-8" d="M294.65,198.59,265.47,206c-.15-.57-.29-1.15-.44-1.72l29-7.63Z"/><path class="cls-9" d="M320.35,217l2.06,1.08-15.28,6.21-.71-1.75Z"/><path class="cls-10" d="M251.18,232.89l-10.72,2c-.12-.75-.25-1.49-.37-2.24l10.8-1.42C251,231.78,251.08,232.33,251.18,232.89Z"/><path class="cls-11" d="M298,180.87l1.48,1.44L286.8,187c-.2-.49-.41-1-.61-1.49Z"/><path class="cls-8" d="M261.59,218.4l4.86.56L253,222.23l-.36-1.25,8.56-3.13.62.53Z"/><path class="cls-8" d="M264.53,217.09l-2.77,1.23,0,.06-.62-.53Z"/><polygon class="cls-12" points="261.8 218.38 261.76 218.32 261.59 218.4 261.8 218.38"/><path class="cls-2" d="M141.2,64.74c1.51,1.32,2.81,3.17,4.57,3.88,13.12,5.3,26.78,4.6,40.37,2.76,15.5-2.1,30.94-4.7,46.4-7.07a3.25,3.25,0,0,1,3,1c-5.26,1.22-10.46,2.84-15.78,3.6-17,2.4-33.91,4.86-50.94,6.51-9,.88-17.86-1.19-26.17-5.15-1.17-.56-2.87,0-4.33.06Z"/><path class="cls-6" d="M413.36,71c3.57.32,7.14.61,10.71,1,2.76.28,5.51.64,8.26,1-21.32-1.09-42.25,2.23-63.91,5.54.35,1.78.65,3.27.95,4.78L358.73,86.2c2.79-4.11,11.55-3,7.62-10.51,7.48-.77,15-1.55,22.45-2.29C397,72.58,405.17,71.8,413.36,71Z"/><path class="cls-13" d="M336.63,105.89,370.16,89C367.25,94.12,344.48,105.61,336.63,105.89Z"/><path class="cls-9" d="M322.33,83c3.38-2.37,6.76-4.73,10.13-7.12a84.13,84.13,0,0,1,13.17-8.16c-.83,1-1.46,2.35-2.52,3-6.88,4.18-13.85,8.21-20.79,12.28Z"/><path class="cls-6" d="M182.49,86.67l22.21-2.54.21,1.72L182.66,88.7Z"/><path class="cls-9" d="M306.13,80.9l-1.93-1.05L320.67,72c.29.59.59,1.17.88,1.76Z"/><path class="cls-10" d="M326.22,61.67l7.95-4.28.75,1.35L327,63.15C326.75,62.65,326.48,62.16,326.22,61.67Z"/><path class="cls-11" d="M347.82,131.91l20.47-6.25c-5.25,2.65-10.41,5.49-15.8,7.8C351.36,133.94,349.4,132.48,347.82,131.91Z"/><path class="cls-11" d="M347.14,135.09,334.25,138l-3.19-1,16.44-5,1.38,2.77Z"/><path class="cls-9" d="M446.49,69.93c3.38-2.53,5.92-.76,7.57,2,1.52,2.57-1.11,6.06-4.8,7C453.35,73.05,452.84,71.38,446.49,69.93Z"/><path class="cls-14" d="M448.41,81.05,439.28,86l7.47-5Z"/><path class="cls-14" d="M439.34,86l-6.06,3Z"/><path class="cls-14" d="M433.35,89,428.81,92Z"/><path class="cls-2" d="M344.29,122,339.14,124Z"/><path class="cls-14" d="M423.35,93.94l-.42,1.88-3.5-.8Z"/><path class="cls-2" d="M328.31,127l-3,1h0c0-.29,0-.58.06-.87Z"/><path class="cls-9" d="M449.34,78.91,448.25,80Z"/><path class="cls-9" d="M448.41,81.05,446.75,81l1.57-1a4,4,0,0,1,.3.74C448.64,80.77,448.49,80.92,448.41,81.05Z"/><path class="cls-2" d="M338.37,124l-1.17,1Z"/><path class="cls-15" d="M460.38,79.05c-.16-.44-.58-1-.46-1.32,2.57-7.18,2.58-7.17-4.51-12.35l5.33-.62h.3l.23.19,3.36.93a.88.88,0,0,1,.7.18l1.89,1,.07,0,1.17.85,0-.07,0,4.43-.2,2.56c5.4-4.33,5.07-8.25-.83-10.2-3.83-1.27-8-1.45-12.05-2.12l-3.92-.75c5.69.08,11.38.09,17.06.27a29.25,29.25,0,0,1,4.83.95l5,3-1,6,0,0-1,2,0,0-2.05,1,0,0-1,1,.07-.06q-2.55,1.52-5.08,3.05l.07-.06a9.24,9.24,0,0,0-.92.1l-4.1,2-2.06-2Zm8.23-3.56c-.25-.37-.5-.74-.74-1.12l-4,2.89c.24.35.48.71.71,1.07Z"/><path class="cls-16" d="M478.38,66l-5-3c0-1.21.05-2.42.07-3.64,2.72.52,5.46.92,8.14,1.59,4.06,1,6.37,3.24,4.59,7.79q-1.42,2.13-2.83,4.26l0,0L482.3,74l.07-.06-2.07,1,.05,0L479.29,76l.09-.07L477.28,77l.08-.06-3.59,2L472.3,80l.05,0-4,1.12.06-1c0-.38,0-.75,0-1.13l-.07.06q2.54-1.53,5.08-3.05l-.07.06,1-1,0,0,2.05-1,0,0,1-2,0,0C481.13,70.44,481.35,69.17,478.38,66Z"/><path class="cls-4" d="M451.45,61.79l3.92.76c0,.45.05.9.08,1.35l-18.91-.12a49,49,0,0,1,6.6-1.74C445.88,61.71,448.68,61.85,451.45,61.79Z"/><path class="cls-3" d="M424.33,97l21.39-8.48a2.25,2.25,0,0,1,.65-.14l3,3.67L414,105.8c-.91.36-1.81.76-2.71,1.15-.5-1.28-1-2.56-1.41-3.62Z"/><path class="cls-2" d="M341.37,129.07c-1.84-3.38,1-3.52,2.94-4.07,8.76-2.53,17.55-5,26.33-7.44a7.1,7.1,0,0,0,2.37-1.13c2.6-2.07,4.19-1,5.35,1.59Z"/><path class="cls-1" d="M468.37,80.08l-.06,1-2.39,3-.06-.08-4.54,2,0,0c-1.15-.17-2.29-.36-3.44-.49-3.07-.33-2.24,1.38-1.57,3a.92.92,0,0,1-.6.47l-3.39,0c0-.72-.07-1.44-.1-2.16l8.12-7.83.89,0,2.06,2,4.1-2Z"/><path class="cls-3" d="M392.34,112.92c-.94-3.68,2.05-4,4.26-4.76s4.61-1.47,5.65,1.78Z"/><path class="cls-3" d="M404.36,109.08c-3.52-5.12,4.47-1,3.59-4.32l1.26,3.15Z"/><path class="cls-3" d="M452.26,86.88c0,.72.06,1.44.1,2.16l2,1-5.05,2a16.54,16.54,0,0,1,.52-4.14C450.05,87.32,451.42,87.2,452.26,86.88Z"/><path class="cls-17" d="M456.35,88.53c-.67-1.63-1.5-3.34,1.57-3,1.15.13,2.29.32,3.44.49Z"/><path class="cls-17" d="M465.92,84.09l2.39-3,4-1.12Z"/><path class="cls-7" d="M473.77,78.92l3.59-2-2,2.1Z"/><path class="cls-17" d="M454.37,90l-2-1,3.39,0Z"/><path class="cls-17" d="M473.77,78.92l1.62.13-3.09,1Z"/><path class="cls-8" d="M455.45,63.9c0-.45-.06-.9-.08-1.35,4,.66,8.22.84,12.05,2.11,5.9,2,6.23,5.87.83,10.2.08-1.09.14-1.82.2-2.56,0-1.48,0-3,0-4.43l0,.07-1.17-.85-.07,0-1.89-1a.88.88,0,0,0-.7-.18L461.27,65l-.23-.19h-.3Z"/><path class="cls-5" d="M473.36,76q-2.55,1.52-5.08,3.05Q470.82,77.48,473.36,76Z"/><path class="cls-8" d="M468.61,75.49l-4.05,2.84c-.23-.36-.47-.72-.71-1.07l4-2.89C468.11,74.75,468.36,75.12,468.61,75.49Z"/><path class="cls-18" d="M463.33,81l-2.06-2Z"/><path class="cls-18" d="M468.43,67.87c0,1.48,0,2.95,0,4.43C468.44,70.82,468.43,69.35,468.43,67.87Z"/><path class="cls-18" d="M461.27,65l3.36.93Z"/><path class="cls-18" d="M465.33,66.06l1.89,1Z"/><path class="cls-2" d="M128.45,124.06l-2.08-1c.16-6,.21-11.94.55-17.9.1-1.73,1-3.41,1.6-5.12-.5,8.62.26,9.52,9,11.93,10.88,3,21.8,1.72,32.74.57,1.76-.18,3.55-.21,6-.35-8,6.07-29.85,5.55-48.5-.67-2.69,8.62,2.64,13.3,11.41,15,10.79,2.11,22.28,3.08,33.15,1.84,19.95-2.27,39.68-6.52,59.5-9.91,2-.34,4-.44,6-.65l.33,1.78c-9.43,2.25-18.77,5.06-28.32,6.62-14.76,2.42-29.62,4.63-44.52,5.67-8.84.62-17.84-1.19-26.77-1.91l-3.19-.94h0l-2-1h0l-2-1.14Z"/><path class="cls-2" d="M371.66,64.08a5.24,5.24,0,0,1-1.79.74c-4.27,0-6.94,1.89-7.74,6.18-26.29,21.8-56.25,36.32-89.19,44.89a15.23,15.23,0,0,1-7.67-.06c2-.71,4.05-1.54,6.13-2.11a258.32,258.32,0,0,0,81.11-38.57c3.74-2.65,8.7-4.68,9.15-10.41Z"/><path class="cls-1" d="M374.49,144.39l.79-.62c-1.38,6.69-2.67,13.41-4.25,20.06-.28,1.2-1.77,2.12-2.7,3.17,1.86-5.38,3.73-10.77,5.78-16.68L313.49,177l-3.08-1c18.75-8.62,37.54-17.16,56.23-25.94C369.51,148.74,371.88,146.32,374.49,144.39Z"/><path class="cls-19" d="M366.34,75.68c0-.48,0-1,0-1.45,16.54-2.11,32.93-5.57,49.71-5.44a13.77,13.77,0,0,0,3.3-.83l21.85-.07,5.34,2c6.35,1.45,6.86,3.12,2.77,9l.08-.06L448.25,80l.07-.09-1.57,1-7.47,5,.06,0-6.06,3,.07,0L428.81,92l.06-.06-5.6,2,.08-.06L419.43,95c-3.8,1.52-7.58,3.1-11.41,4.54-12.84,4.85-25.64,9.8-38.56,14.42-8.29,3-16.77,5.39-25.17,8.06L339.14,124a6.57,6.57,0,0,0-.77,0l-1.17,1-8.89,2-2.92.12c-10.18,3-20.31,6.18-30.56,8.91-17.18,4.56-34.33,9.27-51.67,13.13-30.41,6.76-60.63,14.64-91.6,18.37-19.84,2.39-39.28,7.81-59.44,7.65a5.75,5.75,0,0,0-1.86.65L65,176.27c-3.38-.45-6.86-.54-10.14-1.41-5-1.32-5.54-3-3.49-7.82l4-4,0,0,6-4-.06,0,3.79-1.19,1.26,1.25c-2.21,2.69-6.66,5.89-6.18,8,1,4.47,6.35,3.57,10.22,4a9.4,9.4,0,0,0,1.5,0c8.15-.38,16.35-.32,24.43-1.26,13.49-1.58,26.91-3.8,40.36-5.75l52.53-10L235.62,144c26.71-6.79,53.48-13.31,80.09-20.48,18.1-4.87,36-10.62,53.92-16.05a33.84,33.84,0,0,0,4.79-2.29,23.69,23.69,0,0,0,4.34-.72c11.84-4.31,23.77-8.39,35.41-13.19a183,183,0,0,0,21.65-11.06A7.55,7.55,0,0,0,439,74.34c-.07-1.22-3.38-3.09-5.33-3.2-6.75-.39-13.55-.14-20.32-.13-8.19.79-16.38,1.57-24.56,2.39C381.31,74.14,373.83,74.92,366.34,75.68Z"/><path class="cls-2" d="M131.43,158.92c-.09.36-.18.72-.26,1.09q-.94-5-1.87-10.08c11,3.89,22.28,3.68,33.54,2.34,14.83-1.77,29.58-4.12,44.37-6.22H213c.05.39.11.78.16,1.18l-29,5.66c-4.52.57-9,1.47-13.56,1.65q-16,.61-32.1.61c-2.63,0-5.26-1-8.54-1.74C130.55,155.79,131,157.35,131.43,158.92Z"/><path class="cls-9" d="M184.09,152.89l29-5.66c-.05-.4-.11-.79-.16-1.18h-5.74c5.74-.15,11.5-.13,17.23-.48,3.74-.24,7.45-1,11.18-1.55l-46.39,10.1Z"/><path class="cls-20" d="M274.25,126.9c-9.15,3.13-18.44,5.36-28.33,4.26l26.14-5.4Z"/><path class="cls-6" d="M274.25,126.9l-2.19-1.14,14.58-4.18.48,1.58Z"/><path class="cls-21" d="M324.33,159c-16.94,6.47-33.67,13.55-50.89,19.16-9.5,3.1-19.81,3.75-29.75,5.5-.08-.42-.15-.85-.23-1.27,13.38-3.12,27-5.49,40.08-9.58s25.76-9.92,38.61-15Z"/><path class="cls-2" d="M290.56,156.22q19.86-8.07,39.72-16.16c1.37-.56,2.65-1.36,4-2.05l12.89-2.92c-3.49,1.76-6.89,3.76-10.51,5.22-14,5.66-28.08,11.15-42.13,16.7l-3,.13Z"/><path class="cls-4" d="M310.41,176l3.08,1-14.05,5.27L298,180.87Z"/><path class="cls-9" d="M280.42,161.08l-13,4c-.2-.69-.4-1.37-.59-2.05l10.87-2.88Z"/><path class="cls-17" d="M280.42,161.08l-2.68-.93,6.72-2.13,3.09,1Z"/><path class="cls-2" d="M287.55,159.05l-3.09-1,6.1-1.8.91.92q-.15.41-.27.81Z"/><path class="cls-17" d="M291.2,158q.12-.4.27-.81l3-.13Z"/><path class="cls-6" d="M19.23,169.85l8.36-5.25c0,.45.05.9.09,1.34-.11,1-.23,2-.35,3.06h0l-.93,2.14L23.25,173l-1.93-1C20.62,171.29,19.93,170.57,19.23,169.85Z"/><path class="cls-20" d="M19.23,169.85c.7.72,1.39,1.44,2.09,2.15l-7.91,7.79c0-.44,0-.88,0-1.32l1-1.52c.63-1.69,1.26-3.37,1.88-5.06Z"/><path class="cls-22" d="M184.09,152.89l5.14,1.23-52.53,10c-4.19.75-3.94-3-5.27-5.19-.44-1.57-.88-3.13-1.54-5.51,3.28.7,5.91,1.74,8.54,1.74q16,0,32.1-.61C175.06,154.36,179.57,153.46,184.09,152.89Z"/><path class="cls-8" d="M64.87,177.56l-4.17-.21-1.44-.15c-1.63-.19-3.45,0-4.83-.65-2.5-1.24-5.81-2.56-6.72-4.72-.63-1.5,2.21-4.45,3.49-6.75.07.66.13,1.31.19,2-2,4.82-1.47,6.5,3.49,7.82,3.28.87,6.76,1,10.15,1.41C65,176.7,64.92,177.13,64.87,177.56Z"/><path class="cls-4" d="M64.87,177.56c0-.43.1-.86.16-1.29l25.23-.44,2.3.38,0,1.35Z"/><path class="cls-21" d="M61.32,159,68.37,155l-3.26,2.87Z"/><path class="cls-21" d="M55.38,163l6-4Z"/><path class="cls-21" d="M51.39,167c-.06-.65-.12-1.3-.19-2l4.15-2Z"/><path class="cls-19" d="M51.26,159.82c-1.41,1.47-2.76,3-4.25,4.38-3,2.76-8,5.45-5.9,9.72,1.43,2.93,6.41,4.33,10,5.91,2.52,1.11,5.41,1.38,8.14,2h-4l-4.21-.71-4.18.65c-1.47-.25-2.93-.58-4.4-.75-9.48-1.14-10.75-2.67-9.17-11.1l-.07.06,2.61-1-.07,0,3.53-3,0,0,6.35-3.88,3.23-2Z"/><path class="cls-15" d="M35.83,169l.07,0-2.61,1,.07-.06C32,172,29,174.53,29.49,176c.64,2.16,3.48,4.41,5.84,5.15,3.72,1.16,7.83,1.11,11.77,1.56l1.1.42-2.29,1.52-7.29-.24-11.21-2.3-2-1.18c-4.76-1.65-1.53-5.31-2-8l-.11,0,3.15-1.85.93-2.14h0l3.07-1,9.93-5c-.33,1-.67,2-1,3l0,0Z"/><path class="cls-21" d="M39.33,166c.33-1,.67-2,1-3l5.35-.85Z"/><path class="cls-4" d="M83.33,148l0-2h0l3.5-1,3.37.83Z"/><path class="cls-20" d="M30.4,168l-3.07,1c.12-1,.24-2.05.35-3.06C28.58,166.65,29.49,167.34,30.4,168Z"/><path class="cls-21" d="M51.26,159.82l-2.35.33,3.23-1.31.19.17-1.07,1Z"/><path class="cls-23" d="M86.83,145l-3.5,1Z"/><path class="cls-4" d="M79.3,150.46l4-2.47Z"/><path class="cls-4" d="M70.29,152.94l3.55-1-2.54,2Z"/><path class="cls-4" d="M73.81,152l4-1Z"/><path class="cls-21" d="M70.29,152.94l1,1-2,.06Z"/><path class="cls-21" d="M68.3,155,69.36,154Z"/><path class="cls-1" d="M145.32,173c6.59-1.49,13.16-3.07,19.78-4.44,4.77-1,9.58-1.87,14.41-2.52,4-.54,8-.67,12.07-1-3,1.24-5.81,3-8.89,3.63-11,2.22-22.14,4.07-33.23,6a10.56,10.56,0,0,1-3.31-.54l-.83-1.12Z"/><path class="cls-2" d="M303.05,139.07c2.42-1.39,4.7-3.24,7.3-4.08,7.61-2.48,15.39-4.45,23-6.86,2.67-.84,4.8-1.33,6,1.9-11.15,3.2-22.3,6.42-33.48,9.54C305.06,139.8,304,139.25,303.05,139.07Z"/><path class="cls-18" d="M25.37,181l2,1.18.9,2.79a44.44,44.44,0,0,0-5.81-.84c-.61,0-1.25,1.12-1.88,1.73-3.64-.53-6.4-2.12-7.2-6L21.32,172l1.93,1,.11,0c-4.15,4.31-3.58,8.49,1.38,9.7A12,12,0,0,0,25.37,181Z"/><path class="cls-2" d="M291.37,142.12c-.19-.28-.6-.68-.52-.81,1.14-2.05,9.58-3.6,11.85-2.23Z"/><path class="cls-18" d="M14.46,177l-1,1.52Z"/><path class="cls-20" d="M27.33,169l-.93,2.14Z"/><path class="cls-15" d="M278.31,145l-.69-1.33c.49.86.62,1.07.74,1.28Z"/><path class="cls-19" d="M51.26,160l1.07-1Z"/><path class="cls-4" d="M59.26,177.2l1.44.15Z"/><path class="cls-8" d="M46.93,181.81a1.7,1.7,0,0,0,.17.94c-3.94-.45-8.05-.4-11.77-1.56-2.36-.74-5.2-3-5.84-5.15C29,174.53,32,172,33.36,170c-1.58,8.43-.31,10,9.17,11.1C44,181.23,45.46,181.56,46.93,181.81Z"/><path class="cls-21" d="M35.83,169l3.53-3Z"/><path class="cls-8" d="M33.29,170l2.61-1Z"/><path class="cls-6" d="M25.37,181a12,12,0,0,1-.63,1.66c-5-1.21-5.53-5.39-1.38-9.7C23.84,175.66,20.61,179.32,25.37,181Z"/><path class="cls-24" d="M339.62,35.93a1.33,1.33,0,0,0,.56.07l1.1,1.07,0-.07c-2.48,3-4.38,7-7.54,8.77-12.6,7-25.24,14.14-38.52,19.66C266.89,77.2,237.8,86.73,207.63,92.5c-9.51,1.82-19.17,2.85-28.77,4.25a9,9,0,0,0,5,1.16c9.43-.93,19-1.26,28.22-3.19,33.66-7,66-18.24,97.52-31.87,12.64-5.46,25.29-11.31,34-22.86l.38,0,1.31,1.16a.7.7,0,0,0,.39.62l.7.74a.34.34,0,0,0,.33.34l1.67,2,.06.08.9,1.1L360.57,62.8c.26.42.52.84.79,1.26a.77.77,0,0,0,.3.68c-.45,5.73-5.41,7.76-9.15,10.41a258.32,258.32,0,0,1-81.11,38.57c-2.08.57-4.09,1.4-6.13,2.11a15.23,15.23,0,0,0,7.67.06c32.94-8.57,62.9-23.09,89.19-44.89l2.39,0,1.77,3.2c0,.48,0,1,.06,1.45,3.93,7.54-4.83,6.4-7.62,10.51l10.64-2.93,4,13.42c.36,2.84.72,5.67,1.09,8.51a33.84,33.84,0,0,1-4.79,2.29c-17.95,5.43-35.82,11.18-53.92,16.05-26.61,7.17-53.38,13.69-80.09,20.48-3.73.54-7.44,1.31-11.18,1.55-5.73.35-11.49.33-17.23.48-14.79,2.1-29.54,4.45-44.37,6.22-11.26,1.34-22.58,1.55-33.54-2.34l-1-3.59c.14-1.58.28-3.17.45-5.06a39.83,39.83,0,0,0,24.31,1.51c-3.19-.86-6.51-.41-9.64-1-5.14-.91-10.16-2.47-15.23-3.76l-.95-4.18a1.39,1.39,0,0,0-.08-.9c0-1.91,0-3.81,0-5.71l1.27-3.22,2.9,2.79,2,1.14h0l2,1h0l3.19.94c8.93.72,17.93,2.53,26.77,1.91,14.9-1,29.76-3.25,44.52-5.67,9.55-1.56,18.89-4.37,28.32-6.62l-.33-1.78c-2,.21-4,.31-6,.65-19.82,3.39-39.55,7.64-59.5,9.91-10.87,1.24-22.36.27-33.15-1.84-8.77-1.72-14.1-6.4-11.41-15,18.65,6.22,40.48,6.74,48.5.67-2.41.14-4.2.17-6,.35-10.94,1.15-21.86,2.41-32.74-.57-8.79-2.41-9.55-3.31-9-11.93v.17l.32.06.29-.15c1.75.5,3.51,1,5.24,1.5a60.44,60.44,0,0,0,36.16-.11,20.41,20.41,0,0,0-5.18,0c-10.48.88-21,1.64-31.08-2.1-1.69-.63-2.74-3-4.08-4.6.41-1.54.83-3.08,1.27-4.68,10.86,4.38,19.71,5.05,25.2,1.33a57.22,57.22,0,0,1-6.25,0,126.12,126.12,0,0,1-14.67-2.3c-1.36-.34-2.17-2.88-3.23-4.41q2.92-7.18,5.84-14.36c1.46,0,3.16-.62,4.33-.06,8.31,4,17.18,6,26.17,5.15,17-1.65,34-4.11,50.94-6.51,5.32-.76,10.52-2.38,15.78-3.6a3.25,3.25,0,0,0-3-1c-15.46,2.37-30.9,5-46.4,7.07-13.59,1.84-27.25,2.54-40.37-2.76-1.76-.71-3.06-2.56-4.57-3.88l13.12-19.62,1-1.12h0c13.15,5.27,26.57,3.1,40,1.52-2.34-.9-4.73-.84-7.1-.91-8.31-.24-16.62-.38-24.9-.94-1.85-.12-3.58-1.81-5.37-2.78l.3-.32c.22-.22.43-.44.65-.65a.37.37,0,0,0,.35-.35l.67-.76,5.43-5.58c17.87,4.86,35.62,2,53.4-.89a21.4,21.4,0,0,0-6.69-.63c-10.77.33-21.54.95-32.31.91-3.53,0-7-1.74-10.57-2.67l.1-.11c.29-.31.59-.61.88-.91l.12-.1,1.1-.89c7.29-4.77,14.48-9.71,21.95-14.18,1.77-1.07,4.49-.55,6.77-.76,1.75.41,3.55,1.32,5.24,1.13,8.38-.94,16.73-2.13,25.08-3.34a24.69,24.69,0,0,0,4.3-1.44L234.38,8c-3.17.44-6.33.94-9.5,1.3-6.58.74-13.16,1.49-19.75,2-.86.06-1.83-1.46-2.75-2.25l0,0L207.59,7,240.1,0c2.46,2.28.16,2.53-1.32,2.94-3.2.89-6.43,1.67-9.65,2.49l.56,2.08,20.59-5.62h0c.33-.32.66-.64,1-1h0c.43-.3.86-.6,1.28-.91l6.62,0a77.31,77.31,0,0,1-6.73,4.17,63.52,63.52,0,0,1-7,2.56l.51,1.19C251.84,6.8,258.33,6.87,261.61,0h6.31l5.85,1.83a156,156,0,0,1-20.26,6.71c-7,1.92-14,3.75-21,5.63,0,.41.07.81.1,1.22a13.83,13.83,0,0,0,3.22,0c10.34-2.52,21-4.3,30.89-7.94s19-5,28.63-.42h0c.42,1.24,1.47,2.67,1.16,3.69-1.65,5.55-6.5,8.16-11.29,9.74-12.6,4.15-25.41,7.66-38.18,11.3-4,1.15-8.21,1.89-12.32,2.82,18.69-.77,36.74-4.25,53.49-12.57,5-2.49,10.14-5.42,10.57-12.19,0-.31,1-.56,1.59-.84h0l4,1.85.11,0,2.8,1.28-.09-.09c-.58,2.09-.5,5-1.87,6.12-4.76,3.77-9.68,7.69-15.17,10.15C267.5,38.51,243.75,45.48,219.6,51c-11.6,2.67-23.35,4.69-35,7l-14.12,1.11c.08.71.17,1.41.25,2.12L190.54,59c3.43-.43,6.89-.72,10.29-1.33,31.41-5.63,62-14.07,91.25-27,7.33-3.24,14.44-7,17.94-15,.22-.51,1.63-.51,2.49-.74l3.63,2,2.43,1.56a1,1,0,0,0,.73.39c-.58,1.36-.79,3.22-1.82,4-5.79,4.44-11.74,8.67-17.71,12.86a58.49,58.49,0,0,1-5.44,3l.95,1.51A54.1,54.1,0,0,0,321.65,22l1.57-.24,1.37.92L337.11,33c-1.2,1.76-2.14,3.78-3.64,5.21a55,55,0,0,1-6.41,4.63l1.3,1.73ZM322.32,83c6.94-4.07,13.91-8.1,20.79-12.28,1.06-.64,1.69-2,2.52-3a84.13,84.13,0,0,0-13.17,8.16C329.09,78.26,325.71,80.62,322.32,83Zm-50.26,42.78-26.14,5.4c9.89,1.1,19.18-1.13,28.33-4.26l12.87-3.74-.48-1.58Zm-43.61-18.64c7.49-1.51,15.31-2.13,22.42-4.7,18.58-6.72,36.86-14.29,55.26-21.52l15.42-7.12c-.29-.59-.59-1.17-.88-1.76L304.2,79.85c-25.87,10.9-51.59,22.23-79.73,26.22l-12,.77c.05.72.1,1.43.16,2.15Zm29.6-89.65c-18.71,4.09-37,10.65-56.67,8.83C221.43,30.84,239.82,24.65,258.05,17.47Zm28.66,30.77-.37-1.19L248.1,58.48C262,58.34,274.21,52.88,286.71,48.24Zm10.66-.18c10.2-.42,27.72-10.83,27.84-15.11Zm39.26,57.83c7.85-.28,30.62-11.77,33.53-16.86ZM214.89,19.68,194,18.74c0,.45,0,.9,0,1.36C200.77,22.92,207.79,22.08,214.89,19.68Zm-32.4,67,.17,2,22.25-2.85-.21-1.72Zm94.17-70.41,1,1.77,11.2-6.7-1-1.7ZM198.21,138c-.18-.57-.35-1.13-.52-1.69l-12.91,2.28c.14.65.27,1.31.4,2Zm128-76.29c.26.49.53,1,.79,1.48l7.91-4.41-.75-1.35Z"/><path class="cls-12" d="M204.14,239.14l-.29-.17-.33,0-9.38-3L171.4,221l-1.1-.89-.09-.08-.93-.9-.11-.09-.9-.83-.18-.15-.83-.76-.27-.24-.73-.71-.3-.29-.69-.65-.31-.31c-.47-.88-1-1.77-1.69-3.13,27.93,6.8,54.28.86,80.58-5.44a119.91,119.91,0,0,0-21.06,2c-21.65,4-43.22,5.42-64.68-1.11a1.22,1.22,0,0,0-.78-.43l-1-1-.05-.05-.93-1,0,0-.95-1.26-9.72-13.64c1.34-.38,2.84-1.35,4-1,14.8,3.93,38.88,2.74,52.49-3.06-4.62.31-9.22.76-13.78,1.5-12.72,2.09-25.4,2.94-38-.6l-3.24-.75a1.72,1.72,0,0,1-.71-.13l-3.05-1v0l-1-3.38,3.21-1.65a7,7,0,0,1,1.37-.58c22.37-4.39,44.76-8.68,67.11-13.17,8.31-1.67,16.52-3.81,24.78-5.74,13.28-3.1,26.61-6,39.83-9.36,17.87-4.54,35.65-9.42,53.48-14.15l3.19,1c-1.32.69-2.6,1.49-4,2.05q-19.84,8.12-39.72,16.16l-6.1,1.8-6.72,2.13L266.87,163c.19.68.39,1.36.59,2.05l13-4,7.13-2,3.65-1.1,3.3-.94c14.05-5.55,28.13-11,42.13-16.7,3.62-1.46,7-3.46,10.51-5.22l1.74-.35L347.5,132l.32-.06c1.58.57,3.54,2,4.67,1.55,5.39-2.31,10.55-5.15,15.8-7.8l5.74-1.73a7.17,7.17,0,0,1-2,10.28c-2.45,1.67-4.84,3.43-7.25,5.16l.66,1.07,8.56-3.3c.2,2.8.37,5,.53,7.25-2.61,1.93-5,4.35-7.85,5.7C348,158.87,329.16,167.41,310.41,176L298,180.87l-11.77,4.6c.2.5.41,1,.61,1.49l12.64-4.65L313.49,177l60.62-26.72c-2.05,5.91-3.92,11.3-5.78,16.68h0l-1.86.94L333.36,182l-11.14,4.42.6,1.52,12.7-4.83c9.38-4,18.75-8,28.15-12,1.45-.62,3.49-2.44,3.54,1.23l-2.88,6.46-.82,1.26-.09.15c-3.22,2-6.32,4.27-9.68,6-28.26,14.56-58.8,22.52-89.21,30.9l-3.35.76L252.62,221l.36,1.25L266.45,219c.47-.16.94-.35,1.42-.47,30.92-7.57,61.47-16.17,89.65-31.54.48-.26,1.32.13,2,.22l-9.71,14.05-1.31,1h0l-1.19.8.05,0-27,14-13.93,5.54.71,1.75,15.28-6.21c5.61-2.53,11.2-5.1,16.86-7.52.68-.29,1.72.28,2.6.45-20.28,20.91-44.83,33.73-73.7,37.25A135.52,135.52,0,0,1,220.61,246l-3.82-2.37c22.5.14,43.3-2.21,63.61-8.13C255,237.87,229.84,243.66,204.14,239.14ZM324.33,159l14.59-6.66-.72-1.6-16.05,7.08c-12.85,5.07-25.46,10.89-38.61,15s-26.7,6.46-40.08,9.58c.08.42.15.85.23,1.27,9.94-1.75,20.25-2.4,29.75-5.5C290.66,172.56,307.39,165.48,324.33,159ZM220.64,193.27,176.44,199C191.68,201.06,206.2,197.43,220.64,193.27Zm-29.11,36.2c14.48,2.72,28.2-1.83,42.16-4.41-.05-.4-.1-.8-.14-1.2Zm77.65-2.08c8.13.87,29.06-5.68,32.24-10.12Zm25.47-28.8-.58-2-29,7.63c.15.57.29,1.15.44,1.72Zm-43.47,34.3c-.1-.56-.19-1.11-.29-1.66l-10.8,1.42c.12.75.25,1.49.37,2.24Zm90-82.24.33-.16-.32-.16Z"/><path class="cls-10" d="M374.49,144.39c-.16-2.22-.33-4.45-.53-7.25l-8.56,3.3-.66-1.07c2.41-1.73,4.8-3.49,7.25-5.16a7.17,7.17,0,0,0,2-10.28c7.68-2.58,15.37-5.09,23-7.75,28.73-10,57.46-20.05,84-35.12a88.9,88.9,0,0,0,15.5-11.56c3.85-3.49,2.89-6.9-2-8.57-3.91-1.31-8.06-1.9-12.11-2.81a18.35,18.35,0,0,0-4.27-1c-13.57.3-27.13.56-40.68,1.2-3.76.18-7.46,1.64-11.19,2.5l-2.95-.09-7,.39c-1,.17-1.94.38-2.92.52-14.6,2.08-29.21,4.08-43.77,6.35-1.84.28-3.46,2-5.17,3l-2.39,0c.8-4.29,3.47-6.2,7.74-6.18a5.24,5.24,0,0,0,1.79-.74c16.65-2.2,33.24-5.08,50-6.42,19.7-1.59,39.5-2.12,59.27-2.51,5.17-.1,10.58,1.43,15.51,3.23,6.32,2.3,7.81,8.05,2.89,12.57C493.44,76.33,487,81.7,479.9,85c-21.25,9.82-42.88,18.86-64.56,27.7-10.45,4.27-21.33,7.5-32.07,11-7.6,2.5-7.63,2.38-7.74,10.15,0,3.3-.16,6.59-.25,9.89Z"/><path class="cls-10" d="M144.49,180l-3.21,1.65,1,3.38c-2.87-.15-5.81-.81-8.58-.38-31.26,4.92-62.53,9.69-94.24,10.24-9.1.16-18.23-1-27.34-1.72a19.43,19.43,0,0,1-5.28-1.43c-7.46-2.88-9.36-9.19-3.13-14.15A165.27,165.27,0,0,1,30.82,160c24.31-12.49,50.12-21.43,76-30.2l17.47-5.92,2.11-.84h0l2.08,1-1.27,3.22a54.44,54.44,0,0,0-7.23,1.31c-7.76,2.45-15.61,4.74-23.16,7.76-23.13,9.25-46.14,18.81-69.2,28.25l-8.36,5.25-2.89,2c-3.56,2.63-7.51,4.88-10.61,8-4,4-3.27,7.35,2.24,8.75,6.87,1.75,14.12,3.46,21.09,3.09q37.08-2,74.06-5.53C117,184.85,130.71,182.08,144.49,180Z"/><path class="cls-2" d="M343.6,40c-8.66,11.55-21.31,17.4-34,22.86-31.5,13.63-63.86,24.86-97.52,31.87-9.23,1.93-18.79,2.26-28.22,3.19a9,9,0,0,1-5-1.16c9.6-1.4,19.26-2.43,28.77-4.25,30.17-5.77,59.26-15.3,87.54-27.07,13.28-5.52,25.92-12.67,38.52-19.66C336.85,44,338.75,40,341.23,37Z"/><path class="cls-2" d="M312.51,14.94c-.86.23-2.27.23-2.49.74-3.5,8-10.61,11.78-17.94,15-29.25,12.92-59.84,21.36-91.25,27-3.4.61-6.86.9-10.3,1.33l-6-1c11.68-2.32,23.43-4.34,35-7,24.15-5.55,47.9-12.52,70.54-22.69,5.49-2.46,10.41-6.38,15.17-10.15,1.37-1.09,1.29-4,1.87-6.12Z"/><path class="cls-2" d="M204.14,239.14c25.7,4.52,50.87-1.27,76.26-3.67-20.31,5.92-41.11,8.27-63.61,8.13l3.82,2.37C213.81,246.86,209.74,241.14,204.14,239.14Z"/><path class="cls-3" d="M169.17,29.94c3.53.93,7,2.65,10.57,2.67,10.77,0,21.54-.58,32.31-.91a21.4,21.4,0,0,1,6.69.63c-17.78,2.91-35.53,5.75-53.4.89Z"/><path class="cls-1" d="M157.94,40.88c1.79,1,3.52,2.66,5.37,2.78,8.28.56,16.59.7,24.9.94,2.37.07,4.76,0,7.1.91-13.4,1.58-26.82,3.75-40-1.52C156.21,43,157.07,41.91,157.94,40.88Z"/><path class="cls-3" d="M202.38,9c.92.79,1.89,2.31,2.75,2.25,6.59-.49,13.17-1.24,19.75-2,3.17-.36,6.33-.86,9.5-1.3l.33,1.35a24.69,24.69,0,0,1-4.3,1.44c-8.35,1.21-16.7,2.4-25.08,3.34-1.69.19-3.49-.72-5.24-1.13C200.85,11.67,201.62,10.35,202.38,9Z"/><path class="cls-2" d="M194.14,236l9.38,3Z"/><path class="cls-3" d="M207.59,7,202.34,9Z"/><path class="cls-1" d="M368.36,169l-1.89-1,1.86-.94Z"/><path class="cls-10" d="M145.37,186l-2.93-.31a.62.62,0,0,1-.12-.69Z"/><path class="cls-2" d="M126.36,123l-2.11.84Z"/><path class="cls-2" d="M154.36,203.73l.95,1.26Z"/><path class="cls-2" d="M155.33,205l.93,1Z"/><path class="cls-1" d="M159.91,38.8l-.67.76Z"/><path class="cls-1" d="M158.89,39.91c-.22.21-.43.43-.65.65C158.46,40.34,158.67,40.12,158.89,39.91Z"/><path class="cls-1" d="M155.33,44l-1,1.12Z"/><path class="cls-2" d="M361.36,64.06c-.27-.42-.53-.84-.79-1.26C360.83,63.22,361.09,63.64,361.36,64.06Z"/><path class="cls-2" d="M156.31,206.06l1,1Z"/><path class="cls-1" d="M363.51,180l.82-1.26C364.06,179.19,363.79,179.61,363.51,180Z"/><path class="cls-13" d="M27.59,164.6c23.06-9.44,46.07-19,69.2-28.25,7.55-3,15.4-5.31,23.16-7.76a54.44,54.44,0,0,1,7.23-1.31c0,1.9,0,3.8,0,5.71a10.53,10.53,0,0,0-2.83.21c-11.39,4.17-22.76,8.41-34.14,12.63L86.83,145l-3.5,1h0a28.68,28.68,0,0,0-4.29,1.1c-9,3.86-18,7.81-26.92,11.73l-3.24,1.31-3.22,2-5.35.85-9.93,5L27.67,166C27.64,165.5,27.62,165.05,27.59,164.6Z"/><path class="cls-1" d="M419.3,68a13.77,13.77,0,0,1-3.3.83c-16.78-.13-33.17,3.33-49.71,5.44L364.52,71c1.71-1,3.33-2.73,5.17-3,14.56-2.27,29.17-4.27,43.77-6.35,1-.14,2-.35,2.92-.52l7-.39,2.95.09,47.11-1.49c0,1.22-.05,2.43-.07,3.64a29.25,29.25,0,0,0-4.83-.95c-5.68-.18-11.37-.19-17.06-.27-2.77.06-5.57-.08-8.31.25a49,49,0,0,0-6.6,1.74l-5.05.26-11.11.21,0,1.72C420,66.63,419.64,67.29,419.3,68Z"/><path class="cls-8" d="M127.31,138c-2,.34-4.14.32-6,1.06-17.23,6.88-34.45,13.79-51.56,21-2.86,1.2-5.19,3.67-7.76,5.55l.37,1.63c2.8.54,5.63,1.68,8.39,1.52,14.72-.89,29.43-2,44.13-3.25,4.45-.36,8.88-1.13,13.3-1.83,1.91-.31,4.28-.52,3-3.61.08-.37.17-.73.26-1.09,1.33,2.16,1.08,5.94,5.27,5.19-13.45,1.95-26.87,4.17-40.36,5.75-8.08.94-16.28.88-24.43,1.26a9.4,9.4,0,0,1-1.5,0c-3.87-.45-9.18.45-10.22-4-.48-2.07,4-5.27,6.18-8,13.72-5.81,27.42-11.68,41.18-17.42,6.51-2.72,13.13-5.2,19.7-7.79.32,1.39.64,2.79.95,4.18Z"/><path class="cls-8" d="M373.33,96.69l2.16,6.85c21.36-8,43.34-13.77,62-27.07-.09-.56-.17-1.13-.26-1.69L432.33,73c-2.75-.33-5.5-.69-8.26-1-3.57-.36-7.14-.65-10.71-1,6.77,0,13.57-.26,20.32.13,1.95.11,5.26,2,5.33,3.2a7.55,7.55,0,0,1-3.19,5.89,183,183,0,0,1-21.65,11.06c-11.64,4.8-23.57,8.88-35.41,13.19a23.69,23.69,0,0,1-4.34.72C374.05,102.36,373.69,99.53,373.33,96.69Z"/><path class="cls-5" d="M306.13,80.9c-18.4,7.23-36.68,14.8-55.26,21.52-7.11,2.57-14.93,3.19-22.42,4.7l-4-1.05c28.14-4,53.86-15.32,79.73-26.22Z"/><path class="cls-3" d="M258.05,17.47c-18.23,7.18-36.62,13.37-56.67,8.83C221,28.12,239.34,21.56,258.05,17.47Z"/><path class="cls-18" d="M127.25,133.89c-6.57,2.59-13.19,5.07-19.7,7.79-13.76,5.74-27.46,11.61-41.18,17.42l-1.26-1.25L68.37,155l-.07.05L69.36,154l-.07.06,2-.06,2.54-2,0,0,4-1,1.52-.55,4-2.47,0,0,6.87-2.19c11.38-4.22,22.75-8.46,34.14-12.63a10.53,10.53,0,0,1,2.83-.21A1.39,1.39,0,0,1,127.25,133.89Z"/><path class="cls-13" d="M214.89,19.68c-7.1,2.4-14.12,3.24-20.94.42,0-.46,0-.91,0-1.36Z"/><path class="cls-7" d="M127.31,138l.89.09c5.07,1.29,10.09,2.85,15.23,3.76,3.13.55,6.45.1,9.64,1a39.83,39.83,0,0,1-24.31-1.51c-.17,1.89-.31,3.48-.45,5.06Q127.82,142.17,127.31,138Z"/><path class="cls-6" d="M224.47,106.07l4,1.05L212.66,109c-.06-.72-.11-1.43-.16-2.15Z"/><path class="cls-10" d="M198.21,138l-13,2.55c-.13-.65-.26-1.31-.4-2l12.91-2.28C197.86,136.83,198,137.39,198.21,138Z"/><path class="cls-10" d="M135.32,129l3.19.94Z"/><path class="cls-10" d="M133.33,128l2,1Z"/><path class="cls-10" d="M131.35,126.85l2,1.14Z"/><path class="cls-15" d="M144.49,180c-13.78,2.12-27.51,4.89-41.37,6.22q-37,3.56-74.06,5.53c-7,.37-14.22-1.34-21.09-3.09-5.51-1.4-6.24-4.74-2.24-8.75,3.1-3.1,7-5.35,10.61-8-.62,1.69-1.25,3.37-1.88,5.06l-1,1.52c0,.44,0,.88,0,1.32.8,3.92,3.56,5.51,7.2,6l10.66,1.41,3.11,0,18.77-.42c11.38-.8,22.8-1.16,34.11-2.5,15.11-1.79,30.14-4.21,45.16-6.65,4.4-.71,8.64-2.42,13-3.68l.78.09a10.56,10.56,0,0,0,3.31.54c11.09-1.9,22.2-3.75,33.23-6,3.08-.62,5.94-2.39,8.89-3.63h.33l.33,0c4.73.26,9.63,1.31,13.32-3a3.17,3.17,0,0,0,.53.05L216.36,160c2.54,0,5.1.18,7.63-.05,5-.45,8.88-5,14.61-3.71,2,.45,4.51-1.92,6.9-2.43,8.5-1.81,17.1-3.2,25.57-5.13,2.56-.58,4.84-2.4,7.24-3.65l.05-.05c4.94,1.84,8.93-.71,13-2.82l11.34-3h.34c.95.18,2,.73,2.84.5,11.18-3.12,22.33-6.34,33.48-9.54l2-1,37-11,14-5.1,9.91-3,2.11-.86,4.85-1.17,2.1-1c.9-.39,1.8-.79,2.71-1.15L449.36,92l0,0,5.05-2,1.38-1a.92.92,0,0,0,.6-.47l5-2.52,0,0,4.54-2,.06.08L472.35,80l-.05,0,3.09-1,2-2.1-.08.06,2.1-1.05-.09.07L480.35,75l-.05,0,2.07-1-.07.06L483.35,73l0,0,4-3c3.58-4.84,3.11-6.86-2.06-9.59a18.08,18.08,0,0,1-2.8-2.27c4.05.91,8.2,1.5,12.11,2.81,4.93,1.67,5.89,5.08,2,8.57a88.9,88.9,0,0,1-15.5,11.56c-26.59,15.07-55.32,25.13-84,35.12-7.64,2.66-15.33,5.17-23,7.75l-5.74,1.73-20.47,6.25-.32.06-16.45,5c-17.82,4.73-35.6,9.61-53.47,14.15-13.22,3.35-26.55,6.26-39.83,9.36-8.26,1.93-16.47,4.07-24.78,5.74-22.35,4.49-44.74,8.78-67.11,13.17A7,7,0,0,0,144.49,180Z"/><path class="cls-8" d="M191.53,229.47l42-5.61c0,.4.09.8.14,1.2C219.73,227.64,206,232.19,191.53,229.47Z"/><path class="cls-10" d="M149.32,186.89l-3.24-.75Z"/><path class="cls-8" d="M482.44,58.12a18.08,18.08,0,0,0,2.8,2.27c5.17,2.73,5.64,4.75,2.06,9.59l-1.16-1.23c1.78-4.55-.53-6.77-4.59-7.79-2.68-.67-5.42-1.07-8.14-1.59L426.3,60.86c3.73-.86,7.43-2.32,11.19-2.5,13.55-.64,27.11-.9,40.68-1.2A18.35,18.35,0,0,1,482.44,58.12Z"/><path class="cls-8" d="M423.35,60.77l-7,.39Z"/><path class="cls-23" d="M206.09,162.08a3.17,3.17,0,0,1-.53-.05c-2.67.09-5.4-.13-8,.39-1.87.37-3.56,1.71-5.33,2.63l-.33,0h-.33c-4,.31-8.08.44-12.07,1-4.83.65-9.64,1.52-14.41,2.52-6.62,1.37-13.19,2.95-19.78,4.44-2.48.21-5,.26-7.43.66-9.4,1.51-18.74,3.54-28.19,4.63-11.84,1.37-23.77,2-35.66,3l-14.77.59c-2.73-.64-5.62-.91-8.14-2-3.61-1.58-8.59-3-10-5.91C39,169.65,44,167,47,164.2c1.49-1.38,2.84-2.91,4.25-4.38V160l1.07-1-.19-.17c9-3.92,17.93-7.87,26.92-11.73a28.68,28.68,0,0,1,4.29-1.1l0,2,0,0-4,2.47-1.52.55-4,1,0,0-3.55,1-1,1.08.07-.06L68.3,155l.07-.05L61.32,159l.06,0-6,4,0,0-4.15,2c-1.28,2.3-4.12,5.25-3.49,6.75.91,2.16,4.22,3.48,6.72,4.72,1.38.68,3.2.46,4.83.65l1.44.15,4.17.21H92.54l0-1.35-2.3-.38a5.75,5.75,0,0,1,1.86-.65c20.16.16,39.6-5.26,59.44-7.65,31-3.73,61.19-11.61,91.6-18.37,17.34-3.86,34.49-8.57,51.67-13.13,10.25-2.73,20.38-5.93,30.56-8.91,0,.29,0,.58-.06.87l3-1,8.89-2,1.17-1a6.57,6.57,0,0,1,.77,0l5.15-1.91c8.4-2.67,16.88-5.1,25.17-8.06,12.92-4.62,25.72-9.57,38.56-14.42,3.83-1.44,7.61-3,11.41-4.54l3.5.8,1.4,1.13-14.43,6.38c.42,1.06.91,2.34,1.41,3.62l-2.1,1L408,104.76c.88,3.27-7.11-.8-3.59,4.32l-2.11.86c-1-3.25-3.46-2.53-5.65-1.78s-5.2,1.08-4.26,4.76l-14,5.1c-1.16-2.61-2.75-3.66-5.35-1.59a7.1,7.1,0,0,1-2.37,1.13c-8.78,2.49-17.57,4.91-26.33,7.44-1.91.55-4.78.69-2.94,4.07l-2,1c-1.19-3.23-3.32-2.74-6-1.9-7.64,2.41-15.42,4.38-23,6.86-2.6.84-4.88,2.69-7.3,4.08h-.35c-2.27-1.37-10.71.18-11.85,2.23-.08.13.33.53.52.81-4.08,2.11-8.07,4.66-13,2.82-.12-.21-.25-.42-.74-1.28l.69,1.33c-2.4,1.25-4.68,3.07-7.24,3.65-8.47,1.93-17.07,3.32-25.57,5.13-2.39.51-4.89,2.88-6.9,2.43-5.73-1.28-9.6,3.26-14.61,3.71-2.53.23-5.09.05-7.63.05C212.39,158,209.16,159.65,206.09,162.08Z"/><path class="cls-18" d="M424.33,97l-1.4-1.13.42-1.88-.08.06,5.6-2-.06.06L433.35,89l-.07,0,6.06-3-.06,0,9.13-4.94c.08-.13.23-.28.21-.39a4,4,0,0,0-.3-.74l-.07.09,1.09-1.1-.08.06c3.69-.93,6.32-4.42,4.8-7-1.65-2.81-4.19-4.58-7.57-2l-5.34-2c-1.52-.63-3-1.73-4.58-1.8-5.41-.23-10.82-.11-16.23-.12,0-.57,0-1.15,0-1.73l11.11-.2,5.05-.26,18.91.12,5.29.86-5.33.62c7.09,5.18,7.08,5.17,4.51,12.35-.12.34.3.88.46,1.32l-8.12,7.83c-.84.32-2.21.44-2.42,1a16.54,16.54,0,0,0-.52,4.14l0,0-3-3.67a2.25,2.25,0,0,0-.65.14Z"/><path class="cls-4" d="M420.34,66c5.41,0,10.82-.11,16.23.12,1.55.07,3.06,1.17,4.58,1.8L419.3,68C419.64,67.29,420,66.63,420.34,66Z"/><path class="cls-14" d="M428.87,92l-5.6,2Z"/><path class="cls-4" d="M431.49,64l-11.11.2Z"/><path class="cls-3" d="M45.91,184.69l2.29-1.52c7-.12,14.07-.14,21.1-.41,1.6-.06,3.16-1,4.74-1.5,11.89-1,23.82-1.6,35.66-3,9.45-1.09,18.79-3.12,28.19-4.63,2.45-.4,5-.45,7.43-.66h0l.05,1c-4.31,1.25-8.55,3-13,3.67-15,2.44-30,4.86-45.16,6.65-11.31,1.34-22.73,1.7-34.11,2.5Z"/><path class="cls-1" d="M192.24,165.05c1.77-.92,3.46-2.26,5.33-2.63,2.59-.52,5.32-.3,8-.39C201.87,166.36,197,165.31,192.24,165.05Z"/><path class="cls-1" d="M206.09,162.08c3.07-2.43,6.3-4.08,10.27-2.12Z"/><path class="cls-7" d="M483.31,73q1.41-2.13,2.83-4.26L487.3,70Z"/><path class="cls-17" d="M461.32,86l4.54-2Z"/><path class="cls-7" d="M477.28,77l2.1-1.05Z"/><path class="cls-7" d="M480.3,75l2.07-1Z"/><path class="cls-7" d="M482.3,74,483.35,73Z"/><path class="cls-7" d="M479.29,76,480.35,75Z"/><path class="cls-23" d="M145.32,173l.83,1.12-.78-.09C145.35,173.69,145.34,173.34,145.32,173Z"/><path class="cls-5" d="M478.38,66c3,3.16,2.75,4.43-1,6C477.69,70,478,68,478.38,66Z"/><path class="cls-5" d="M476.35,74l-2.05,1Z"/><path class="cls-5" d="M477.31,72l-1,2Z"/><path class="cls-18" d="M467.29,67.09l1.17.85Z"/><path class="cls-5" d="M474.34,75l-1,1Z"/><path class="cls-5" d="M468.37,80.08l-.94-1a9.24,9.24,0,0,1,.92-.1C468.36,79.33,468.36,79.7,468.37,80.08Z"/></g></g></svg>