<svg xmlns="http://www.w3.org/2000/svg" viewBox="0 0 51.67 51.13"><defs><style>.cls-1{fill:#c2ccca;}.cls-2{fill:#a0bac7;}.cls-3{fill:#99b5c4;}.cls-4{fill:#8daec2;}.cls-5{fill:#6286b1;}.cls-6{fill:#46658e;}.cls-7{fill:#7aa0bf;}</style></defs><g id="Layer_2" data-name="Layer 2"><g id="Layer_1-2" data-name="Layer 1"><path class="cls-1" d="M42.92,44.6l-1.86,1.57-12-6.1H28.6l.21.26,5.58,7-.33,2-.08,0c-4.46-1.32-8.51-3.14-10.1-8.06l1.27-1.12-.35-.29-.93,1.4-4.93-2.09,0,0q-2.52-5-5-10l0,0c-1.92-5.21-3.72-10.52-10.06-12l.06,0,0-5,0,.05.93-1.11,0,0L6.71,9V9l3.7,2.13c-.23-1.94-.42-3.47-.6-5l0,0,1-.3c3.42,2.56,6.57,5.7,11.39,5.13l2.59,2.39,4.17,1.91,0,0c.93,3.88.88,8.49,3.08,11.42s6.54,3.82,10,5.62h2l0,0c-2.93,4.47-6.61,0-9.86.83l-2.18-1.14-.3.67,2.2.82c-1.17.13-2.56.74-3.45.31A43,43,0,0,1,24.76,30l-1.2,1.12,3.37,4.08c.1.24.2.47.15.34l-.17-.32,11.8,4.24ZM25.78,26.4h.56l-.22-.35-.81-2.95-1,.32ZM21.53,36.55l1,.75-.44-1.19q-3.63-7.62-7.27-15.22l-1.85,1Q17.25,29.23,21.53,36.55ZM11.88,12.19l-.86.88,7.32,8,.84-.86ZM28.21,29.32l.37,0L28.42,29Z"/><path class="cls-1" d="M38.07,3.41c8.24,5,13.52,12,13.6,22,0,2.6-1.18,5.2-1.82,7.8l-5.94-1,0,0L42,30.1c-.89-.34-2.16-.42-2.63-1.07-2.71-3.78-5.23-7.69-7.84-11.58l2.15-1.69-4.81-.54,0,0-3.11-3L19,5.15l.11-.07c0-2,0-3.92,3-3.53C27.39,2.24,32.73,2.8,38.07,3.41ZM38,19.14,37.51,19l.33.27,1,.23Zm3,7.05-.55-.59.46.66c.12.56.25,1.12.38,1.68l.65-.25Zm-2-12.47-.3,1.9h4.1c0-.41.08-.82.13-1.23Zm-3.13,1.09.62-1.15L34,12.72l-.38.95Z"/><path class="cls-2" d="M0,24,.87,19.4,4,17.23l-.06,0q5,6,10.06,12l0,0q2.51,5,5,10l0,0L22,45.45l-2,1.45c-.71-1.22-1.41-2.44-2.11-3.66v0l-4-4h0l-3.07-4-.41,0-4.51-3,0,0-3-2,0,0Z"/><path class="cls-3" d="M10.45,35.25l.41,0,3.07,4h0l4,4v0l2.82,7L19.1,50l-1.25-.74.06,0c-2.39-1.06-3.22-5.71-7.19-3.11l-2-1.91,1.5-1.78L9,41.81l-.27,2.5L1,33.18l-.9-3.11A.94.94,0,0,1,0,29.39l2.89.82,0,0,3,2,0,0Z"/><path class="cls-4" d="M43.91,32.23l5.94,1c-1.25,2.74-2.49,5.49-3.74,8.23l-.39-.38c-1.5-4.75-5.39-5.19-10.64-6l4.28,3.67-.65.75-11.8-4.24,0,0-3.37-4.08L24.76,30a43,43,0,0,0,5.56,3.7c.89.43,2.28-.18,3.45-.31l.28-.35C37.3,32.25,41,36.7,43.91,32.23Z"/><path class="cls-5" d="M20.76,50.22l-2.82-7c.7,1.22,1.4,2.44,2.11,3.66l2-1.45-3.07-6.26,4.93,2.09h0C25.47,46.21,29.52,48,34,49.35,29.72,51.93,25.25,51.22,20.76,50.22Z"/><path class="cls-6" d="M38.07,3.41c-5.34-.61-10.68-1.17-16-1.86-3-.39-3,1.54-3,3.53L15.91,3.21l-.4-.51C23.16-1.09,30.68-.92,38.07,3.41Z"/><path class="cls-7" d="M29.06,40.07l12,6.1L39,47.26l-1.64.32v.16l-3-.5v.11l-5.58-7Z"/><path class="cls-5" d="M10.72,46.2c4-2.6,4.8,2,7.19,3.11Z"/><path class="cls-4" d="M42.92,44.6l-4.21-5.12.65-.75,6.36,2.32.39.38Q44.52,43,42.92,44.6Z"/><path class="cls-5" d="M9.81,6.09c.18,1.52.37,3.05.6,5L6.71,9Z"/><path class="cls-5" d="M2.92,30.21,0,29.39V24Z"/><path class="cls-5" d="M4,17.23.87,19.4C1.91,17,3,14.63,4,12.25Z"/><path class="cls-6" d="M10.88,5.08,15.51,2.7l.4.51-5,2.21Z"/><path class="cls-5" d="M34.39,47.35v-.11L37.3,48l-3.24,1.34Z"/><path class="cls-5" d="M6.71,9,4.86,11.22Z"/><path class="cls-5" d="M.11,30.07,1,33.18Z"/><path class="cls-1" d="M37.3,48l-2.92-.75,3,.5Z"/><path class="cls-5" d="M37.36,47.58,39,47.26Z"/><path class="cls-5" d="M4.9,11.19,4,12.3Z"/><path class="cls-5" d="M10.79,5.82l-1,.3,1.1-1,0,.34Z"/><path class="cls-5" d="M17.85,49.28,19.1,50Z"/><path class="cls-7" d="M28.9,15.22l4.81.54-2.15,1.69c2.61,3.89,5.13,7.8,7.84,11.58.47.65,1.74.73,2.63,1.07,0,.72-.07,1.44-.1,2.16-3.41-1.8-7.85-2.83-9.95-5.62S29.83,19.1,28.9,15.22Z"/><path class="cls-7" d="M10.79,5.82l.13-.4,5-2.21,3.18,1.87L19,5.15l3.2,5.8C17.36,11.52,14.21,8.38,10.79,5.82Z"/><path class="cls-7" d="M21.53,36.56,13,21.89l1.85-1q3.63,7.61,7.27,15.22Z"/><path class="cls-5" d="M14,29.23q-5-6-10.06-12C10.25,18.71,12.05,24,14,29.23Z"/><path class="cls-5" d="M11.88,12.19l7.3,8-.84.86-7.32-8Z"/><path class="cls-6" d="M22.18,11,19,5.15l6.85,7.08-1.06,1.11Z"/><path class="cls-5" d="M19,39.22q-2.52-5-5-10Q16.45,34.21,19,39.22Z"/><path class="cls-7" d="M24.77,13.34l1.06-1.11,3.11,3Z"/><path class="cls-4" d="M25.78,26.4l-1.46-3,1-.32.81,2.95Z"/><path class="cls-7" d="M23.87,41.28l.93-1.4.35.29-1.27,1.12Z"/><path class="cls-4" d="M33.77,33.41l-2.2-.82.3-.67,2.18,1.14Z"/><path class="cls-4" d="M41.93,32.26c0-.72.07-1.44.1-2.16l1.9,2.15Z"/><path class="cls-7" d="M22.08,36.11c.15.39.29.79.44,1.19l-1-.74Z"/><path class="cls-4" d="M26.91,35.24l.17.32c.05.13,0-.1-.15-.34Z"/><polygon class="cls-4" points="28.21 29.32 28.42 28.99 28.58 29.36 28.21 29.32"/><path class="cls-4" d="M26.12,26.06l.22.35h-.56Z"/><path class="cls-7" d="M28.81,40.33l-.21-.26h.46Z"/><path class="cls-2" d="M38.92,13.72l3.93.67c-.05.41-.09.82-.13,1.23h-4.1Z"/><path class="cls-2" d="M35.79,14.81l-2.2-1.14.38-.95,2.44.94Z"/><path class="cls-4" d="M41,26.19l.94,1.5-.65.25c-.13-.56-.26-1.12-.38-1.68Z"/><path class="cls-4" d="M40.88,26.26l-.46-.66.55.59Z"/><path class="cls-7" d="M38,19.14l.8.39-1-.23Z"/><path class="cls-7" d="M37.84,19.3,37.51,19l.49.11Z"/><path class="cls-5" d="M17.93,43.22l-4-4Z"/><path class="cls-5" d="M10.45,35.25l-4.51-3Z"/><path class="cls-5" d="M13.93,39.22l-3.07-4Z"/><path class="cls-5" d="M5.92,32.21l-3-2Z"/><path class="cls-5" d="M8.76,44.31,9,41.81l1.2.7-1.5,1.78Z"/><path class="cls-1" d="M45.72,41.05l-6.36-2.32-4.28-3.67C40.33,35.86,44.22,36.3,45.72,41.05Z"/></g></g></svg>